<?xml version="1.0" standalone="no"?>
<!DOCTYPE svg PUBLIC "-//W3C//DTD SVG 1.1//EN" "http://www.w3.org/Graphics/SVG/1.1/DTD/svg11.dtd" >
<svg xmlns="http://www.w3.org/2000/svg">
<metadata></metadata>
<defs>
<font id="jelesbold" horiz-adv-x="834" >
<font-face units-per-em="1000" ascent="750" descent="-250" />
<missing-glyph horiz-adv-x="250" />
<glyph unicode=" "  horiz-adv-x="250" />
<glyph unicode="&#x09;" horiz-adv-x="250" />
<glyph unicode="&#xa0;" horiz-adv-x="250" />
<glyph unicode="!" horiz-adv-x="308" d="M158 190h-7q-9 0 -9 9v42q0 130 -44 317q-27 110 -27 159q0 42 21 73t63 31q41 0 62 -31t21 -73q0 -49 -27 -159q-44 -187 -44 -317v-43q0 -8 -9 -8zM70 67q0 35 25 59.5t59 24.5t59 -24.5t25 -59.5t-25 -59.5t-59 -24.5t-59 24.5t-25 59.5z" />
<glyph unicode="&#x22;" horiz-adv-x="444" d="M138 486q0 -15 -14 -15h-4q-14 0 -14 15q0 87 -28 178q-18 57 -18 92q0 26 17 45.5t45 19.5t45 -19.5t17 -45.5q0 -35 -18 -92q-28 -91 -28 -178zM338 486q0 -15 -14 -15h-4q-14 0 -14 15q0 87 -28 178q-18 57 -18 92q0 26 17 45.5t45 19.5t45 -19.5t17 -45.5 q0 -35 -18 -92q-28 -91 -28 -178z" />
<glyph unicode="#" horiz-adv-x="644" d="M494 487l-19 -93l-17 -80q81 0 112 1q14 0 14 -13v-29q0 -13 -14 -13q-22 0 -62.5 0.5t-60.5 0.5l-56 -267q-3 -13 -16 -11l-27 5q-13 3 -10 17q25 108 56 256h-206l-56 -267q-3 -13 -16 -11l-27 5q-13 3 -10 17l56 255h-61q-14 0 -14 13v30q0 12 14 12q25 -1 73 -1 l18 86l18 87q-17 0 -53 -0.5t-56 -0.5q-14 0 -14 13v30q0 12 14 12q43 -1 120 -1q8 40 21.5 102.5t22.5 105t13 60.5q4 17 18 14l24 -4q14 -3 11 -18q-7 -27 -57 -260h206q8 40 21.5 102.5t22.5 105t13 60.5q4 17 18 14l24 -4q14 -3 11 -18q-7 -27 -57 -260q46 0 64 1 q14 0 14 -13v-29q0 -13 -14 -13q-13 0 -38.5 0.5t-37.5 0.5zM424 400l18 87h-207l-19 -93l-17 -80h207z" />
<glyph unicode="$" horiz-adv-x="642" d="M81 58v-48q0 -10 -9 -10h-12q-10 0 -10 10q1 89 1 119q0 29 -1 119q0 9 10 9h12q9 0 9 -9v-24q0 -94 61.5 -152t162.5 -62v326q-118 59 -172 105q-77 62 -75 172q1 92 74.5 149t172.5 59q0 19 -0.5 56t-0.5 59q0 10 9 10h12q7 0 8.5 -2t1.5 -9q-1 -38 -1 -115 q99 -4 169 -66q10 -8 16.5 -4t6.5 14v30q0 10 10 10h12q10 0 10 -10q-1 -82 -1 -89q0 -20 1 -102q0 -10 -10 -10h-12q-10 0 -10 10v23q0 70 -57.5 115.5t-134.5 50.5v-273q97 -47 149 -79q119 -75 119 -223q0 -106 -79 -167.5t-189 -66.5q0 -76 1 -113q0 -7 -1.5 -9t-8.5 -2 h-12q-6 0 -7.5 2t-1.5 9q0 22 0.5 58.5t0.5 54.5q-123 5 -207 80q-4 3 -7.5 4t-6.5 -1t-3 -8zM334 10q70 4 123.5 42.5t53.5 108.5q0 39 -21 65t-61 47l-95 48v-311zM305 533v259q-38 -2 -72 -15t-59.5 -41.5t-25.5 -67.5q0 -55 58 -86q40 -21 99 -49z" />
<glyph unicode="%" horiz-adv-x="813" d="M60 610q0 104 38 157.5t106 53.5q69 0 107.5 -53.5t38.5 -157.5t-38.5 -158t-107.5 -54q-68 0 -106 54t-38 158zM144 611q0 -117 11 -154.5t49 -37.5q39 0 50.5 37.5t11.5 154.5q0 118 -11.5 154.5t-50.5 36.5q-38 0 -49 -37t-11 -154zM463 195q0 104 38 157.5t106 53.5 q69 0 107.5 -53.5t38.5 -157.5t-38.5 -158t-107.5 -54q-68 0 -106 54t-38 158zM547 196q0 -117 11 -154.5t49 -37.5q39 0 50.5 37.5t11.5 154.5q0 118 -11.5 154.5t-50.5 36.5q-38 0 -49 -37t-11 -154zM654 795l-466 -804q-7 -12 -19 -5l-10 6q-11 7 -4 18l467 804 q7 12 19 5l8 -5q12 -7 5 -19z" />
<glyph unicode="&#x26;" horiz-adv-x="795" d="M728 -1q-41 1 -90 1q-58 2 -100 25q-69 -42 -195 -42q-117 0 -200 71.5t-83 189.5q0 73 47 133.5t130 101.5l-52 101q-23 47 -21 88q1 74 56.5 113.5t145.5 39.5q94 0 148 -34.5t54 -103.5q0 -15 -3.5 -29t-7.5 -25t-13.5 -22.5t-15.5 -19t-21 -17.5t-21.5 -14.5 t-25.5 -14t-24.5 -12t-26.5 -11.5t-25 -11l211 -391q51 83 48 280q0 18 -18 18q-36 0 -59 -1q-10 0 -10 10v12q0 9 10 9q33 -1 91 -1q55 0 88 1q10 0 10 -9v-12q0 -10 -10 -10q-22 1 -58 1q-18 0 -18 -18q0 -74 -1.5 -109.5t-15.5 -94t-43 -102.5l27 -50q5 -9 18 -11 q36 0 74 1q10 0 10 -10v-12q0 -9 -10 -9zM375 224l-125 231q-44 -32 -57.5 -75t-4.5 -84.5t36 -96.5q43 -92 69 -123q50 -61 124 -61q49 0 96 26q-30 20 -58.5 56.5t-41 57.5t-38.5 69zM368 795q-33 0 -52.5 -21.5t-19.5 -56.5q0 -43 30 -101l41 -78q105 60 105 142 q0 45 -29.5 80t-74.5 35z" />
<glyph unicode="'" horiz-adv-x="244" d="M138 486q0 -15 -14 -15h-4q-14 0 -14 15q0 87 -28 178q-18 57 -18 92q0 26 17 45.5t45 19.5t45 -19.5t17 -45.5q0 -35 -18 -92q-28 -91 -28 -178z" />
<glyph unicode="(" horiz-adv-x="418" d="M240 269q0 -295 27.5 -408t114.5 -119q6 0 6 -9v-9q0 -7 -9 -7q-117 0 -198 154t-81 398t81 398t198 154q9 0 9 -6v-10q0 -9 -6 -9q-87 -6 -114.5 -119t-27.5 -408z" />
<glyph unicode=")" horiz-adv-x="418" d="M178 269q0 295 -27.5 408t-114.5 119q-6 0 -6 9v10q0 6 9 6q117 0 198 -154t81 -398t-81 -398t-198 -154q-9 0 -9 7v9q0 9 6 9q87 6 114.5 119t27.5 408z" />
<glyph unicode="*" horiz-adv-x="555" d="M313 704q-11 -41 -16 -85q31 20 71 62q26 27 53 44q15 10 35.5 7t31.5 -22q9 -18 4.5 -34.5t-20.5 -26.5q-12 -8 -69 -25q-47 -14 -99 -38q40 -20 99 -36q48 -14 64 -24q18 -11 24.5 -28.5t-3.5 -36.5q-9 -17 -30 -19t-35 7q-22 12 -55 45q-32 32 -71 60q3 -40 16 -87 q12 -44 12 -65t-13 -36t-32 -15q-23 0 -33.5 15t-10.5 36q0 28 9 65q12 49 16 87q-50 -36 -75 -62q-30 -31 -52 -43q-13 -9 -33.5 -8.5t-29.5 16.5q-12 21 -6 40t25 29q23 12 65 24q51 15 97 36q-56 27 -97 38q-53 15 -66 23q-42 25 -23 61q12 21 33.5 24t33.5 -7 q33 -22 54 -43q39 -39 74 -62q-5 44 -16 84q-9 33 -9 66q0 51 44 51q19 0 32 -15t13 -36q0 -23 -12 -66z" />
<glyph unicode="+" horiz-adv-x="644" d="M74 373q-14 0 -14 13v29q0 13 14 13q79 -1 221 -1q0 131 -1 221q0 14 14 14h28q13 0 13 -14q-1 -76 -1 -221q132 0 222 1q14 0 14 -14v-27q0 -14 -14 -14q-87 1 -222 1q0 -126 1 -222q0 -14 -13 -14h-30q-12 0 -12 14q1 89 1 222q-145 0 -221 -1z" />
<glyph unicode="," horiz-adv-x="294" d="M95 -143q60 53 80 90q8 16 0 27t-23 9q-34 -6 -63 17.5t-29 65.5q0 36 24 60.5t60 24.5q41 0 65.5 -28.5t24.5 -69.5q0 -67 -28 -113t-92 -104q-6 -5 -12 1l-8 7q-8 6 1 13z" />
<glyph unicode="-" horiz-adv-x="452" d="M373 364q-56 1 -148 1q-91 0 -146 -1q-19 0 -19 21v32q0 21 19 21q54 -1 146 -1q93 0 148 1q19 0 19 -19v-34q0 -21 -19 -21z" />
<glyph unicode="." horiz-adv-x="288" d="M60 67q0 35 25 59.5t59 24.5t59 -24.5t25 -59.5t-25 -59.5t-59 -24.5t-59 24.5t-25 59.5z" />
<glyph unicode="/" horiz-adv-x="468" d="M406 795l-145 -393l-149 -413q-5 -12 -18 -8l-25 9q-12 5 -7 18l151 410l143 396q5 14 18 8l24 -9q13 -4 8 -18z" />
<glyph unicode="0" horiz-adv-x="705" d="M70 402q0 207 74 313t208 106q135 0 209 -106t74 -313t-74 -313t-209 -106q-134 0 -208 106t-74 313zM221 404q0 -101 3 -163.5t10.5 -111.5t23 -73t37.5 -35.5t57 -11.5t57.5 11.5t38 35.5t23 73t10.5 111.5t3 163.5t-3 163.5t-10.5 110.5t-23 71.5t-38 34.5t-57.5 11 t-57 -11t-37.5 -34.5t-23 -72t-10.5 -110.5t-3 -163z" />
<glyph unicode="1" horiz-adv-x="450" d="M125 27q25 -1 44 -1q18 0 18 18v707q0 17 -22 9l-128 -48q-8 -3 -11 5l-4 10q-3 10 4 12l54 18l176 64q39 0 65 1q8 0 8 -9v-769q0 -18 18 -18q19 0 44 1q9 0 9 -8v-11q0 -9 -9 -9q-73 1 -136 1q-68 0 -130 -1q-9 0 -9 9v11q0 8 9 8z" />
<glyph unicode="2" horiz-adv-x="596" d="M544 228q-8 -79 -11 -113l-9 -109q0 -7 -9 -7q-43 1 -119 1h-273q-48 0 -84 -1q-9 0 -9 9v69q0 4 2 6q156 154 211.5 215.5t87.5 108.5q61 91 61 183q0 47 -12 90.5t-46.5 78t-86.5 34.5q-64 0 -115 -46q-12 -10 -17 -25t1.5 -27.5t26.5 -13.5q27 -2 43 -19t16 -44 t-18 -44.5t-48 -17.5q-34 0 -54 27t-20 66q0 84 64 128t159 44q108 0 184.5 -50.5t76.5 -151.5q0 -84 -55 -151q-22 -27 -46.5 -52t-103 -96.5t-214.5 -187.5h362q19 0 21 21l6 75q0 9 9 9h11q10 0 8 -9z" />
<glyph unicode="3" horiz-adv-x="599" d="M30 161q0 33 19.5 60t52.5 27q28 0 43.5 -18t15.5 -44q0 -43 -38 -56q-31 -12 -29 -37q2 -23 23 -41q52 -43 143 -43q36 0 62 13t40.5 33t23 51t11 58.5t2.5 64.5q0 27 -1 45t-4 47t-11.5 49t-21 39.5t-34.5 29.5t-51 10q-57 0 -90 -1q-9 0 -9 9v10q0 9 9 9q31 -1 93 -1 q59 0 79.5 42.5t20.5 117.5q0 160 -104 160q-70 0 -114 -33q-19 -14 -16 -26q2 -9 12 -9q24 0 40.5 -19t15.5 -44q-1 -27 -20.5 -44t-46.5 -17q-28 0 -45 21t-17 49q0 71 62 109.5t140 38.5q44 0 84.5 -9.5t77.5 -30t59 -58t22 -88.5q0 -145 -164 -174q184 -40 184 -232 q0 -116 -74 -181t-200 -65q-107 0 -176 44t-69 134z" />
<glyph unicode="4" horiz-adv-x="601" d="M563 240q8 0 8 -8v-11q0 -8 -8 -8q-50 1 -80 1v-170q0 -18 18 -18q19 0 44 1q9 0 9 -8v-11q0 -9 -9 -9q-93 1 -141 1q-34 0 -126 -1q-8 0 -8 9v10q0 9 8 9q26 -1 45 -1q18 0 18 18v170h-197q-37 0 -106 -1q-8 0 -8 9v14q0 3 2 7q74 155 164 293q103 158 213 285h30 q8 0 16.5 0.5t13.5 0.5h6q8 0 8 -9v-574q30 0 80 1zM59 239h282v458q-69 -88 -124 -175q-86 -134 -158 -283z" />
<glyph unicode="5" horiz-adv-x="626" d="M535 855q-6 -48 -10 -98l-7 -78q-2 -9 -9 -9q-63 2 -89 2h-275l-9 -179q48 58 152 58q132 0 205 -75.5t73 -206.5q0 -128 -74.5 -207t-211.5 -79q-63 0 -115 17t-88.5 60.5t-36.5 107.5q0 31 20.5 56.5t53.5 25.5q26 0 42 -16t16 -47q0 -43 -40 -56q-27 -10 -27 -32 q0 -29 25 -50q47 -40 142 -40q30 0 53.5 8.5t38.5 19t25.5 34.5t15.5 39t7.5 50.5t2.5 51.5v57q0 35 -0.5 52.5t-4 53.5t-12 57t-23 45t-39.5 35.5t-58 12.5q-54 1 -99.5 -26.5t-45.5 -74.5v-31q0 -9 -10 -9h-11q-8 0 -8 9l21 405q0 7 9 7q56 -1 84 -1h265q19 0 20 13l4 38 q1 9 9 9h11q9 0 8 -9z" />
<glyph unicode="6" horiz-adv-x="641" d="M507 821q8 0 8 -8v-11q0 -9 -8 -9q-62 0 -109 -21.5t-77 -62t-48.5 -84.5t-31.5 -102q39 23 93 23q120 0 183.5 -78t63.5 -201q0 -57 -14 -106.5t-43.5 -90t-80 -64t-117.5 -23.5q-71 0 -123 27.5t-80 76t-40.5 104.5t-12.5 124q0 72 18 143.5t55 136.5t88 115.5 t122.5 80.5t153.5 30zM218 267q-3 -258 113 -258q24 0 42.5 11t28.5 33.5t16.5 42.5t9 54t3 51t0.5 49v14q0 39 -4 77t-14.5 81.5t-33.5 70.5t-56 27q-54 0 -88 -32q-15 -91 -17 -221z" />
<glyph unicode="7" horiz-adv-x="517" d="M225 -17q-34 0 -57.5 21t-23.5 57q0 33 7 67t27.5 79t28.5 63t41 76t35 61l146 265h-354q-19 0 -20 -18l-6 -78q0 -9 -10 -9h-10q-9 0 -8 9l13 124l8 98q0 7 9 7q43 -1 109 -1h219q46 0 109 1q9 0 9 -9v-50q0 -2 -2 -6l-164 -299q-31 -55 -34.5 -119.5t5 -142.5t4.5 -122 q-3 -34 -25.5 -54t-55.5 -20z" />
<glyph unicode="8" horiz-adv-x="674" d="M70 227q0 90 42.5 152t133.5 83q-156 30 -156 175q0 81 64 132.5t183 51.5t183 -51.5t64 -132.5q0 -145 -157 -175q177 -40 177 -235q0 -112 -69 -178t-198 -66t-198 66t-69 178zM221 229q0 -124 21.5 -172t94.5 -48t94.5 48.5t21.5 171.5q0 124 -21.5 172t-94.5 48 t-94.5 -48t-21.5 -172zM241 635q0 -82 19 -121t77 -39t77 39t19 121t-19 121t-77 39t-77 -39t-19 -121z" />
<glyph unicode="9" horiz-adv-x="641" d="M134 -17q-8 0 -8 8v11q0 9 8 9q62 0 109 21.5t77 62t48.5 84.5t31.5 102q-39 -23 -93 -23q-120 0 -183.5 78t-63.5 201q0 57 14 106.5t43.5 90t80 64t117.5 23.5q71 0 123 -27.5t80 -76t40.5 -104.5t12.5 -124q0 -72 -18 -143.5t-55 -136.5t-88 -115.5t-122.5 -80.5 t-153.5 -30zM416 647q-14 148 -106 148q-29 0 -49 -19t-29.5 -42.5t-15 -64t-6 -63t-0.5 -59.5v-7q0 -256 108 -256q54 0 88 32q16 97 15 221q0 68 -5 110z" />
<glyph unicode=":" horiz-adv-x="288" d="M60 67q0 35 25 59.5t59 24.5t59 -24.5t25 -59.5t-25 -59.5t-59 -24.5t-59 24.5t-25 59.5zM60 527q0 35 25 59.5t59 24.5t59 -24.5t25 -59.5t-25 -59.5t-59 -24.5t-59 24.5t-25 59.5z" />
<glyph unicode=";" horiz-adv-x="294" d="M65 527q0 35 24.5 59.5t59.5 24.5t59.5 -24.5t24.5 -59.5t-24.5 -59.5t-59.5 -24.5t-59.5 24.5t-24.5 59.5zM95 -143q60 53 80 90q8 16 0 27t-23 9q-34 -6 -63 17.5t-29 65.5q0 36 24 60.5t60 24.5q41 0 65.5 -28.5t24.5 -69.5q0 -67 -28 -113t-92 -104q-6 -5 -12 1l-8 7 q-8 6 1 13z" />
<glyph unicode="&#x3c;" horiz-adv-x="611" d="M229 505l135 63q112 52 154 74q14 6 20 -6l11 -25q6 -13 -7 -19q-19 -8 -48 -21.5t-38 -17.5l-192 -87l-148 -71l145 -70l196 -91q73 -32 85 -37q13 -6 7 -20l-11 -23q-7 -14 -20 -7l-154 73l-135 63q-34 16 -85 38.5t-75 33.5q-9 4 -9 13v51q0 11 9 15q122 54 160 71z " />
<glyph unicode="=" horiz-adv-x="644" d="M326 477q-140 0 -252 -1q-14 0 -14 13v30q0 12 14 12q95 -1 249 -1q182 0 247 1q14 0 14 -13v-29q0 -13 -14 -13q-91 1 -244 1zM326 271q-140 0 -252 -1q-14 0 -14 13v30q0 12 14 12q95 -1 249 -1q182 0 247 1q14 0 14 -13v-29q0 -13 -14 -13q-91 1 -244 1z" />
<glyph unicode="&#x3e;" horiz-adv-x="611" d="M247 568l135 -63q38 -17 160 -71q9 -4 9 -15v-51q0 -9 -9 -13q-24 -11 -75 -33.5t-85 -38.5l-135 -63l-154 -73q-13 -7 -20 7l-11 23q-6 14 7 20q12 5 85 37l196 91l145 70l-148 71l-192 87q-9 4 -38 17.5t-48 21.5q-13 6 -7 19l11 25q6 12 20 6q42 -22 154 -74z" />
<glyph unicode="?" horiz-adv-x="535" d="M197 200q1 22 1 31v77.5t4 65.5t12.5 71.5t25.5 59t43 64.5q72 85 72 142q0 38 -28.5 61t-68.5 23q-101 0 -142 -56q-13 -18 -8 -31q6 -14 30 -17q22 -3 35 -18t13 -34q0 -26 -16.5 -43.5t-44.5 -17.5q-31 0 -48 25t-17 57q0 74 54.5 117.5t144.5 43.5q91 0 153.5 -47 t62.5 -140q0 -70 -46 -119q-22 -23 -58 -56.5t-56.5 -55t-43.5 -53t-33.5 -68.5t-10.5 -83q0 -9 -9 -9h-12q-9 0 -9 10zM128 67q0 35 25 59.5t59 24.5t59 -24.5t25 -59.5t-25 -59.5t-59 -24.5t-59 24.5t-25 59.5z" />
<glyph unicode="@" horiz-adv-x="1143" d="M426 297q-7 -32 -11 -55.5t-8.5 -61t-2 -64t9 -52.5t24.5 -40t45 -14q58 0 108.5 48.5t79 111t41.5 127.5q7 40 7 85t-9 92.5t-38.5 78.5t-76.5 31q-32 0 -58 -18.5t-42 -45t-30 -66t-21 -70.5t-15 -71q-2 -11 -3 -16zM1075 -3q-86 -110 -192 -165t-248 -55 q-115 0 -217.5 34.5t-183 99.5t-127.5 166t-47 225q0 143 70.5 262t196 188t279.5 69q96 0 179.5 -26t151 -77.5t107 -137t39.5 -195.5q0 -56 -15 -121.5t-44 -129.5t-80 -106.5t-115 -42.5q-76 0 -111 44.5t-30 120.5q-83 -165 -214 -165q-50 0 -88.5 19.5t-59 51 t-32.5 72.5t-10 84t8 85q9 46 24 88.5t40 84.5t56.5 72t76.5 49t97 19q65 0 104.5 -42t52.5 -112l25 127q2 11 11 11q5 0 25 -0.5t31 -0.5q12 0 28 0.5t21 0.5q12 0 9 -14q-75 -376 -87 -448q-23 -119 45 -119q46 0 87 39.5t66 98t39 121t14 112.5q0 193 -126 302t-325 109 q-217 0 -355.5 -136.5t-138.5 -360.5q0 -223 144 -359t378 -136q134 0 233.5 50.5t187.5 160.5q5 7 13 1l7 -5q7 -4 0 -13z" />
<glyph unicode="A" d="M197 204l-49 -153q-3 -9 1 -15t14 -6q22 0 50 1q10 0 10 -10v-13q0 -9 -10 -9q-58 1 -89 1q-29 0 -84 -1q-10 0 -10 9v13q0 10 10 10q24 -1 55 -1q17 0 24 21l238 746q2 7 9 7h104q7 0 9 -7l237 -745q7 -22 24 -22q23 0 54 1q10 0 10 -10v-13q0 -9 -10 -9q-88 1 -152 1 q-92 0 -163 -1q-10 0 -10 9v13q0 10 10 10q32 -1 58 -1q24 0 17 22l-55 170h-283q-13 0 -19 -18zM465 250q26 0 19 21l-133 416l-139 -437h253z" />
<glyph unicode="B" horiz-adv-x="766" d="M59 805q77 -1 156 -1h264q84 0 137.5 -45t53.5 -125q0 -71 -42.5 -113.5t-110.5 -46.5q87 -10 138 -73.5t51 -158.5q0 -109 -53 -175.5t-166 -66.5h-280q-60 0 -147 -1q-10 0 -10 9v13q0 10 10 10q30 -1 59 -1q18 0 18 18v708q0 18 -18 18q-30 0 -60 -1q-9 0 -9 10v12 q0 10 9 10zM540 245q0 119 -24.5 166.5t-87.5 49.5h-118q-18 0 -18 -18v-397q0 -18 18 -18h112q66 0 92 48.5t26 168.5zM292 489h129q83 0 83 144q0 77 -19 110t-64 33h-111q-18 0 -18 -18v-269z" />
<glyph unicode="C" horiz-adv-x="771" d="M440 793q-80 0 -122 -32t-62 -116t-20 -243t19.5 -242.5t61 -116t121.5 -32.5q124 0 177.5 68t53.5 206q0 10 10 10h12q10 0 10 -10q-1 -99 -1 -137q0 -40 1 -138q0 -10 -10 -10h-12q-10 0 -10 10v12q0 26 -15.5 28t-30.5 -12q-73 -55 -185 -55q-179 0 -273.5 113 t-94.5 306t94.5 306t273.5 113q109 0 185 -56q15 -14 30.5 -14t15.5 25v18q0 10 10 10h12q10 0 10 -10q-1 -109 -1 -138t1 -137q0 -10 -10 -10h-12q-10 0 -10 10v22q0 114 -56 183t-173 69z" />
<glyph unicode="D" horiz-adv-x="846" d="M59 -1q-9 0 -9 9v13q0 10 9 10q31 -1 60 -1q18 0 18 18v708q0 18 -18 18q-29 0 -59 -1q-10 0 -10 9v13q0 10 10 10q87 -1 151 -1h241q84 0 147.5 -31t101.5 -86.5t56.5 -127t18.5 -157.5q0 -63 -9.5 -119t-33 -109t-60 -90.5t-93 -60.5t-128.5 -23h-239q-77 0 -154 -1z M292 758v-712q0 -18 18 -18h130q25 0 46 6.5t37 18.5t29 28.5t21.5 36.5t15 42t10 45.5t6.5 47.5t3 47t1 44.5t0 39.5v18q0 148 -13 212q-35 161 -156 162h-130q-18 0 -18 -18z" />
<glyph unicode="E" horiz-adv-x="741" d="M60 805q67 -1 146 -1h368q23 0 75 1q9 0 9 -9q-1 -57 -1 -67q0 -16 1 -71q0 -10 -10 -10h-12q-10 0 -10 11q0 64 -20 90.5t-66 26.5h-230q-18 0 -18 -18v-278h178q48 0 63.5 22.5t15.5 76.5q0 9 10 9h12q9 0 9 -10q-1 -86 -1 -112q0 -27 1 -113q0 -9 -9 -9h-12 q-10 0 -10 10q0 50 -14.5 74t-61.5 24h-163q-18 0 -18 -18v-387q0 -19 18 -19h248q84 0 91 134q1 17 1 61q0 9 10 9h12q9 0 9 -9q0 -28 -0.5 -45.5t0 -22.5t0 -14.5t-0.5 -26.5q0 -21 1 -106q0 -9 -9 -9q-27 1 -48 1h-418q-59 0 -146 -1q-10 0 -10 9v13q0 10 10 10 q30 -1 59 -1q18 0 18 18v708q0 18 -18 18q-29 0 -59 -1q-10 0 -10 10v12q0 10 10 10z" />
<glyph unicode="F" horiz-adv-x="708" d="M291 469h176q49 0 66 22t17 77q0 9 10 9h12q10 0 10 -10q-1 -96 -1 -111q0 -8 1 -113q0 -10 -10 -10h-12q-10 0 -10 9q0 54 -16.5 76.5t-66.5 22.5h-158q-18 0 -18 -18v-375q0 -18 18 -18q27 0 58 1q10 0 10 -10v-13q0 -9 -10 -9q-88 1 -156 1q-66 0 -151 -1q-10 0 -10 9 v13q0 10 10 10q32 -1 58 -1q18 0 18 18v708q0 18 -18 18q-29 0 -58 -1q-10 0 -10 9v13q0 10 10 10q97 -1 151 -1h365q21 0 73 1q9 0 9 -9q-1 -57 -1 -67q0 -17 1 -71q0 -10 -10 -10h-12q-10 0 -10 10q0 63 -18 90.5t-59 27.5h-240q-18 0 -18 -18v-289z" />
<glyph unicode="G" horiz-adv-x="839" d="M444 -17q-182 0 -278 113t-96 306t96.5 306t278.5 113q113 0 186 -52q15 -13 30.5 -12t15.5 22v15q0 10 10 10h12q10 0 10 -10q-1 -99 -1 -138t1 -137q0 -10 -10 -10h-12q-10 0 -10 10q0 131 -57.5 202.5t-175.5 71.5q-80 0 -123 -32t-64 -116.5t-21 -242.5t21 -242.5 t64.5 -116.5t123.5 -32q71 0 102 14q21 10 21 31v300q0 18 -18 18q-27 0 -58 -1q-10 0 -10 10v12q0 10 10 10q85 -1 152 -1t155 1q10 0 10 -10v-12q0 -10 -10 -10q-33 1 -58 1q-18 0 -18 -18v-266q-110 -107 -279 -107z" />
<glyph unicode="H" horiz-adv-x="920" d="M553 -1q-10 0 -10 9v13q0 10 10 10q32 -1 58 -1q18 0 18 18v413h-319q-18 0 -18 -18v-395q0 -18 18 -18q24 0 58 1q10 0 10 -10v-13q0 -9 -10 -9q-88 1 -155 1q-66 0 -153 -1q-10 0 -10 9v13q0 10 10 10q30 -1 59 -1q18 0 18 18v708q0 18 -18 18q-29 0 -59 -1 q-10 0 -10 9v13q0 10 10 10q87 -1 154 -1q66 0 154 1q10 0 10 -10v-12q0 -10 -10 -10q-29 1 -58 1q-18 0 -18 -18v-267h319q18 0 18 18v249q0 18 -18 18q-29 0 -58 -1q-10 0 -10 10v12q0 10 10 10q67 -1 155 -1q65 0 152 1q10 0 10 -10v-12q0 -10 -10 -10q-29 1 -58 1 q-18 0 -18 -18v-708q0 -18 18 -18q26 0 59 1q9 0 9 -10v-13q0 -9 -9 -9q-108 1 -155 1q-66 0 -153 -1z" />
<glyph unicode="I" horiz-adv-x="436" d="M60 -1q-10 0 -10 9v13q0 10 10 10q30 -1 59 -1q18 0 18 18v708q0 18 -18 18q-29 0 -59 -1q-10 0 -10 10v12q0 10 10 10q87 -1 155 -1q66 0 154 1q10 0 10 -10v-12q0 -10 -10 -10q-30 1 -59 1q-18 0 -18 -18v-708q0 -18 18 -18q32 0 66 1q10 0 10 -10v-13q0 -9 -10 -9 q-88 1 -161 1q-68 0 -155 -1z" />
<glyph unicode="J" horiz-adv-x="575" d="M515 805q10 0 10 -10v-12q0 -10 -10 -10q-30 1 -59 1q-18 0 -18 -18v-458q0 -139 -63 -227t-181 -88q-72 0 -118 42.5t-46 110.5q0 31 19.5 55.5t51.5 24.5q28 0 44 -16t16 -46q0 -46 -52 -61q-15 -4 -17.5 -17.5t7.5 -23.5q35 -41 86 -41q41 0 66 30.5t31.5 81t6 91 t-5.5 84.5v458q0 18 -18 18q-29 0 -58 -1q-10 0 -10 10v12q0 10 10 10q45 -1 152 -1q108 0 156 1z" />
<glyph unicode="K" horiz-adv-x="863" d="M823 -1q-98 1 -172 1q-97 0 -176 -1q-10 0 -10 10v12q0 10 10 10q36 -1 63 -1q9 0 13.5 6t-1.5 17l-259 394v-399q0 -18 18 -18q27 0 58 1q10 0 10 -10v-12q0 -10 -10 -10q-107 1 -157 1q-54 0 -150 -1q-10 0 -10 10v12q0 10 10 10q31 -1 58 -1q18 0 18 18v708 q0 18 -18 18q-29 0 -58 -1q-10 0 -10 10v12q0 10 10 10q87 -1 150 -1q49 0 157 1q10 0 10 -10v-13q0 -9 -10 -9q-29 1 -58 1q-18 0 -18 -18v-309l315 304q8 7 6 15t-13 8q-28 0 -57 -1q-10 0 -10 10v12q0 10 10 10q45 -1 104 -1q34 0 92 1q10 0 10 -10v-12q0 -10 -10 -10 q-26 1 -48 1q-20 0 -47 -27l-222 -215l320 -483q12 -19 24 -19q25 0 58 1q10 0 10 -10v-12q0 -10 -10 -10z" />
<glyph unicode="L" horiz-adv-x="668" d="M367 805q10 0 10 -10v-12q0 -10 -10 -10q-29 1 -58 1q-18 0 -18 -18v-710q0 -18 18 -18h206q22 0 38.5 7.5t26 23.5t15.5 30.5t8 41t2.5 40.5t0.5 42v11q0 8 10 8h12q10 0 10 -9q0 -40 -1 -109q0 -30 0.5 -60.5t0.5 -45.5q0 -9 -9 -9q-57 1 -109 1h-305q-70 0 -155 -1 q-10 0 -10 10v12q0 10 10 10q32 -1 58 -1q18 0 18 18v708q0 18 -18 18q-29 0 -58 -1q-10 0 -10 10v12q0 10 10 10q77 -1 155 -1q65 0 152 1z" />
<glyph unicode="M" horiz-adv-x="1046" d="M60 805q119 -1 142 -1q21 0 91 1q7 0 9 -7l220 -666l223 665q2 8 9 8q64 -1 72 -1q84 0 152 1q10 0 10 -10v-12q0 -10 -10 -10q-29 1 -58 1q-18 0 -18 -18v-708q0 -18 18 -18q32 0 66 1q10 0 10 -10v-12q0 -10 -10 -10q-111 1 -169 1q-49 0 -136 -1q-9 0 -9 10v12 q0 10 9 10q28 -1 48 -1q18 0 18 18v667l-238 -709q-3 -7 -9 -7q-32 1 -43 1q-12 0 -47 -1q-6 0 -9 7l-237 713v-671q0 -18 18 -18q31 0 59 1q10 0 10 -10v-12q0 -10 -10 -10q-48 1 -91 1q-33 0 -90 -1q-10 0 -10 10v12q0 10 10 10q28 -1 58 -1q18 0 18 18v708q0 18 -18 18 q-29 0 -58 -1q-10 0 -10 10v12q0 10 10 10z" />
<glyph unicode="N" horiz-adv-x="846" d="M61 805q67 -1 128 -1q23 0 64 1q3 0 8 -5l420 -554v510q0 18 -18 18q-29 0 -58 -1q-10 0 -10 10v12q0 10 10 10q58 -1 90 -1q22 0 91 1q10 0 10 -10v-12q0 -10 -10 -10q-30 1 -59 1q-18 0 -18 -18v-677q0 -30 1 -87q0 -9 -9 -9h-10q-6 0 -9 5l-517 681v-621q0 -18 18 -18 q31 0 66 1q10 0 10 -10v-12q0 -10 -10 -10q-71 1 -99 1q-23 0 -90 -1q-10 0 -10 10v12q0 10 10 10q30 -1 59 -1q18 0 18 18v708q0 18 -18 18q-29 0 -58 -1q-10 0 -10 10v12q0 10 10 10z" />
<glyph unicode="O" horiz-adv-x="880" d="M70 402q0 193 95.5 306t274.5 113t274.5 -113t95.5 -306t-95.5 -306t-274.5 -113t-274.5 113t-95.5 306zM236 402q0 -159 20 -243t62 -116t122 -32t122 32t62 116t20 243t-20 243t-62 116t-122 32t-122 -32t-62 -116t-20 -243z" />
<glyph unicode="P" horiz-adv-x="750" d="M60 805q67 -1 149 -1h232q112 0 185.5 -57t73.5 -167q0 -107 -70.5 -166t-187.5 -59h-133q-18 0 -18 -18v-289q0 -18 18 -18q26 0 58 1q10 0 10 -10v-12q0 -10 -10 -10q-108 1 -158 1q-43 0 -150 -1q-9 0 -9 10v12q0 10 9 10q31 -1 59 -1q18 0 18 18v708q0 18 -18 18 q-19 0 -58 -1q-10 0 -10 10v12q0 10 10 10zM291 758v-375h130q30 0 52 12.5t34 30.5t18.5 46.5t8.5 52t2 54.5q0 36 -3 63.5t-13.5 61.5t-35.5 53t-63 19h-112q-18 0 -18 -18z" />
<glyph unicode="Q" horiz-adv-x="880" d="M70 402q0 193 95.5 306t274.5 113t274.5 -113t95.5 -306q0 -165 -70 -272.5t-203 -136.5q0 -5 0.5 -15t0.5 -15v-141q0 -17 16 -17q17 0 17 17v123q0 9 9 9h12q8 0 8 -9q-1 -40 -1 -125q0 -18 -13.5 -31t-31.5 -13h-32q-122 0 -124 209q-159 13 -243.5 124.5t-84.5 292.5 zM236 402q0 -177 22 -258q44 34 105 34q72 0 114 -41t55 -111q61 25 86.5 110t25.5 266q0 159 -20 243t-62 116t-122 32t-122 -32t-62 -116t-20 -243zM342 146q-40 0 -75 -30q18 -49 49.5 -73t81.5 -30q0 50 -1 73q-5 60 -55 60z" />
<glyph unicode="R" horiz-adv-x="802" d="M471 396h-162q-18 0 -18 -18v-330q0 -18 18 -18q27 0 58 1q10 0 10 -10v-12q0 -10 -10 -10q-107 1 -151 1q-49 0 -156 -1q-10 0 -10 10v12q0 10 10 10q31 -1 58 -1q18 0 18 18v710q0 16 -19 16q-28 0 -57 -1q-10 0 -10 9v13q0 10 10 10q47 -1 133 -1h244q114 0 186.5 -49 t72.5 -156q0 -70 -36 -119t-103 -70q150 -33 150 -218v-144q0 -18 18 -18q27 0 58 1q10 0 10 -10v-12q0 -10 -10 -10q-25 1 -60 1h-32q-33 0 -58.5 13t-41 37t-26 50t-15 61.5t-6 62t-1.5 59.5v23q0 53 -15 71.5t-57 18.5zM291 758v-334h126q37 0 61 14t35 41.5t15 55 t4 67.5q0 37 -3.5 62.5t-14 54t-35.5 43t-63 14.5h-107q-18 0 -18 -18z" />
<glyph unicode="S" horiz-adv-x="642" d="M81 58v-48q0 -10 -9 -10h-12q-10 0 -10 10q1 89 1 119q0 29 -1 119q0 9 10 9h12q9 0 9 -9v-24q0 -97 65.5 -155.5t171.5 -58.5q45 0 87.5 14.5t74 50.5t31.5 86q0 39 -21 65t-61 47q-20 11 -89.5 45.5t-119.5 63.5t-87 59q-77 62 -75 172q1 94 77.5 151t177.5 57 q62 0 105 -15.5t85 -51.5q10 -8 16.5 -4t6.5 14v30q0 10 10 10h12q10 0 10 -10q-1 -82 -1 -89q0 -20 1 -102q0 -10 -10 -10h-12q-10 0 -10 10v23q0 74 -63.5 120.5t-145.5 46.5q-62 0 -115.5 -32.5t-53.5 -92.5q0 -55 58 -86q21 -11 123 -60t154 -82q119 -75 119 -223 q0 -110 -84.5 -172t-199.5 -62q-60 0 -119 21t-101 59q-4 3 -7.5 4t-6.5 -1t-3 -8z" />
<glyph unicode="T" horiz-adv-x="670" d="M127 804h417q41 0 88 1q9 0 9 -9q-1 -96 -1 -107q0 -12 1 -108q0 -10 -10 -10h-12q-10 0 -10 10v36.5t-1.5 36t-5 38t-10 32t-16 28.5t-24.5 16.5t-34 7.5h-87q-18 0 -18 -18v-710q0 -18 18 -18q31 0 66 1q10 0 10 -10v-12q0 -10 -10 -10q-88 1 -166 1q-64 0 -149 -1 q-10 0 -10 10v12q0 10 10 10q32 -1 58 -1q18 0 18 18v710q0 18 -18 18h-87q-19 0 -34 -7.5t-24.5 -16.5t-16 -28.5t-10 -32t-5 -38t-1.5 -36v-36.5q0 -10 -10 -10h-12q-10 0 -10 10q1 96 1 108q0 11 -1 107q0 9 9 9q47 -1 88 -1z" />
<glyph unicode="U" d="M779 805q10 0 10 -10v-11q0 -11 -10 -11q-33 1 -58 1q-18 0 -18 -18v-563q0 -96 -68 -153t-197 -57q-41 0 -80 5.5t-81.5 20.5t-74 38t-51.5 62.5t-20 89.5v557q0 18 -18 18q-29 0 -58 -1q-10 0 -10 10v12q0 10 10 10q87 -1 151 -1q69 0 156 1q10 0 10 -10v-12 q0 -10 -10 -10q-29 1 -58 1q-18 0 -18 -18v-557q0 -86 46.5 -136.5t128.5 -50.5q85 0 149.5 46t64.5 134v564q0 18 -18 18q-29 0 -58 -1q-10 0 -10 10v12q0 10 10 10q57 -1 90 -1q32 0 90 1z" />
<glyph unicode="V" horiz-adv-x="833" d="M416 0q-22 0 -53 -1q-6 0 -9 7l-237 747q-8 21 -26 21q-25 0 -52 -1q-9 0 -9 10v12q0 10 9 10q87 -1 159 -1q83 0 156 1q10 0 10 -10v-12q0 -10 -10 -10q-30 1 -59 1q-10 0 -14.5 -7t-1.5 -17l202 -633l204 636q7 21 -13 21q-24 0 -51 -1q-9 0 -9 10v12q0 10 9 10 q2 0 29 -0.5t58 -0.5q35 0 58 0.5t27 0.5q10 0 10 -10v-12q0 -10 -10 -10q-28 1 -55 1q-18 0 -24 -21l-238 -747q-3 -7 -9 -7q-37 1 -51 1z" />
<glyph unicode="W" horiz-adv-x="1157" d="M369 0q-14 0 -47 -1q-8 0 -9 7l-197 748q-6 20 -19 20q-25 0 -57 -1q-10 0 -10 10v11q0 11 10 11q88 -1 156 -1t156 1q10 0 10 -10v-12q0 -10 -10 -10q-32 1 -61 1q-20 0 -15 -20l160 -608l145 651q2 8 9 8q37 -1 54 -1q16 0 53 1q7 0 9 -7l142 -654l161 609q5 21 -17 21 q-23 0 -47 -1q-10 0 -10 11v11q0 10 10 10q57 -1 89 -1q25 0 83 1q10 0 10 -10v-11q0 -11 -10 -11q-31 1 -55 1q-19 0 -24 -20l-197 -748q-1 -7 -9 -7q-42 1 -54 1t-49 -1q-8 0 -9 7l-141 649l-146 -649q-1 -7 -9 -7q-37 1 -55 1z" />
<glyph unicode="X" horiz-adv-x="833" d="M558 805q75 -1 97 -1q15 0 84 1q10 0 10 -10v-12q0 -10 -10 -10q-28 1 -52 1q-18 0 -33 -22l-187 -265l244 -433q13 -24 30 -24q25 0 52 1q10 0 10 -10v-11q0 -11 -10 -11q-89 1 -164 1q-81 0 -168 -1q-10 0 -10 11v12q0 9 10 9q30 -1 61 -1q10 0 14 6.5t-2 17.5 l-166 293l-209 -295q-6 -8 -2 -15t15 -7q31 0 61 1q10 0 10 -10v-12q0 -10 -10 -10q-81 1 -101 1q-10 0 -92 -1q-10 0 -10 10v12q0 10 10 10q27 -1 50 -1q16 0 33 22l229 323l-213 377q-12 22 -27 22q-24 0 -55 -1q-9 0 -9 10v12q0 10 9 10q87 -1 173 -1q82 0 159 1 q10 0 10 -10v-12q0 -10 -10 -10q-30 1 -57 1q-10 0 -15.5 -6.5t-0.5 -15.5l135 -237l167 237q7 10 3 16t-16 6q-21 0 -47 -1q-10 0 -10 10v12q0 10 10 10z" />
<glyph unicode="Y" horiz-adv-x="760" d="M234 -1q-10 0 -10 10v12q0 10 10 10q31 -1 58 -1q18 0 18 18v267l-190 437q-10 22 -26 22q-24 0 -54 -1q-10 0 -10 11v11q0 10 10 10q87 -1 161 -1q72 0 160 1q10 0 10 -10v-11q0 -11 -10 -11q-32 1 -59 1q-10 0 -13.5 -6.5t0.5 -15.5l162 -375l162 375q4 9 -1 15.5 t-15 6.5q-28 0 -56 -1q-10 0 -10 11v12q0 9 10 9q57 -1 104 -1q17 0 75 1q10 0 10 -9v-12q0 -11 -10 -11q-26 1 -49 1q-18 0 -27 -22l-180 -416v-288q0 -18 18 -18q25 0 58 1q10 0 10 -10v-12q0 -10 -10 -10q-108 1 -158 1q-41 0 -148 -1z" />
<glyph unicode="Z" horiz-adv-x="644" d="M154 804h363q30 0 87 1q9 0 9 -9v-10q0 -2 -2 -6l-403 -752h280q23 0 40 7.5t27 24.5t16 30.5t8.5 40t2.5 38v38.5v6v5v5q0 10 10 10h12q10 0 10 -10q-1 -74 -1 -109q0 -18 1 -106q0 -9 -9 -9q-52 1 -74 1h-420q-21 0 -72 -1q-9 0 -9 9v10q0 4 1 6l402 751h-257 q-47 0 -67.5 -27t-20.5 -92q0 -9 -10 -9h-12q-10 0 -10 9q1 45 1 70q0 22 -1 70q0 9 9 9q57 -1 89 -1z" />
<glyph unicode="[" horiz-adv-x="342" d="M303 822q9 0 9 -9v-11q0 -9 -9 -9q-28 1 -55 1q-18 0 -18 -18v-1014q0 -18 18 -18q27 0 55 1q9 0 9 -10v-10q0 -9 -9 -9q-83 1 -100 1q-33 0 -94 -1q-9 0 -9 9v1088q0 9 9 9q71 -1 94 -1q38 0 100 1z" />
<glyph unicode="\" horiz-adv-x="468" d="M207 402l-145 393q-5 14 8 18l24 9q13 6 18 -8l143 -396l151 -410q5 -13 -7 -18l-25 -9q-13 -4 -18 8z" />
<glyph unicode="]" horiz-adv-x="342" d="M39 822q62 -1 100 -1q23 0 94 1q9 0 9 -9v-1088q0 -9 -9 -9q-61 1 -94 1q-17 0 -100 -1q-9 0 -9 9v10q0 10 9 10q28 -1 55 -1q18 0 18 18v1014q0 18 -18 18q-27 0 -55 -1q-9 0 -9 9v11q0 9 9 9z" />
<glyph unicode="^" horiz-adv-x="536" d="M63 464l165 356q4 9 14 9h52q9 0 13 -9l166 -354q7 -15 -7 -22l-23 -11q-14 -6 -20 7l-155 336l-155 -336q-6 -13 -19 -7l-26 12q-12 5 -5 19z" />
<glyph unicode="_" horiz-adv-x="657" d="M580 -284q-72 1 -119 1h-276q-47 0 -107 -1q-18 0 -18 16v16q0 16 18 16q49 -1 107 -1h275q54 0 120 1q17 0 17 -16v-16q0 -16 -17 -16z" />
<glyph unicode="`" horiz-adv-x="288" d="M68 846q4 0 23.5 -0.5t28.5 -0.5q10 0 22.5 0.5t16.5 0.5q10 0 12 -8l56 -184q3 -8 -7 -8h-7q-9 0 -13 6l-137 186q-6 8 5 8z" />
<glyph unicode="a" horiz-adv-x="682" d="M218 599q37 12 92 12q171 0 217 -96q25 -53 25 -170v-301q0 -18 18 -18q31 0 61 1q11 0 11 -9v-10q0 -9 -11 -9q-40 1 -90 1q-46 0 -78 29t-43 77q-39 -123 -178 -123q-76 0 -129 47t-53 128q0 159 233 208q47 9 117 17q0 6 -0.5 35t-1 37.5t-3 32.5t-7 32.5t-13.5 24.5 t-21 22t-30.5 11.5t-42.5 5.5q-36 0 -68 -11q-25 -8 -27 -23q-2 -12 10 -16q40 -16 38 -63q-1 -27 -20.5 -42.5t-47.5 -15.5q-29 0 -45 22.5t-16 52.5q0 39 30.5 68.5t72.5 42.5zM304 336q-55 -21 -77.5 -65.5t-22.5 -117.5q0 -52 24 -95.5t69 -43.5q25 0 48.5 19t37.5 46 q27 51 27 153v125q-66 -6 -106 -21z" />
<glyph unicode="b" horiz-adv-x="734" d="M674 297q0 -86 -27.5 -155.5t-87.5 -114t-145 -44.5q-58 0 -100.5 29t-61.5 80v-84q0 -9 -8 -9q-70 1 -91 1q-42 0 -104 -1q-9 0 -9 9v10q0 9 9 9q25 -1 44 -1q18 0 18 18v716q0 18 -18 18q-19 0 -44 -1q-9 0 -9 9v11q0 8 9 8q67 -1 106 -1q16 0 89 1q8 0 8 -8v-295 q19 51 61.5 80t100.5 29q85 0 145 -44.5t87.5 -114t27.5 -155.5zM524 297v10v43.5t-2.5 49t-6.5 54t-13 48.5t-21.5 43.5t-32 28t-44.5 11.5q-35 0 -61.5 -12.5t-42.5 -37t-26.5 -50.5t-14.5 -62.5t-5.5 -63t-1.5 -61.5q0 -36 1.5 -62.5t5.5 -63.5t14.5 -63t26.5 -50.5 t42.5 -37t61.5 -12.5q25 0 44.5 11.5t32 27.5t21.5 44t13 49t6.5 54t2.5 48.5v43.5v3.5v3v3.5z" />
<glyph unicode="c" horiz-adv-x="594" d="M542 114q-20 -60 -74.5 -95.5t-121.5 -35.5q-144 0 -215 85t-71 229t72 229t216 85q70 0 130.5 -32.5t60.5 -96.5q0 -30 -18.5 -49.5t-46.5 -19.5q-26 0 -43 18t-17 43q0 29 25 49q13 11 13 24.5t-19 22.5q-33 15 -83 15q-40 0 -66 -12t-41 -31t-22 -59t-9 -78.5 t-2 -107.5t2 -107.5t9 -78.5t21.5 -59t40 -31t63.5 -12q57 0 104 29.5t67 83.5q3 8 10 6l12 -3q6 -2 3 -11z" />
<glyph unicode="d" horiz-adv-x="734" d="M615 805q8 0 8 -8v-753q0 -18 18 -18q19 0 44 1q9 0 9 -9v-10q0 -9 -9 -9q-62 1 -125 1q-7 0 -70 -1q-8 0 -8 8v85q-19 -51 -61.5 -80t-100.5 -29q-85 0 -145 44.5t-87.5 114t-27.5 155.5t27.5 155.5t87.5 114t145 44.5q58 0 100.5 -29t61.5 -80v257q0 19 -18 19 q-19 0 -44 -1q-9 0 -9 10v10q0 8 9 8q67 -1 109 -1q23 0 86 1zM210 297v-10v-43.5t2.5 -49t6.5 -54t13 -48.5t21.5 -43.5t32 -28t44.5 -11.5q35 0 61.5 12.5t42.5 37t26.5 50.5t14.5 63t5.5 63.5t1.5 62.5q0 35 -1.5 61.5t-5.5 63t-14.5 62.5t-26.5 50.5t-42.5 37 t-61.5 12.5q-25 0 -44.5 -11.5t-32 -27.5t-21.5 -44t-13 -49t-6.5 -54t-2.5 -48.5v-43.5v-3.5v-3v-3.5z" />
<glyph unicode="e" horiz-adv-x="677" d="M210 319h239q18 0 18 18q-1 31 0 64.5t-5.5 66t-18 59t-39 42.5t-66.5 16q-20 0 -37 -5.5t-29.5 -12.5t-22 -21.5t-16 -25t-11 -32t-7 -32.5t-3.5 -36t-1.5 -34.5t-0.5 -35.5v-31zM603 163q-61 -180 -262 -180q-132 0 -206.5 85.5t-74.5 228.5q0 136 70 225t208 89 q128 0 203.5 -83.5t75.5 -225.5q0 -9 -8 -9l-99 1h-282q-18 0 -18 -18q0 -50 1 -71q8 -196 148 -196q83 0 138 43.5t82 120.5q3 8 11 6l10 -3q7 -2 3 -13z" />
<glyph unicode="f" horiz-adv-x="443" d="M49 27q25 -1 45 -1q18 0 18 18v524q-11 0 -62 -1q-9 0 -9 9v11q0 8 9 8q41 -1 64 -1q0 97 50.5 162t157.5 65q55 0 93 -28t38 -84q0 -27 -20 -48t-47 -21t-44.5 18.5t-15.5 44.5q3 39 41 56q12 6 12 16q0 20 -47 20q-33 0 -53.5 -21t-26 -54.5t-4.5 -64.5t6 -61 q48 0 129 1q8 0 8 -8v-11q0 -9 -8 -9q-71 1 -111 1q-18 0 -18 -18v-506q0 -18 18 -18q19 0 44 1q9 0 9 -9v-10q0 -9 -9 -9q-83 1 -145 1q-60 0 -122 -1q-9 0 -9 9v10q0 9 9 9z" />
<glyph unicode="g" horiz-adv-x="660" d="M77 391q0 110 61 165t168 55q87 0 146 -38q41 54 104 57q31 1 57.5 -16.5t26.5 -49.5q0 -25 -17.5 -43t-43.5 -18q-42 1 -52 37t22 65q-45 -7 -77 -48q64 -56 64 -166t-61.5 -165t-167.5 -55q-6 0 -27 0.5t-36.5 0.5t-38 -1t-38.5 -5t-31 -11t-23 -19t-8 -28 q0 -42 56 -42h146q43 0 85 -6t90 -21.5t77.5 -49.5t29.5 -83q0 -102 -124 -152q-91 -37 -217 -37q-30 0 -60 3.5t-66.5 13t-59 32t-22.5 54.5q0 39 33.5 75t93.5 53q-49 16 -75.5 53.5t-26.5 80.5q0 50 34 77.5t91 33.5q-113 49 -113 198zM455 -223q93 41 93 91 q0 26 -32 40.5t-73 14.5q-20 0 -57.5 0.5t-55.5 0.5q-53 0 -123 14q-42 -15 -63.5 -40.5t-19.5 -51.5t16.5 -49.5t44.5 -38.5t65 -15q127 0 205 34zM219 390v-8q0 -39 0.5 -57t3 -45t7.5 -38t14.5 -24t24.5 -17.5t37 -4.5t37.5 4.5t25 18.5t15 25t7.5 40t2.5 46.5t0.5 59.5 t-0.5 60t-2.5 46.5t-7.5 40t-15 25.5t-25 18.5t-37.5 4.5t-37.5 -4.5t-25 -19t-14.5 -25t-7 -40.5t-2.5 -46t-0.5 -60z" />
<glyph unicode="h" horiz-adv-x="757" d="M451 27q22 -1 35 -1q18 0 18 18v326q0 121 -12 157q-18 57 -75 57q-58 0 -97 -50t-53 -111.5t-14 -126.5v-252q0 -18 18 -18q13 0 34 1q9 0 9 -9v-10q0 -9 -9 -9q-83 1 -128 1q-47 0 -128 -1q-9 0 -9 9v10q0 9 9 9q25 -1 44 -1q18 0 18 18v716q0 18 -18 18q-20 0 -45 -1 q-8 0 -8 10v9q0 9 8 9q67 -1 113 -1q20 0 83 1q9 0 9 -9v-336q46 151 181 151q105 0 158.5 -64.5t53.5 -176.5v-326q0 -18 18 -18q19 0 44 1q9 0 9 -9v-10q0 -9 -9 -9q-83 1 -129 1q-47 0 -128 -1q-9 0 -9 9v10q0 9 9 9z" />
<glyph unicode="i" horiz-adv-x="364" d="M49 27q25 -1 44 -1q18 0 18 18v506q0 18 -18 18q-19 0 -44 -1q-9 0 -9 10v9q0 9 9 9q66 -1 105 -1q9 0 90 1q9 0 9 -9v-542q0 -18 18 -18q19 0 44 1q9 0 9 -10v-10q0 -8 -9 -8q-70 1 -138 1q-47 0 -128 -1q-9 0 -9 9v10q0 9 9 9zM181 631q-34 0 -58 24t-24 58q0 33 24 57 t58 24q33 0 57.5 -24t24.5 -57q0 -34 -24.5 -58t-57.5 -24z" />
<glyph unicode="j" horiz-adv-x="366" d="M247 595q9 0 9 -9v-584q0 -48 -9 -94t-28 -91t-57 -72.5t-89 -27.5q-55 0 -82 33q-17 20 -23 47t3 51q17 39 62 39q23 0 41.5 -17t18.5 -44q0 -20 -11.5 -36.5t-30.5 -22.5q-12 -3 -8 -14q3 -11 23 -11q29 0 44 23t15.5 58.5t-2.5 63.5t-9 53v610q0 18 -18 18 q-19 0 -44 -1q-9 0 -9 10v9q0 9 9 9q81 -1 110 -1q17 0 85 1zM184 631q-34 0 -57.5 24t-23.5 58q0 33 23.5 57t57.5 24q33 0 57.5 -24t24.5 -57q0 -34 -24.5 -58t-57.5 -24z" />
<glyph unicode="k" horiz-adv-x="728" d="M185 0q-52 0 -137 -1q-8 0 -8 9v10q0 9 9 9q25 -1 44 -1q18 0 18 18v716q0 18 -18 18q-19 0 -44 -1q-9 0 -9 10v9q0 9 9 9q66 -1 112 -1q25 0 82 1q9 0 9 -9v-752q0 -18 18 -18q5 0 26 1q8 0 8 -9v-10q0 -9 -9 -9q-77 1 -110 1zM373 390l245 -343q14 -21 35 -21 q15 0 37 1q8 0 8 -9v-10q0 -9 -8 -9q-102 1 -142 1q-61 0 -152 -1q-9 0 -9 8v11q0 9 9 9q21 -1 32 -1q10 0 14 8.5t-3 17.5l-182 256l228 229q11 12 9 21.5t-13 9.5q-23 0 -49 -1q-9 0 -9 10v10q0 8 9 8q63 -1 90 -1q40 0 96 1q9 0 9 -8v-10q0 -10 -9 -10q-25 1 -44 1 q-18 0 -46 -26z" />
<glyph unicode="l" horiz-adv-x="364" d="M244 805q9 0 9 -9v-752q0 -18 18 -18q20 0 45 1q8 0 8 -8v-11q0 -9 -8 -9q-93 1 -135 1q-30 0 -132 -1q-9 0 -9 9v11q0 8 9 8q25 -1 44 -1q18 0 18 18v716q0 18 -18 18q-19 0 -44 -1q-9 0 -9 9v10q0 9 9 9q66 -1 107 -1q37 0 88 1z" />
<glyph unicode="m" horiz-adv-x="1086" d="M608 449q41 162 172 162q195 0 195 -241v-326q0 -18 18 -18q19 0 44 1q9 0 9 -8v-11q0 -9 -9 -9q-83 1 -134 1q-33 0 -121 -1q-9 0 -9 9v11q0 8 9 8q21 -1 33 -1q18 0 18 18v326q0 38 -0.5 57t-2 49.5t-6.5 45.5t-12.5 31.5t-20 23.5t-30.5 7q-38 0 -68 -26.5 t-46.5 -69.5t-24.5 -89.5t-8 -93.5v-261q0 -18 18 -18q12 0 33 1q9 0 9 -8v-11q0 -9 -9 -9q-99 1 -125 1q-20 0 -118 -1q-9 0 -9 9v11q0 8 9 8q21 -1 33 -1q18 0 18 18v326q0 38 -0.5 57t-2 49.5t-6.5 45.5t-12.5 31.5t-20 23.5t-30.5 7q-38 0 -68 -27t-46.5 -70.5t-25 -90 t-8.5 -92.5v-260q0 -18 18 -18q13 0 34 1q8 0 8 -8v-11q0 -9 -8 -9q-83 1 -120 1q-35 0 -136 -1q-9 0 -9 9v11q0 8 9 8q25 -1 44 -1q18 0 18 18v506q0 18 -18 18q-19 0 -44 -1q-9 0 -9 9v10q0 9 9 9q66 -1 117 -1q27 0 78 1q9 0 9 -9v-120q21 67 59 106t108 39 q159 0 187 -162h1z" />
<glyph unicode="n" horiz-adv-x="757" d="M451 27q23 -1 35 -1q18 0 18 18v326q0 121 -12 157q-18 57 -75 57q-58 0 -97 -50t-53 -111.5t-14 -126.5v-252q0 -18 18 -18q13 0 35 1q9 0 9 -8v-11q0 -9 -9 -9q-83 1 -124 1q-32 0 -133 -1q-9 0 -9 9v11q0 8 9 8q25 -1 44 -1q18 0 18 18v506q0 18 -18 18q-20 0 -45 -1 q-8 0 -8 9v10q0 9 8 9q57 -1 113 -1q20 0 83 1q9 0 9 -9v-126q46 151 181 151q105 0 158.5 -65t53.5 -176v-326q0 -18 18 -18q19 0 44 1q9 0 9 -8v-11q0 -9 -9 -9q-93 1 -130 1q-58 0 -127 -1q-9 0 -9 9v11q0 8 9 8z" />
<glyph unicode="o" horiz-adv-x="700" d="M60 297q0 144 72.5 229t217.5 85t217.5 -85t72.5 -229t-72.5 -229t-217.5 -85t-217.5 85t-72.5 229zM210 297q0 -69 2 -107.5t9 -78.5t22 -59t41 -31t66 -12t66 12t41 31t22 59t9 78.5t2 107.5t-2 107.5t-9 78.5t-22 59t-41 31t-66 12t-66 -12t-41 -31t-22 -59t-9 -78.5 t-2 -107.5z" />
<glyph unicode="p" horiz-adv-x="734" d="M111 -239v789q0 18 -18 18q-19 0 -44 -1q-9 0 -9 8v11q0 9 9 9q62 -1 115 -1q24 0 80 1q8 0 8 -8v-85q19 51 61.5 80t100.5 29q85 0 145 -44.5t87.5 -114t27.5 -155.5t-27.5 -155.5t-87.5 -114t-145 -44.5q-58 0 -100.5 29t-61.5 80v-331q0 -18 18 -18q19 0 44 1 q9 0 9 -9v-11q0 -8 -9 -8q-91 1 -133 1q-50 0 -132 -1q-9 0 -9 8v11q0 9 9 9q26 -1 44 -1t18 18zM524 297v10v43.5t-2.5 49t-6.5 54t-13 48.5t-21.5 43.5t-32 28t-44.5 11.5q-35 0 -61.5 -12.5t-42.5 -37t-26.5 -50.5t-14.5 -63t-5.5 -63.5t-1.5 -62.5q0 -35 1.5 -61.5 t5.5 -63t14.5 -62.5t26.5 -50.5t42.5 -37t61.5 -12.5q25 0 44.5 11.5t32 27.5t21.5 44t13 49t6.5 54t2.5 48.5v43.5v3.5v3v3.5z" />
<glyph unicode="q" horiz-adv-x="734" d="M623 550v-789q0 -18 18 -18q19 0 44 1q9 0 9 -9v-11q0 -8 -9 -8q-102 1 -132 1q-52 0 -133 -1q-9 0 -9 8v11q0 9 9 9q25 -1 44 -1q18 0 18 18v331q-19 -51 -61.5 -80t-100.5 -29q-85 0 -145 44.5t-87.5 114t-27.5 155.5t27.5 155.5t87.5 114t145 44.5q58 0 100.5 -29 t61.5 -80v85q0 8 8 8q50 -1 90 -1q52 0 105 1q9 0 9 -9v-11q0 -8 -9 -8q-25 1 -44 1q-18 0 -18 -18zM210 297v-10v-43.5t2.5 -49t6.5 -54t13 -48.5t21.5 -43.5t32 -28t44.5 -11.5q35 0 61.5 12.5t42.5 37t26.5 50.5t14.5 62.5t5.5 63t1.5 61.5q0 36 -1.5 62.5t-5.5 63.5 t-14.5 63t-26.5 50.5t-42.5 37t-61.5 12.5q-25 0 -44.5 -11.5t-32 -27.5t-21.5 -44t-13 -49t-6.5 -54t-2.5 -48.5v-43.5v-3.5v-3v-3.5z" />
<glyph unicode="r" horiz-adv-x="512" d="M49 595q54 -1 103 -1q35 0 90 1q11 0 11 -9v-99q14 50 47 87t80 37q57 0 86 -40q16 -25 16 -54q0 -30 -18 -51t-49 -21q-26 0 -42.5 17.5t-16.5 43.5q0 29 26 50q11 9 8 20q-6 13 -26 9q-34 -8 -57.5 -40.5t-34.5 -78.5t-15 -85.5t-4 -79.5v-257q0 -18 18 -18q19 0 44 1 q8 0 8 -8v-11q0 -9 -8 -9q-83 1 -138 1q-47 0 -128 -1q-9 0 -9 9v11q0 8 9 8q25 -1 44 -1q18 0 18 18v506q0 18 -18 18q-19 0 -44 -1q-9 0 -9 9v10q0 9 9 9z" />
<glyph unicode="s" horiz-adv-x="530" d="M96 45q-5 5 -11 7t-11 -1t-5 -11v-31q0 -9 -10 -9h-10q-9 0 -9 9q1 70 1 96q0 29 -1 100q0 9 9 9h10q10 0 10 -9v-30q0 -73 55.5 -118.5t133.5 -47.5q32 -1 68 8.5t66.5 36.5t30.5 65q0 46 -73 81l-196 92q-51 24 -75 66.5t-24 89.5q0 81 57.5 122t145.5 41q92 0 149 -46 q5 -5 11.5 -5t6.5 8v17q0 9 9 9h11q9 0 9 -9q-1 -56 -1 -71q0 -13 1 -70q0 -9 -9 -9h-11q-9 0 -9 9v19q0 56 -49 88.5t-114 34.5q-31 0 -60 -6.5t-54.5 -26.5t-25.5 -51q0 -35 50 -59l202 -96q116 -55 116 -176q0 -90 -67 -139t-164 -49q-101 0 -163 62z" />
<glyph unicode="t" horiz-adv-x="465" d="M297 -17q-120 0 -163 58.5t-43 183.5v343q-21 0 -62 -1q-9 0 -9 9v10q0 9 9 9q42 -1 62 -1v85q0 5 4 6l126 49q11 4 11 -6v-134q56 0 118 1q9 0 9 -9v-10q0 -9 -9 -9q-63 1 -100 1q-18 0 -18 -18v-356q0 -47 2.5 -76t10.5 -56.5t25.5 -40t44.5 -12.5q62 0 94 113 q1 7 10 6l10 -3q7 -2 5 -11q-9 -30 -17 -49t-23 -40t-39 -31.5t-58 -10.5z" />
<glyph unicode="u" horiz-adv-x="757" d="M504 298v252q0 18 -18 18q-19 0 -44 -1q-9 0 -9 8v11q0 9 9 9q89 -1 116 -1q22 0 79 1q9 0 9 -9v-542q0 -18 18 -18q20 0 45 1q8 0 8 -9v-10q0 -9 -8 -9q-66 1 -115 1q-10 0 -81 -1q-9 0 -9 9v126q-46 -151 -181 -151q-105 0 -158.5 65t-53.5 176v326q0 18 -18 18 q-19 0 -44 -1q-9 0 -9 8v11q0 9 9 9q89 -1 116 -1q22 0 79 1q9 0 9 -9v-362q0 -121 12 -157q18 -57 75 -57q58 0 97 50t53 111.5t14 126.5z" />
<glyph unicode="v" horiz-adv-x="672" d="M39 595q81 -1 132 -1q64 0 142 1q9 0 9 -8v-11q0 -9 -9 -9q-26 1 -47 1q-9 0 -13 -6.5t-1 -15.5l144 -437l146 437q4 11 -1.5 16.5t-15.5 5.5q-19 0 -44 -1q-9 0 -9 9v10q0 9 9 9q58 -1 78 -1q19 0 74 1q9 0 9 -8v-11q0 -9 -9 -9q-23 1 -40 1t-24 -21l-180 -541 q-3 -7 -9 -7q-33 1 -44 1q-12 0 -46 -1q-6 0 -9 7l-178 540q-7 22 -23 22q-17 0 -41 -1q-9 0 -9 9v11q0 8 9 8z" />
<glyph unicode="w" horiz-adv-x="943" d="M905 595q8 0 8 -8v-11q0 -9 -8 -9q-23 1 -40 1t-23 -21l-139 -540q-3 -8 -9 -8q-23 1 -35 1q-14 0 -38 -1q-6 0 -9 7l-137 433l-111 -432q-1 -8 -9 -8q-23 1 -35 1q-14 0 -38 -1q-6 0 -9 7l-171 541q-7 21 -22 21q-17 0 -41 -1q-9 0 -9 9v11q0 8 9 8q81 -1 134 -1 q71 0 139 1q9 0 9 -8v-11q0 -9 -9 -9q-26 1 -47 1q-9 0 -13.5 -6t-1.5 -15l125 -393l111 433q2 8 9 8q23 -1 36 -1q11 0 37 1q7 0 9 -7l137 -434l102 393q5 21 -16 21t-46 -1q-8 0 -8 9v11q0 8 8 8q52 -1 82 -1q11 0 69 1z" />
<glyph unicode="x" horiz-adv-x="708" d="M632 595q9 0 9 -8v-11q0 -9 -9 -9q-24 1 -41 1q-14 0 -31 -22l-153 -204l191 -294q15 -22 30 -22q17 0 41 1q9 0 9 -8v-11q0 -9 -9 -9q-90 1 -151 1q-62 0 -147 -1q-9 0 -9 9v11q0 8 9 8q24 -1 43 -1q11 0 15.5 7t-0.5 15l-131 203l-151 -203q-6 -9 -2 -15.5t14 -6.5 q15 0 38 1q8 0 8 -8v-11q0 -9 -8 -9q-49 1 -80 1q-27 0 -70 -1q-9 0 -9 9v11q0 8 9 8q23 -1 37 -1q16 0 32 22l167 226l-177 272q-15 22 -27 22q-17 0 -40 -1q-9 0 -9 8v12q0 8 9 8q75 -1 140 -1q73 0 156 1q9 0 9 -8v-11q0 -9 -9 -9q-26 1 -48 1q-10 0 -13.5 -7t1.5 -15 l117 -181l136 181q6 8 2.5 15t-13.5 7q-23 0 -49 -1q-9 0 -9 8v12q0 8 9 8q46 -1 92 -1q24 0 72 1z" />
<glyph unicode="y" horiz-adv-x="645" d="M606 595q9 0 9 -8v-11q0 -9 -9 -9q-25 1 -42 1q-16 0 -23 -22l-240 -711q-39 -118 -116 -118q-41 0 -73 28t-32 69q0 32 19 54.5t53 22.5q25 0 41.5 -18.5t16.5 -44.5q0 -20 -13 -36t-34 -23q-12 -4 -12 -10t10 -11t22 -5q59 0 93 100l56 163l-230 541q-10 21 -24 21 q-17 0 -40 -1q-8 0 -8 9v11q0 8 8 8q70 -1 137 -1q69 0 142 1q9 0 9 -8v-11q0 -9 -9 -9q-26 1 -47 1q-10 0 -14 -6.5t0 -14.5l144 -338l114 339q3 9 -2 14.5t-14 5.5q-21 0 -46 -1q-9 0 -9 9v11q0 8 9 8q60 -1 86 -1q24 0 68 1z" />
<glyph unicode="z" horiz-adv-x="568" d="M532 205q-1 -94 -1 -100q0 -15 1 -97q0 -9 -9 -9q-52 1 -87 1h-399q-11 0 -5 10l329 558h-214q-13 0 -23 -4t-16 -11.5t-10 -17.5t-5 -21t-1.5 -23t0 -23.5t-0.5 -22.5q0 -9 -10 -9h-11q-9 0 -9 9q1 55 1 75q0 14 -1 67q0 8 9 8q40 -1 119 -1h221q40 0 120 1q11 0 6 -9 l-331 -560h219q44 0 61 37t18 131v11q0 9 9 9h11q9 0 9 -9z" />
<glyph unicode="{" horiz-adv-x="428" d="M49 282q33 -1 39 -1q40 0 51.5 62t11.5 186q0 136 50.5 215t128.5 79h49q9 0 9 -8v-10q0 -8 -9 -8h-21q-12 0 -21.5 -3t-16.5 -11.5t-12 -17.5t-8 -26t-5 -31.5t-3 -40.5t-1 -46.5v-54.5q0 -119 -42.5 -192.5t-106.5 -105.5q64 -33 106.5 -106t42.5 -191 q0 -129 11 -178.5t56 -49.5h21q9 0 9 -8v-10q0 -8 -9 -8h-49q-78 0 -128.5 76.5t-50.5 202.5q0 132 -11.5 196t-51.5 64q-16 0 -39 -1q-9 0 -9 8v11q0 8 9 8z" />
<glyph unicode="|" horiz-adv-x="255" d="M101 298q0 398 -1 510q0 14 13 14h30q12 0 12 -14q-1 -95 -1 -507q0 -445 1 -570q0 -14 -14 -14h-27q-14 0 -14 14q1 121 1 567z" />
<glyph unicode="}" horiz-adv-x="428" d="M379 282q9 0 9 -8v-11q0 -8 -9 -8q-23 1 -39 1q-40 0 -51.5 -64t-11.5 -196q0 -126 -50.5 -202.5t-128.5 -76.5h-49q-9 0 -9 8v10q0 8 9 8h21q45 0 56 49.5t11 178.5q0 118 42.5 191t106.5 106q-64 32 -106.5 105.5t-42.5 192.5v54.5t-1 46.5t-3 40.5t-5 31.5t-8 26 t-12 17.5t-16.5 11.5t-21.5 3h-21q-9 0 -9 8v10q0 8 9 8h49q78 0 128.5 -79t50.5 -215q0 -124 11.5 -186t51.5 -62q6 0 39 1z" />
<glyph unicode="~" horiz-adv-x="704" d="M208 463q58 0 155 -39q96 -38 143 -38q73 0 87 63q3 13 18 13h19q9 0 11.5 -3t1.5 -14q-9 -55 -49.5 -90t-96.5 -35q-10 0 -21 1t-19.5 2.5t-21.5 4.5t-19 5l-21 7l-19.5 6.5t-22 8.5t-21.5 8q-94 34 -133 34q-71 0 -88 -63q-3 -13 -18 -13h-20q-15 0 -12 14 q12 59 51.5 93.5t95.5 34.5z" />
<glyph unicode="&#xa1;" horiz-adv-x="308" d="M150 387h7q9 0 9 -9v-42q0 -130 44 -317q27 -109 27 -159q0 -42 -21 -73t-63 -31q-41 0 -62 31t-21 73q0 50 27 159q44 187 44 317v43q0 8 9 8zM238 510q0 -34 -25 -59t-59 -25t-59 25t-25 59t25 59t59 25t59 -25t25 -59z" />
<glyph unicode="&#xa2;" horiz-adv-x="594" d="M331 -130q0 22 0.5 58.5t0.5 54.5q-137 4 -204.5 88.5t-67.5 225.5q0 140 67.5 224.5t204.5 89.5q0 19 -0.5 56t-0.5 59q0 10 9 10h12q7 0 8.5 -2t1.5 -9q-1 -38 -1 -115q67 -3 122.5 -35t55.5 -93q0 -30 -18.5 -49.5t-46.5 -19.5q-26 0 -43 18t-17 43q0 29 25 49 q13 11 13 24.5t-19 22.5q-30 13 -72 15v-576q52 4 94.5 33t61.5 80q3 8 10 6l12 -3q6 -2 3 -11q-19 -57 -69 -91.5t-112 -38.5q0 -76 1 -114q0 -7 -1.5 -9t-8.5 -2h-12q-6 0 -7.5 2t-1.5 9zM210 297q0 -67 1.5 -104t8 -77t19.5 -59.5t36 -32.5t57 -15v575q-29 -2 -49.5 -10 t-34 -26.5t-21 -38.5t-11.5 -56.5t-5 -68.5t-1 -87z" />
<glyph unicode="&#xa3;" horiz-adv-x="616" d="M59 422q51 -1 71 -1q-52 85 -50 181q1 99 73.5 159t181.5 60q56 0 97 -20q39 -19 63 -53.5t24 -77.5q0 -33 -17 -56t-51 -23q-26 0 -42.5 17.5t-16.5 45.5q0 21 13.5 37t36.5 22q16 4 19 15q4 13 -7 25q-39 42 -111 42q-61 0 -105 -38.5t-44 -101.5q0 -15 5 -32.5 t11 -30.5t18.5 -32.5t19.5 -29.5t24 -32t22 -29q15 -21 31 -48q29 0 99 1q9 0 9 -9v-12q0 -9 -9 -9q-45 1 -84 1q29 -66 28 -127.5t-32 -137.5q78 -20 120 -20q44 0 67.5 20t25.5 71v54q0 8 9 8h10q8 0 8 -8v-62q0 -31 -0.5 -48t-3.5 -45.5t-11 -45t-21 -34.5t-35 -26.5 t-51 -8.5q-77 0 -157 68q-21 -31 -58.5 -49.5t-77.5 -18.5q-38 0 -65.5 21t-27.5 60q0 33 20.5 53.5t54 26t63 5t60.5 -5.5q-1 16 -4.5 33.5t-7.5 31t-14 33t-15 30t-18.5 32.5t-18.5 29t-21.5 31.5t-19.5 29.5q-39 0 -88 -1q-9 0 -9 9v12q0 9 9 9zM264 78q-47 37 -95 37 q-27 0 -51 -12.5t-24 -38.5t19.5 -40.5t48.5 -14.5q35 0 64 18t38 51z" />
<glyph unicode="&#xa4;" horiz-adv-x="594" d="M421 231q-55 -45 -126.5 -46t-128.5 41l-61 -60q-10 -10 -19 -1l-21 22q-9 9 1 19l60 59q-44 57 -43 130.5t47 129.5l-64 62q-11 9 0 20l20 20q11 11 20 0q28 -30 63 -65q56 41 126 39.5t125 -44.5q52 52 68 70q9 11 20 0l20 -20q11 -11 0 -20q-17 -15 -70 -68 q41 -55 41.5 -124t-40.5 -124l68 -67q10 -10 1 -19l-22 -21q-9 -9 -19 1q-8 7 -30 30t-36 36zM182 284q46 -46 110.5 -46t109.5 46q46 45 46 109.5t-46 110.5q-45 46 -109.5 46t-110.5 -46t-46 -110.5t46 -109.5z" />
<glyph unicode="&#xa5;" horiz-adv-x="760" d="M464 315v-75q133 0 181 1q7 1 10.5 -3t3.5 -12q-1 -15 -14 -13q-57 0 -181 2v-167q0 -18 18 -18q25 0 58 1q10 0 10 -10v-12q0 -10 -10 -10q-108 1 -158 1q-41 0 -148 -1q-10 0 -10 10v12q0 10 10 10q31 -1 58 -1q18 0 18 18v167q-47 -1 -182 -1q-14 0 -14 13v1 q0 14 14 14q98 -2 182 -2v75q-47 -1 -182 -1q-14 0 -14 13v1q0 14 14 14q92 -2 171 -2l-179 412q-10 22 -26 22q-24 0 -54 -1q-10 0 -10 11v11q0 10 10 10q87 -1 161 -1q72 0 160 1q10 0 10 -10v-11q0 -11 -10 -11q-32 1 -59 1q-10 0 -13.5 -6.5t0.5 -15.5l162 -375l162 375 q4 9 -1 15.5t-15 6.5q-28 0 -56 -1q-10 0 -10 11v12q0 9 10 9q57 -1 104 -1q17 0 75 1q10 0 10 -9v-12q0 -11 -10 -11q-26 1 -49 1q-18 0 -27 -22l-179 -412h1q132 0 179 1q6 1 9.5 -3t4.5 -11q0 -7 -3.5 -11t-10.5 -3q-57 0 -181 2z" />
<glyph unicode="&#xa6;" horiz-adv-x="255" d="M101 620q0 75 -1 187q0 14 13 14h30q12 0 12 -14q-1 -65 -1 -184q0 -149 1 -182q0 -14 -14 -14h-28q-13 0 -13 14q1 40 1 179zM101 -90q0 75 -1 187q0 14 13 14h30q12 0 12 -14q-1 -65 -1 -184q0 -149 1 -182q0 -14 -14 -14h-28q-13 0 -13 14q1 41 1 179z" />
<glyph unicode="&#xa7;" horiz-adv-x="557" d="M413 124l1 -1q37 -28 59 -76.5t21 -99.5q-3 -107 -103 -159q-48 -27 -118 -24q-71 2 -123.5 38t-50.5 91q1 27 18.5 45.5t41.5 17.5q26 -1 41.5 -15.5t16.5 -39.5q1 -23 -26 -45q-15 -11 -14 -25q0 -16 23 -25q29 -14 68 -16q56 -2 103 25t48 80q3 60 -62 99 q-17 10 -60 36t-65.5 40t-53.5 36.5t-53 43.5q-67 65 -64 158q2 47 26 87.5t66 66.5q-37 28 -59 76.5t-21 99.5q3 107 103 159q48 27 118 24q71 -2 123.5 -38t50.5 -91q-1 -27 -18.5 -45.5t-41.5 -17.5q-26 1 -41.5 15.5t-16.5 39.5q-1 23 26 45q15 11 14 25q0 16 -23 25 q-29 15 -68 16q-56 2 -103 -25t-48 -80q-3 -60 62 -99q17 -10 60 -36t65.5 -40t53.5 -36.5t53 -43.5q67 -65 64 -158q-5 -101 -93 -153zM401 305q-27 19 -108.5 64t-120.5 76q-49 -38 -52 -84q-1 -49 46 -81q30 -21 110.5 -65.5t118.5 -74.5q49 38 52 84q1 49 -46 81z" />
<glyph unicode="&#xa8;" horiz-adv-x="454" d="M66 722q0 24 17 41.5t41 17.5t41.5 -17.5t17.5 -41.5t-17.5 -41t-41.5 -17t-41 17t-17 41zM271 722q0 24 17 41.5t41 17.5t41.5 -17.5t17.5 -41.5t-17.5 -41t-41.5 -17t-41 17t-17 41z" />
<glyph unicode="&#xa9;" horiz-adv-x="958" d="M492 651q-75 0 -102.5 -51.5t-27.5 -199.5t27.5 -198.5t101.5 -50.5q80 1 113 43.5t33 130.5q0 8 8 8h8q8 0 8 -8q-1 -57 -1 -88q0 -27 1 -88q0 -9 -9 -9h-7q-8 0 -8 9v7q0 27 -26 8q-48 -35 -120 -35q-116 0 -177 73t-61 198t61 197.5t177 72.5q71 0 120 -35 q26 -20 26 6v11q0 7 8 7h8q8 0 8 -8q-1 -70 -1 -88q0 -20 1 -87q0 -9 -8 -9h-9q-7 0 -7 9q0 84 -32.5 127.5t-112.5 47.5zM60 403q0 173 123 296t296 123t296 -123t123 -296t-123 -296t-296 -123t-296 123t-123 296zM88 403q0 -162 114.5 -276.5t276.5 -114.5t276.5 114.5 t114.5 276.5t-114.5 276.5t-276.5 114.5t-276.5 -114.5t-114.5 -276.5z" />
<glyph unicode="&#xaa;" horiz-adv-x="565" d="M99 725q0 48 46.5 72t104.5 24q105 0 145.5 -42.5t40.5 -153.5v-234q0 -9 10 -9q21 0 47 1q12 0 12 -9v-9q0 -10 -11 -10q-43 1 -70 1q-70 2 -90 66q-16 -40 -46.5 -59.5t-87.5 -19.5q-60 0 -100 36t-40 99q0 122 177 160q56 10 85 13q0 7 -0.5 26t-0.5 26.5t-2 23 t-5 22.5t-9.5 17.5t-15.5 15.5t-22.5 8.5t-31.5 3.5q-22 0 -47 -7q-18 -5 -19 -14q-1 -5 6 -9q31 -11 31 -52q-1 -21 -17.5 -33.5t-38.5 -12.5q-23 0 -37 18t-14 41zM247 608q-72 -27 -72 -134q0 -38 16.5 -69.5t48.5 -30.5q32 0 51.5 30t25 62t5.5 66v92q-48 -7 -75 -16z " />
<glyph unicode="&#xab;" horiz-adv-x="561" d="M190 299l120 -202q3 -6 1 -9.5t-8 -3.5h-61q-10 0 -19 11l-159 195q-7 8 0 16l159 195q9 11 19 11h61q5 0 7.5 -4t-0.5 -9zM398 299l120 -202q3 -6 1 -9.5t-8 -3.5h-61q-10 0 -19 11l-159 195q-7 8 0 16l159 195q9 11 19 11h61q5 0 7.5 -4t-0.5 -9z" />
<glyph unicode="&#xac;" horiz-adv-x="624" d="M73 469q57 -1 216 -1q199 0 262 1q13 0 13 -13v-249q0 -13 -10 -13h-24q-13 0 -13 13q2 126 2 215h-446q-13 0 -13 11v23q0 13 13 13z" />
<glyph unicode="&#xae;" horiz-adv-x="958" d="M656 265v-92q0 -11 10 -11q14 0 37 1q9 0 9 -8v-7q0 -9 -8 -9q-29 1 -39 1h-21q-32 0 -53 17.5t-29.5 49t-11 57t-2.5 60.5v15q0 32 -9.5 43.5t-35.5 11.5h-90q-10 0 -10 -10v-211q0 -11 10 -11q12 0 36 1q9 0 9 -8v-7q0 -9 -8 -9q-83 1 -98 1q-50 0 -99 -1q-9 0 -9 8v8 q0 8 9 8q23 -1 37 -1q10 0 10 11v456q0 9 -11 9q-15 0 -38 -1q-7 0 -7 7v9q0 7 7 7q60 -1 88 -1h159q75 0 121.5 -31.5t46.5 -101.5q0 -46 -24.5 -78.5t-70.5 -45.5q85 -24 85 -137zM403 629v-213h83q43 0 57 29.5t14 82.5q0 32 -3.5 53t-20.5 39.5t-48 18.5h-72 q-10 0 -10 -10zM60 403q0 173 123 296t296 123t296 -123t123 -296t-123 -296t-296 -123t-296 123t-123 296zM88 403q0 -162 114.5 -276.5t276.5 -114.5t276.5 114.5t114.5 276.5t-114.5 276.5t-276.5 114.5t-276.5 -114.5t-114.5 -276.5z" />
<glyph unicode="&#xaf;" horiz-adv-x="526" d="M67 739h391q8 0 8 -6v-36q0 -7 -8 -7h-391q-7 0 -7 7v36q0 6 7 6z" />
<glyph unicode="&#xb0;" horiz-adv-x="513" d="M60 625q0 82 57.5 139t139.5 57t139 -57t57 -139t-57 -139.5t-139 -57.5t-139.5 57.5t-57.5 139.5zM111 625q0 -59 43.5 -102.5t102.5 -43.5t102 43.5t43 102.5t-43 102t-102 43t-102.5 -43t-43.5 -102z" />
<glyph unicode="&#xb1;" horiz-adv-x="645" d="M75 373q-14 0 -14 13v29q0 13 14 13q79 -1 221 -1q0 131 -1 221q0 14 14 14h28q13 0 13 -14q-1 -76 -1 -221q132 0 222 1q14 0 14 -14v-27q0 -14 -14 -14q-87 1 -222 1q0 -126 1 -222q0 -14 -13 -14h-30q-12 0 -12 14q1 89 1 222q-145 0 -221 -1zM326 48q-140 0 -252 -1 q-14 0 -14 13v30q0 12 14 12q95 -1 249 -1q182 0 247 1q14 0 14 -13v-29q0 -13 -14 -13q-91 1 -244 1z" />
<glyph unicode="&#xb2;" horiz-adv-x="426" d="M365 467l-7 -66l-5 -63q0 -7 -6 -7q-66 1 -91 1h-101q-28 0 -88 -1q-7 0 -7 7v40q0 3 4 7q62 59 98 97t48.5 53.5t25.5 36.5q36 57 36 106q0 45 -20 81.5t-62 36.5q-38 0 -67 -26q-6 -6 -9 -14t0 -15t14 -7q17 -1 27 -11.5t10 -27.5t-11 -27.5t-30 -10.5 q-20 0 -32.5 16.5t-12.5 39.5q0 50 38 76t94 26q67 0 111 -29t44 -91q0 -47 -32 -88q-35 -46 -209 -195h204q10 0 12 11l4 44q0 7 7 7h7q7 0 6 -7z" />
<glyph unicode="&#xb3;" horiz-adv-x="426" d="M60 433q0 20 11.5 36.5t31.5 16.5q17 0 27 -11.5t10 -27.5q0 -27 -24 -35q-16 -6 -16 -20q0 -10 13 -21q31 -25 83 -25q47 0 63 34.5t16 92.5q0 24 -1.5 40.5t-7.5 39t-21 34.5t-39 12q-25 0 -53 -1q-8 0 -8 7v7q0 8 8 8q28 -1 54 -1q33 0 44.5 24.5t11.5 66.5 q0 92 -58 92q-36 0 -66 -19q-9 -6 -9 -11q0 -6 6 -6q15 0 25 -12t9 -27q-1 -17 -12.5 -28t-28.5 -10q-17 0 -28 13t-11 30q0 43 37 65.5t84 22.5q58 0 101.5 -26t43.5 -84q0 -80 -90 -102q100 -24 100 -135q0 -69 -43.5 -107.5t-117.5 -38.5q-63 0 -104 26.5t-41 79.5z" />
<glyph unicode="&#xb4;" horiz-adv-x="288" d="M220 846q11 0 5 -8l-137 -186q-4 -6 -13 -6h-7q-10 0 -7 8l56 184q2 8 12 8q4 0 16.5 -0.5t22.5 -0.5q9 0 28.5 0.5t23.5 0.5z" />
<glyph unicode="&#xb6;" horiz-adv-x="549" d="M244 -274q1 54 1 73v597h-14q-80 0 -125.5 52.5t-45.5 151.5q0 98 46 151t125 53h172q19 0 77 1q9 0 9 -9v-12q0 -9 -9 -9q-42 1 -62 1v-977q0 -19 1 -73q0 -9 -9 -9h-13q-9 0 -9 9q1 54 1 73v977h-116v-977q0 -19 1 -73q0 -9 -9 -9h-13q-8 0 -8 9z" />
<glyph unicode="&#xb7;" horiz-adv-x="288" d="M60 402q0 34 25 59t59 25t59 -25t25 -59t-25 -59t-59 -25t-59 25t-25 59z" />
<glyph unicode="&#xb8;" horiz-adv-x="321" d="M143 -103q-8 -1 -12.5 2t-2.5 8l23 95h28l-7 -50q39 0 64 -16.5t25 -47.5q0 -41 -37.5 -63t-83.5 -22q-39 0 -73 10q-8 3 -6 10l3 7q3 7 9 6q25 -5 51 -5q66 0 68 40q1 18 -13.5 23.5t-35.5 2.5z" />
<glyph unicode="&#xb9;" horiz-adv-x="348" d="M125 352q19 -1 26 -1q8 0 8 9v410q0 9 -8 6q-10 -4 -37 -13.5t-40 -14.5q-7 -4 -9 2l-3 7q-4 8 4 11l134 47q30 0 39 1q7 0 7 -6v-450q0 -9 9 -9q7 0 26 1q7 0 7 -7v-7q0 -7 -7 -7q-63 1 -81 1q-20 0 -75 -1q-7 0 -7 7v7q0 7 7 7z" />
<glyph unicode="&#xba;" horiz-adv-x="564" d="M60 582q0 109 55.5 174t165.5 65t166.5 -65t56.5 -174t-56.5 -174t-166.5 -65t-165.5 65t-55.5 174zM181 582q0 -45 0.5 -68t3.5 -52t9 -42t17.5 -26.5t28.5 -18t41 -4.5q30 0 49 9t29.5 21.5t15.5 43.5t6 57t1 80q0 45 -0.5 68t-3.5 52t-9.5 42.5t-17.5 27t-28 18.5 t-42 5q-29 0 -48 -9t-29.5 -22t-15.5 -44.5t-6 -57.5t-1 -80z" />
<glyph unicode="&#xbb;" horiz-adv-x="561" d="M251 97l120 202l-120 200q-3 5 -0.5 9t7.5 4h61q10 0 19 -11l159 -195q7 -8 0 -16l-159 -195q-9 -11 -19 -11h-61q-6 0 -8 3.5t1 9.5zM43 97l120 202l-120 200q-3 5 -0.5 9t7.5 4h61q10 0 19 -11l159 -195q7 -8 0 -16l-159 -195q-9 -11 -19 -11h-61q-6 0 -8 3.5t1 9.5z " />
<glyph unicode="&#xbc;" horiz-adv-x="838" d="M125 352q19 -1 26 -1q8 0 8 9v410q0 9 -8 6q-10 -4 -37 -13.5t-40 -14.5q-7 -4 -9 2l-3 7q-4 8 4 11l134 47q30 0 39 1q7 0 7 -6v-450q0 -9 9 -9q7 0 26 1q7 0 7 -7v-7q0 -7 -7 -7q-63 1 -81 1q-20 0 -75 -1q-7 0 -7 7v7q0 7 7 7zM681 795l-466 -804q-7 -12 -19 -5l-10 6 q-11 7 -4 18l467 804q7 12 19 5l8 -5q12 -7 5 -19zM726 478v-337q21 0 46 1q6 0 6 -6v-5q0 -7 -7 -7q-19 1 -45 1v-97q0 -9 9 -9q7 0 26 1q7 0 7 -7v-7q0 -7 -6 -7q-65 1 -85 1q-9 0 -74 -1q-6 0 -6 7v6q0 8 7 8q19 -1 27 -1t8 9v97h-95q-25 0 -80 -1q-7 0 -7 7v9q0 3 1 5 q48 98 96 171q55 86 125 167q16 0 27.5 0.5t12.5 0.5q7 0 7 -6zM479 141h160v259q-35 -45 -69 -97q-44 -68 -91 -162z" />
<glyph unicode="&#xbd;" horiz-adv-x="901" d="M840 135l-7 -66l-5 -63q0 -7 -6 -7q-66 1 -91 1h-101q-28 0 -88 -1q-7 0 -7 7v40q0 3 4 7q62 59 98 97t48.5 53.5t25.5 36.5q36 57 36 106q0 45 -20 81.5t-62 36.5q-38 0 -67 -26q-6 -6 -9 -14t0 -15t14 -7q17 -1 27 -11.5t10 -27.5t-11 -27.5t-30 -10.5 q-20 0 -32.5 16.5t-12.5 39.5q0 50 38 76t94 26q67 0 111 -29t44 -91q0 -47 -32 -88q-35 -46 -209 -195h204q10 0 12 11l4 44q0 7 7 7h7q7 0 6 -7zM125 352q19 -1 26 -1q8 0 8 9v410q0 9 -8 6q-10 -4 -37 -13.5t-40 -14.5q-7 -4 -9 2l-3 7q-4 8 4 11l134 47q20 0 39 1 q7 0 7 -6v-450q0 -9 9 -9q7 0 26 1q7 0 7 -7v-7q0 -7 -7 -7q-63 1 -81 1q-20 0 -75 -1q-7 0 -7 7v7q0 7 7 7zM681 795l-466 -804q-7 -12 -19 -5l-10 6q-11 7 -4 18l467 804q7 12 19 5l8 -5q12 -7 5 -19z" />
<glyph unicode="&#xbe;" horiz-adv-x="907" d="M60 433q0 20 11.5 36.5t31.5 16.5q17 0 27 -11.5t10 -27.5q0 -27 -24 -35q-16 -6 -16 -20q0 -10 13 -21q31 -25 83 -25q47 0 63 34.5t16 92.5q0 24 -1.5 40.5t-7.5 39t-21 34.5t-39 12q-25 0 -53 -1q-8 0 -8 7v7q0 8 8 8q28 -1 54 -1q33 0 44.5 24.5t11.5 66.5 q0 92 -58 92q-36 0 -66 -19q-9 -6 -9 -11q0 -6 6 -6q15 0 25 -12t9 -27q-1 -17 -12.5 -28t-28.5 -10q-17 0 -28 13t-11 30q0 43 37 65.5t84 22.5q58 0 101.5 -26t43.5 -84q0 -80 -90 -102q100 -24 100 -135q0 -69 -43.5 -107.5t-117.5 -38.5q-63 0 -104 26.5t-41 79.5z M748 795l-466 -804q-7 -12 -19 -5l-10 6q-11 7 -4 18l467 804q7 12 19 5l8 -5q12 -7 5 -19zM795 478v-337q21 0 46 1q6 0 6 -6v-5q0 -7 -7 -7q-19 1 -45 1v-97q0 -9 9 -9q7 0 26 1q7 0 7 -7v-7q0 -7 -6 -7q-65 1 -85 1q-9 0 -74 -1q-6 0 -6 7v6q0 8 7 8q19 -1 27 -1t8 9v97 h-95q-25 0 -80 -1q-7 0 -7 7v9q0 3 1 5q48 98 96 171q55 86 125 167q16 0 27.5 0.5t12.5 0.5q7 0 7 -6zM548 141h160v259q-35 -45 -69 -97q-44 -68 -91 -162z" />
<glyph unicode="&#xbf;" horiz-adv-x="535" d="M338 377q-1 -22 -1 -31v-77.5t-4 -65.5t-12.5 -71.5t-25.5 -59t-43 -64.5q-72 -86 -72 -142q0 -38 28.5 -61t68.5 -23q101 0 142 56q13 18 8 31q-6 14 -30 17q-22 3 -35 18t-13 34q0 26 16.5 43.5t44.5 17.5q31 0 48 -25t17 -57q0 -74 -54.5 -117.5t-144.5 -43.5 q-91 0 -153.5 47t-62.5 140q0 70 46 119q22 23 58 56.5t56.5 55t43.5 53t33.5 68.5t10.5 83q0 9 9 9h12q9 0 9 -10zM407 510q0 -34 -24.5 -59t-59.5 -25t-59.5 25t-24.5 59t24.5 59t59.5 25t59.5 -25t24.5 -59z" />
<glyph unicode="&#xc0;" d="M197 204l-49 -153q-3 -9 1 -15t14 -6q22 0 50 1q10 0 10 -10v-13q0 -9 -10 -9q-58 1 -89 1q-29 0 -84 -1q-10 0 -10 9v13q0 10 10 10q24 -1 55 -1q17 0 24 21l238 746q2 7 9 7h104q7 0 9 -7l237 -745q7 -22 24 -22q23 0 54 1q10 0 10 -10v-13q0 -9 -10 -9q-88 1 -152 1 q-92 0 -163 -1q-10 0 -10 9v13q0 10 10 10q32 -1 58 -1q24 0 17 22l-55 170h-283q-13 0 -19 -18zM465 250q26 0 19 21l-133 416l-139 -437h253zM321 1056q4 0 23.5 -0.5t28.5 -0.5q10 0 22.5 0.5t16.5 0.5q10 0 12 -8l56 -184q3 -8 -7 -8h-7q-9 0 -13 6l-137 186q-6 8 5 8z " />
<glyph unicode="&#xc1;" d="M197 204l-49 -153q-3 -9 1 -15t14 -6q22 0 50 1q10 0 10 -10v-13q0 -9 -10 -9q-58 1 -89 1q-29 0 -84 -1q-10 0 -10 9v13q0 10 10 10q24 -1 55 -1q17 0 24 21l238 746q2 7 9 7h104q7 0 9 -7l237 -745q7 -22 24 -22q23 0 54 1q10 0 10 -10v-13q0 -9 -10 -9q-88 1 -152 1 q-92 0 -163 -1q-10 0 -10 9v13q0 10 10 10q32 -1 58 -1q24 0 17 22l-55 170h-283q-13 0 -19 -18zM465 250q26 0 19 21l-133 416l-139 -437h253zM553 1056q11 0 5 -8l-137 -186q-4 -6 -13 -6h-7q-10 0 -7 8l56 184q2 8 12 8q4 0 16.5 -0.5t22.5 -0.5q9 0 28.5 0.5t23.5 0.5z " />
<glyph unicode="&#xc2;" d="M197 204l-49 -153q-3 -9 1 -15t14 -6q22 0 50 1q10 0 10 -10v-13q0 -9 -10 -9q-58 1 -89 1q-29 0 -84 -1q-10 0 -10 9v13q0 10 10 10q24 -1 55 -1q17 0 24 21l238 746q2 7 9 7h104q7 0 9 -7l237 -745q7 -22 24 -22q23 0 54 1q10 0 10 -10v-13q0 -9 -10 -9q-88 1 -152 1 q-92 0 -163 -1q-10 0 -10 9v13q0 10 10 10q32 -1 58 -1q24 0 17 22l-55 170h-283q-13 0 -19 -18zM465 250q26 0 19 21l-133 416l-139 -437h253zM416 1055q10 0 24 0.5t18 0.5q7 0 12 -8l111 -174q3 -8 -7 -8h-11q-8 0 -14 6l-132 116l-133 -116q-6 -6 -13 -6h-11q-10 0 -7 8 l111 174q4 8 12 8q3 0 13.5 -0.5t26.5 -0.5z" />
<glyph unicode="&#xc3;" d="M197 204l-49 -153q-3 -9 1 -15t14 -6q22 0 50 1q10 0 10 -10v-13q0 -9 -10 -9q-58 1 -89 1q-29 0 -84 -1q-10 0 -10 9v13q0 10 10 10q24 -1 55 -1q17 0 24 21l238 746q2 7 9 7h104q7 0 9 -7l237 -745q7 -22 24 -22q23 0 54 1q10 0 10 -10v-13q0 -9 -10 -9q-88 1 -152 1 q-92 0 -163 -1q-10 0 -10 9v13q0 10 10 10q32 -1 58 -1q24 0 17 22l-55 170h-283q-13 0 -19 -18zM465 250q26 0 19 21l-133 416l-139 -437h253zM589 986q-3 -44 -29 -76q-25 -32 -72 -32q-30 0 -94 31q-54 26 -77 26q-19 0 -32 -15.5t-16 -36.5q-1 -7 -8 -7h-9q-5 0 -7 1.5 t-1 5.5q5 48 29 78q26 32 72 32q34 0 96 -31q52 -25 75 -25q41 0 48 50q0 6 8 6h9q8 0 8 -7z" />
<glyph unicode="&#xc4;" d="M197 204l-49 -153q-3 -9 1 -15t14 -6q22 0 50 1q10 0 10 -10v-13q0 -9 -10 -9q-58 1 -89 1q-29 0 -84 -1q-10 0 -10 9v13q0 10 10 10q24 -1 55 -1q17 0 24 21l238 746q2 7 9 7h104q7 0 9 -7l237 -745q7 -22 24 -22q23 0 54 1q10 0 10 -10v-13q0 -9 -10 -9q-88 1 -152 1 q-92 0 -163 -1q-10 0 -10 9v13q0 10 10 10q32 -1 58 -1q24 0 17 22l-55 170h-283q-13 0 -19 -18zM465 250q26 0 19 21l-133 416l-139 -437h253zM256 932q0 24 17 41.5t41 17.5t41.5 -17.5t17.5 -41.5t-17.5 -41t-41.5 -17t-41 17t-17 41zM461 932q0 24 17 41.5t41 17.5 t41.5 -17.5t17.5 -41.5t-17.5 -41t-41.5 -17t-41 17t-17 41z" />
<glyph unicode="&#xc5;" d="M197 204l-49 -153q-3 -9 1 -15t14 -6q22 0 50 1q10 0 10 -10v-13q0 -9 -10 -9q-58 1 -89 1q-29 0 -84 -1q-10 0 -10 9v13q0 10 10 10q24 -1 55 -1q17 0 24 21l238 746q2 7 9 7h104q7 0 9 -7l237 -745q7 -22 24 -22q23 0 54 1q10 0 10 -10v-13q0 -9 -10 -9q-88 1 -152 1 q-92 0 -163 -1q-10 0 -10 9v13q0 10 10 10q32 -1 58 -1q24 0 17 22l-55 170h-283q-13 0 -19 -18zM465 250q26 0 19 21l-133 416l-139 -437h253zM417 1045q42 0 72 -30t30 -72q0 -43 -30 -72.5t-72 -29.5q-43 0 -72.5 29.5t-29.5 72.5q0 42 29.5 72t72.5 30zM417 1007 q-26 0 -45 -19t-19 -45t19 -45t45 -19t45 19t19 45t-19 45t-45 19z" />
<glyph unicode="&#xc6;" horiz-adv-x="1144" d="M536 775l-279 -525h282v525h-3zM1026 0h-418q-58 0 -145 -1q-10 0 -10 9v13q0 10 10 10q30 -1 58 -1q18 0 18 18v174h-297l-92 -172q-10 -20 12 -20q23 0 52 1q10 0 10 -10v-13q0 -9 -10 -9q-56 1 -91 1q-28 0 -83 -1q-10 0 -10 9v12q0 11 10 11q25 -1 55 -1q14 0 26 20 l374 703q6 11 2.5 16.5t-14.5 5.5q-31 0 -62 -1q-10 0 -10 10v11q0 10 10 10q82 -1 187 -1h368q23 0 75 1q9 0 9 -9q-1 -57 -1 -67q0 -16 1 -71q0 -10 -10 -10h-12q-10 0 -10 11q0 64 -20 90.5t-66 26.5h-230q-18 0 -18 -18v-278h178q48 0 63.5 22.5t15.5 76.5q0 9 10 9h12 q9 0 9 -10q-1 -86 -1 -112q0 -27 1 -113q0 -9 -9 -9h-12q-10 0 -10 10q0 50 -14.5 74t-61.5 24h-163q-18 0 -18 -18v-387q0 -19 18 -19h248q84 0 91 134q1 17 1 61q0 9 10 9h12q9 0 9 -9q-1 -42 -1 -63.5v-45.5q0 -21 1 -106q0 -9 -9 -9q-27 1 -48 1z" />
<glyph unicode="&#xc7;" horiz-adv-x="771" d="M408 -103q-8 -1 -12 2t-3 8l18 77q-166 9 -253.5 120.5t-87.5 297.5q0 193 94.5 306t273.5 113q109 0 185 -56q15 -14 30.5 -14t15.5 25v18q0 10 10 10h12q10 0 10 -10q-1 -109 -1 -138t1 -137q0 -10 -10 -10h-12q-10 0 -10 10v22q0 114 -56 183t-173 69q-80 0 -122 -32 t-62 -116t-20 -243t19.5 -242.5t61 -116t121.5 -32.5q124 0 177.5 68t53.5 206q0 10 10 10h12q10 0 10 -10q-1 -99 -1 -137q0 -40 1 -138q0 -10 -10 -10h-12q-10 0 -10 10v12q0 26 -15.5 28t-30.5 -12q-72 -53 -182 -55l-4 -31q39 0 64 -16.5t25 -47.5q0 -41 -37.5 -63 t-83.5 -22q-39 0 -73 10q-8 3 -6 10l3 7q3 7 9 6q25 -5 51 -5q66 0 68 40q1 18 -13.5 23.5t-35.5 2.5z" />
<glyph unicode="&#xc8;" horiz-adv-x="741" d="M60 805q67 -1 146 -1h368q23 0 75 1q9 0 9 -9q-1 -57 -1 -67q0 -16 1 -71q0 -10 -10 -10h-12q-10 0 -10 11q0 64 -20 90.5t-66 26.5h-230q-18 0 -18 -18v-278h178q48 0 63.5 22.5t15.5 76.5q0 9 10 9h12q9 0 9 -10q-1 -86 -1 -112q0 -27 1 -113q0 -9 -9 -9h-12 q-10 0 -10 10q0 50 -14.5 74t-61.5 24h-163q-18 0 -18 -18v-387q0 -19 18 -19h248q84 0 91 134q1 17 1 61q0 9 10 9h12q9 0 9 -9q0 -28 -0.5 -45.5t0 -22.5t0 -14.5t-0.5 -26.5q0 -21 1 -106q0 -9 -9 -9q-27 1 -48 1h-418q-59 0 -146 -1q-10 0 -10 9v13q0 10 10 10 q30 -1 59 -1q18 0 18 18v708q0 18 -18 18q-29 0 -59 -1q-10 0 -10 10v12q0 10 10 10zM284 1056q4 0 23.5 -0.5t28.5 -0.5q10 0 22.5 0.5t16.5 0.5q10 0 12 -8l56 -184q3 -8 -7 -8h-7q-9 0 -13 6l-137 186q-6 8 5 8z" />
<glyph unicode="&#xc9;" horiz-adv-x="741" d="M60 805q67 -1 146 -1h368q23 0 75 1q9 0 9 -9q-1 -57 -1 -67q0 -16 1 -71q0 -10 -10 -10h-12q-10 0 -10 11q0 64 -20 90.5t-66 26.5h-230q-18 0 -18 -18v-278h178q48 0 63.5 22.5t15.5 76.5q0 9 10 9h12q9 0 9 -10q-1 -86 -1 -112q0 -27 1 -113q0 -9 -9 -9h-12 q-10 0 -10 10q0 50 -14.5 74t-61.5 24h-163q-18 0 -18 -18v-387q0 -19 18 -19h248q84 0 91 134q1 17 1 61q0 9 10 9h12q9 0 9 -9q0 -28 -0.5 -45.5t0 -22.5t0 -14.5t-0.5 -26.5q0 -21 1 -106q0 -9 -9 -9q-27 1 -48 1h-418q-59 0 -146 -1q-10 0 -10 9v13q0 10 10 10 q30 -1 59 -1q18 0 18 18v708q0 18 -18 18q-29 0 -59 -1q-10 0 -10 10v12q0 10 10 10zM516 1056q11 0 5 -8l-137 -186q-4 -6 -13 -6h-7q-10 0 -7 8l56 184q2 8 12 8q4 0 16.5 -0.5t22.5 -0.5q9 0 28.5 0.5t23.5 0.5z" />
<glyph unicode="&#xca;" horiz-adv-x="741" d="M60 805q67 -1 146 -1h368q23 0 75 1q9 0 9 -9q-1 -57 -1 -67q0 -16 1 -71q0 -10 -10 -10h-12q-10 0 -10 11q0 64 -20 90.5t-66 26.5h-230q-18 0 -18 -18v-278h178q48 0 63.5 22.5t15.5 76.5q0 9 10 9h12q9 0 9 -10q-1 -86 -1 -112q0 -27 1 -113q0 -9 -9 -9h-12 q-10 0 -10 10q0 50 -14.5 74t-61.5 24h-163q-18 0 -18 -18v-387q0 -19 18 -19h248q84 0 91 134q1 17 1 61q0 9 10 9h12q9 0 9 -9q0 -28 -0.5 -45.5t0 -22.5t0 -14.5t-0.5 -26.5q0 -21 1 -106q0 -9 -9 -9q-27 1 -48 1h-418q-59 0 -146 -1q-10 0 -10 9v13q0 10 10 10 q30 -1 59 -1q18 0 18 18v708q0 18 -18 18q-29 0 -59 -1q-10 0 -10 10v12q0 10 10 10zM389 1055q10 0 24 0.5t18 0.5q7 0 12 -8l111 -174q3 -8 -7 -8h-11q-8 0 -14 6l-132 116l-133 -116q-6 -6 -13 -6h-11q-10 0 -7 8l111 174q4 8 12 8q3 0 13.5 -0.5t26.5 -0.5z" />
<glyph unicode="&#xcb;" horiz-adv-x="741" d="M60 805q67 -1 146 -1h368q23 0 75 1q9 0 9 -9q-1 -57 -1 -67q0 -16 1 -71q0 -10 -10 -10h-12q-10 0 -10 11q0 64 -20 90.5t-66 26.5h-230q-18 0 -18 -18v-278h178q48 0 63.5 22.5t15.5 76.5q0 9 10 9h12q9 0 9 -10q-1 -86 -1 -112q0 -27 1 -113q0 -9 -9 -9h-12 q-10 0 -10 10q0 50 -14.5 74t-61.5 24h-163q-18 0 -18 -18v-387q0 -19 18 -19h248q84 0 91 134q1 17 1 61q0 9 10 9h12q9 0 9 -9q0 -28 -0.5 -45.5t0 -22.5t0 -14.5t-0.5 -26.5q0 -21 1 -106q0 -9 -9 -9q-27 1 -48 1h-418q-59 0 -146 -1q-10 0 -10 9v13q0 10 10 10 q30 -1 59 -1q18 0 18 18v708q0 18 -18 18q-29 0 -59 -1q-10 0 -10 10v12q0 10 10 10zM219 932q0 24 17 41.5t41 17.5t41.5 -17.5t17.5 -41.5t-17.5 -41t-41.5 -17t-41 17t-17 41zM424 932q0 24 17 41.5t41 17.5t41.5 -17.5t17.5 -41.5t-17.5 -41t-41.5 -17t-41 17t-17 41z " />
<glyph unicode="&#xcc;" horiz-adv-x="436" d="M60 -1q-10 0 -10 9v13q0 10 10 10q30 -1 59 -1q18 0 18 18v708q0 18 -18 18q-29 0 -59 -1q-10 0 -10 10v12q0 10 10 10q87 -1 155 -1q66 0 154 1q10 0 10 -10v-12q0 -10 -10 -10q-30 1 -59 1q-18 0 -18 -18v-708q0 -18 18 -18q32 0 66 1q10 0 10 -10v-13q0 -9 -10 -9 q-88 1 -161 1q-68 0 -155 -1zM142 1056q4 0 23.5 -0.5t28.5 -0.5q10 0 22.5 0.5t16.5 0.5q10 0 12 -8l56 -184q3 -8 -7 -8h-7q-9 0 -13 6l-137 186q-6 8 5 8z" />
<glyph unicode="&#xcd;" horiz-adv-x="436" d="M60 -1q-10 0 -10 9v13q0 10 10 10q30 -1 59 -1q18 0 18 18v708q0 18 -18 18q-29 0 -59 -1q-10 0 -10 10v12q0 10 10 10q87 -1 155 -1q66 0 154 1q10 0 10 -10v-12q0 -10 -10 -10q-30 1 -59 1q-18 0 -18 -18v-708q0 -18 18 -18q32 0 66 1q10 0 10 -10v-13q0 -9 -10 -9 q-88 1 -161 1q-68 0 -155 -1zM354 1056q11 0 5 -8l-137 -186q-4 -6 -13 -6h-7q-10 0 -7 8l56 184q2 8 12 8q4 0 16.5 -0.5t22.5 -0.5q9 0 28.5 0.5t23.5 0.5z" />
<glyph unicode="&#xce;" horiz-adv-x="436" d="M60 -1q-10 0 -10 9v13q0 10 10 10q30 -1 59 -1q18 0 18 18v708q0 18 -18 18q-29 0 -59 -1q-10 0 -10 10v12q0 10 10 10q87 -1 155 -1q66 0 154 1q10 0 10 -10v-12q0 -10 -10 -10q-30 1 -59 1q-18 0 -18 -18v-708q0 -18 18 -18q32 0 66 1q10 0 10 -10v-13q0 -9 -10 -9 q-88 1 -161 1q-68 0 -155 -1zM217 1055q10 0 24 0.5t18 0.5q7 0 12 -8l111 -174q3 -8 -7 -8h-11q-8 0 -14 6l-132 116l-133 -116q-6 -6 -13 -6h-11q-10 0 -7 8l111 174q4 8 12 8q3 0 13.5 -0.5t26.5 -0.5z" />
<glyph unicode="&#xcf;" horiz-adv-x="436" d="M60 -1q-10 0 -10 9v13q0 10 10 10q30 -1 59 -1q18 0 18 18v708q0 18 -18 18q-29 0 -59 -1q-10 0 -10 10v12q0 10 10 10q87 -1 155 -1q66 0 154 1q10 0 10 -10v-12q0 -10 -10 -10q-30 1 -59 1q-18 0 -18 -18v-708q0 -18 18 -18q32 0 66 1q10 0 10 -10v-13q0 -9 -10 -9 q-88 1 -161 1q-68 0 -155 -1zM57 932q0 24 17 41.5t41 17.5t41.5 -17.5t17.5 -41.5t-17.5 -41t-41.5 -17t-41 17t-17 41zM262 932q0 24 17 41.5t41 17.5t41.5 -17.5t17.5 -41.5t-17.5 -41t-41.5 -17t-41 17t-17 41z" />
<glyph unicode="&#xd0;" horiz-adv-x="846" d="M59 -1q-9 0 -9 9v13q0 10 9 10q31 -1 60 -1q18 0 18 18v398h-72q-14 0 -14 14v1q0 14 14 14q33 -1 72 -1v282q0 18 -18 18q-29 0 -59 -1q-10 0 -10 9v13q0 10 10 10q47 -1 151 -1h241q84 0 147.5 -31t101.5 -86.5t56.5 -127t18.5 -157.5q0 -63 -9.5 -119t-33 -109 t-60 -90.5t-93 -60.5t-128.5 -23h-239q-87 0 -154 -1zM292 758v-285q86 0 127 1q14 0 14 -16q-1 -13 -14 -13l-127 2v-401q0 -18 18 -18h130q48 0 82.5 28.5t50.5 64t25 95t10 92.5t1 86v8q0 169 -24 247q-40 127 -145 127h-130q-18 0 -18 -18z" />
<glyph unicode="&#xd1;" horiz-adv-x="846" d="M61 805q67 -1 128 -1q23 0 64 1q3 0 8 -5l420 -554v510q0 18 -18 18q-29 0 -58 -1q-10 0 -10 10v12q0 10 10 10q58 -1 90 -1q22 0 91 1q10 0 10 -10v-12q0 -10 -10 -10q-30 1 -59 1q-18 0 -18 -18v-677q0 -30 1 -87q0 -9 -9 -9h-10q-6 0 -9 5l-517 681v-621q0 -18 18 -18 q31 0 66 1q10 0 10 -10v-12q0 -10 -10 -10q-71 1 -99 1q-23 0 -90 -1q-10 0 -10 10v12q0 10 10 10q30 -1 59 -1q18 0 18 18v708q0 18 -18 18q-29 0 -58 -1q-10 0 -10 10v12q0 10 10 10zM605 986q-3 -44 -29 -76q-25 -32 -72 -32q-30 0 -94 31q-54 26 -77 26q-19 0 -32 -15.5 t-16 -36.5q-1 -7 -8 -7h-9q-5 0 -7 1.5t-1 5.5q5 48 29 78q26 32 72 32q34 0 96 -31q52 -25 75 -25q41 0 48 50q0 6 8 6h9q8 0 8 -7z" />
<glyph unicode="&#xd2;" horiz-adv-x="880" d="M70 402q0 193 95.5 306t274.5 113t274.5 -113t95.5 -306t-95.5 -306t-274.5 -113t-274.5 113t-95.5 306zM236 402q0 -159 20 -243t62 -116t122 -32t122 32t62 116t20 243t-20 243t-62 116t-122 32t-122 -32t-62 -116t-20 -243zM324 1056q4 0 23.5 -0.5t28.5 -0.5 q10 0 22.5 0.5t16.5 0.5q10 0 12 -8l56 -184q3 -8 -7 -8h-7q-9 0 -13 6l-137 186q-6 8 5 8z" />
<glyph unicode="&#xd3;" horiz-adv-x="880" d="M70 402q0 193 95.5 306t274.5 113t274.5 -113t95.5 -306t-95.5 -306t-274.5 -113t-274.5 113t-95.5 306zM236 402q0 -159 20 -243t62 -116t122 -32t122 32t62 116t20 243t-20 243t-62 116t-122 32t-122 -32t-62 -116t-20 -243zM576 1056q11 0 5 -8l-137 -186 q-4 -6 -13 -6h-7q-10 0 -7 8l56 184q2 8 12 8q4 0 16.5 -0.5t22.5 -0.5q9 0 28.5 0.5t23.5 0.5z" />
<glyph unicode="&#xd4;" horiz-adv-x="880" d="M70 402q0 193 95.5 306t274.5 113t274.5 -113t95.5 -306t-95.5 -306t-274.5 -113t-274.5 113t-95.5 306zM236 402q0 -159 20 -243t62 -116t122 -32t122 32t62 116t20 243t-20 243t-62 116t-122 32t-122 -32t-62 -116t-20 -243zM439 1055q10 0 24 0.5t18 0.5q7 0 12 -8 l111 -174q3 -8 -7 -8h-11q-8 0 -14 6l-132 116l-133 -116q-6 -6 -13 -6h-11q-10 0 -7 8l111 174q4 8 12 8q3 0 13.5 -0.5t26.5 -0.5z" />
<glyph unicode="&#xd5;" horiz-adv-x="880" d="M70 402q0 193 95.5 306t274.5 113t274.5 -113t95.5 -306t-95.5 -306t-274.5 -113t-274.5 113t-95.5 306zM236 402q0 -159 20 -243t62 -116t122 -32t122 32t62 116t20 243t-20 243t-62 116t-122 32t-122 -32t-62 -116t-20 -243zM612 986q-3 -44 -29 -76q-25 -32 -72 -32 q-30 0 -94 31q-54 26 -77 26q-19 0 -32 -15.5t-16 -36.5q-1 -7 -8 -7h-9q-5 0 -7 1.5t-1 5.5q5 48 29 78q26 32 72 32q34 0 96 -31q52 -25 75 -25q41 0 48 50q0 6 8 6h9q8 0 8 -7z" />
<glyph unicode="&#xd6;" horiz-adv-x="880" d="M70 402q0 193 95.5 306t274.5 113t274.5 -113t95.5 -306t-95.5 -306t-274.5 -113t-274.5 113t-95.5 306zM236 402q0 -159 20 -243t62 -116t122 -32t122 32t62 116t20 243t-20 243t-62 116t-122 32t-122 -32t-62 -116t-20 -243zM279 932q0 24 17 41.5t41 17.5t41.5 -17.5 t17.5 -41.5t-17.5 -41t-41.5 -17t-41 17t-17 41zM484 932q0 24 17 41.5t41 17.5t41.5 -17.5t17.5 -41.5t-17.5 -41t-41.5 -17t-41 17t-17 41z" />
<glyph unicode="&#xd7;" horiz-adv-x="521" d="M260 363l-155 -157q-10 -10 -19 -1l-21 20q-11 9 1 19l157 156l-157 156q-10 9 0 19l20 20q9 9 19 -1l155 -157l157 158q9 10 19 0l19 -19q11 -9 0 -20q-118 -116 -157 -156q30 -31 157 -156q10 -10 1 -19l-21 -22q-9 -9 -18 2z" />
<glyph unicode="&#xd8;" horiz-adv-x="882" d="M72 402q0 193 95.5 306t274.5 113q165 0 261 -99q18 22 45 53.5t33 39.5q7 9 17 2l7 -5q9 -6 1 -16q-3 -4 -17.5 -20t-32 -36.5t-33.5 -39.5q89 -110 89 -298q0 -193 -95.5 -306t-274.5 -113q-168 0 -264 101l-79 -95q-7 -9 -17 -2l-7 5q-10 7 -1 17q9 11 38.5 43.5 t46.5 53.5q-87 110 -87 296zM646 402q0 116 -11 198l-381 -430q19 -90 62.5 -124.5t125.5 -34.5q80 0 122 32t62 116t20 243zM238 402q0 -120 10 -194l380 429q-19 88 -62 122t-124 34q-80 0 -122 -32t-62 -116t-20 -243z" />
<glyph unicode="&#xd9;" d="M779 805q10 0 10 -10v-11q0 -11 -10 -11q-33 1 -58 1q-18 0 -18 -18v-563q0 -96 -68 -153t-197 -57q-41 0 -80 5.5t-81.5 20.5t-74 38t-51.5 62.5t-20 89.5v557q0 18 -18 18q-29 0 -58 -1q-10 0 -10 10v12q0 10 10 10q87 -1 151 -1q69 0 156 1q10 0 10 -10v-12 q0 -10 -10 -10q-29 1 -58 1q-18 0 -18 -18v-557q0 -86 46.5 -136.5t128.5 -50.5q85 0 149.5 46t64.5 134v564q0 18 -18 18q-29 0 -58 -1q-10 0 -10 10v12q0 10 10 10q57 -1 90 -1q32 0 90 1zM341 1056q4 0 23.5 -0.5t28.5 -0.5q10 0 22.5 0.5t16.5 0.5q10 0 12 -8l56 -184 q3 -8 -7 -8h-7q-9 0 -13 6l-137 186q-6 8 5 8z" />
<glyph unicode="&#xda;" d="M779 805q10 0 10 -10v-11q0 -11 -10 -11q-33 1 -58 1q-18 0 -18 -18v-563q0 -96 -68 -153t-197 -57q-41 0 -80 5.5t-81.5 20.5t-74 38t-51.5 62.5t-20 89.5v557q0 18 -18 18q-29 0 -58 -1q-10 0 -10 10v12q0 10 10 10q87 -1 151 -1q69 0 156 1q10 0 10 -10v-12 q0 -10 -10 -10q-29 1 -58 1q-18 0 -18 -18v-557q0 -86 46.5 -136.5t128.5 -50.5q85 0 149.5 46t64.5 134v564q0 18 -18 18q-29 0 -58 -1q-10 0 -10 10v12q0 10 10 10q57 -1 90 -1q32 0 90 1zM563 1056q11 0 5 -8l-137 -186q-4 -6 -13 -6h-7q-10 0 -7 8l56 184q2 8 12 8 q4 0 16.5 -0.5t22.5 -0.5q9 0 28.5 0.5t23.5 0.5z" />
<glyph unicode="&#xdb;" d="M779 805q10 0 10 -10v-11q0 -11 -10 -11q-33 1 -58 1q-18 0 -18 -18v-563q0 -96 -68 -153t-197 -57q-41 0 -80 5.5t-81.5 20.5t-74 38t-51.5 62.5t-20 89.5v557q0 18 -18 18q-29 0 -58 -1q-10 0 -10 10v12q0 10 10 10q87 -1 151 -1q69 0 156 1q10 0 10 -10v-12 q0 -10 -10 -10q-29 1 -58 1q-18 0 -18 -18v-557q0 -86 46.5 -136.5t128.5 -50.5q85 0 149.5 46t64.5 134v564q0 18 -18 18q-29 0 -58 -1q-10 0 -10 10v12q0 10 10 10q57 -1 90 -1q32 0 90 1zM416 1055q10 0 24 0.5t18 0.5q7 0 12 -8l111 -174q3 -8 -7 -8h-11q-8 0 -14 6 l-132 116l-133 -116q-6 -6 -13 -6h-11q-10 0 -7 8l111 174q4 8 12 8q3 0 13.5 -0.5t26.5 -0.5z" />
<glyph unicode="&#xdc;" d="M779 805q10 0 10 -10v-11q0 -11 -10 -11q-33 1 -58 1q-18 0 -18 -18v-563q0 -96 -68 -153t-197 -57q-41 0 -80 5.5t-81.5 20.5t-74 38t-51.5 62.5t-20 89.5v557q0 18 -18 18q-29 0 -58 -1q-10 0 -10 10v12q0 10 10 10q87 -1 151 -1q69 0 156 1q10 0 10 -10v-12 q0 -10 -10 -10q-29 1 -58 1q-18 0 -18 -18v-557q0 -86 46.5 -136.5t128.5 -50.5q85 0 149.5 46t64.5 134v564q0 18 -18 18q-29 0 -58 -1q-10 0 -10 10v12q0 10 10 10q57 -1 90 -1q32 0 90 1zM266 932q0 24 17 41.5t41 17.5t41.5 -17.5t17.5 -41.5t-17.5 -41t-41.5 -17 t-41 17t-17 41zM471 932q0 24 17 41.5t41 17.5t41.5 -17.5t17.5 -41.5t-17.5 -41t-41.5 -17t-41 17t-17 41z" />
<glyph unicode="&#xdd;" horiz-adv-x="760" d="M234 -1q-10 0 -10 10v12q0 10 10 10q31 -1 58 -1q18 0 18 18v267l-190 437q-10 22 -26 22q-24 0 -54 -1q-10 0 -10 11v11q0 10 10 10q87 -1 161 -1q72 0 160 1q10 0 10 -10v-11q0 -11 -10 -11q-32 1 -59 1q-10 0 -13.5 -6.5t0.5 -15.5l162 -375l162 375q4 9 -1 15.5 t-15 6.5q-28 0 -56 -1q-10 0 -10 11v12q0 9 10 9q57 -1 104 -1q17 0 75 1q10 0 10 -9v-12q0 -11 -10 -11q-26 1 -49 1q-18 0 -27 -22l-180 -416v-288q0 -18 18 -18q25 0 58 1q10 0 10 -10v-12q0 -10 -10 -10q-108 1 -158 1q-41 0 -148 -1zM546 1056q11 0 5 -8l-137 -186 q-4 -6 -13 -6h-7q-10 0 -7 8l56 184q2 8 12 8q4 0 16.5 -0.5t22.5 -0.5q9 0 28.5 0.5t23.5 0.5z" />
<glyph unicode="&#xde;" horiz-adv-x="773" d="M302 627h150q116 0 188.5 -59t72.5 -169q0 -105 -58.5 -163t-170.5 -58h-164q-18 0 -18 -18v-112q0 -18 18 -18q27 0 58 1q10 0 10 -10v-13q0 -9 -10 -9q-108 1 -155 1q-65 0 -152 -1q-10 0 -10 9v13q0 10 10 10q31 -1 58 -1q18 0 18 18v708q0 18 -18 18q-28 0 -59 -1 q-10 0 -10 10v13q0 9 10 9q68 -1 152 -1q69 0 157 1q10 0 10 -9v-13q0 -10 -10 -10q-32 1 -59 1q-18 0 -18 -18v-129zM302 206h130q63 0 89 44.5t26 152.5q0 104 -25 149t-84 47h-118q-18 0 -18 -18v-375z" />
<glyph unicode="&#xdf;" horiz-adv-x="708" d="M49 27q25 -1 44 -1q18 0 18 18v487q-11 0 -61 -1q-7 0 -7 6v9q0 7 7 7q32 -1 43 -1q18 0 18 18q0 252 233 252q89 0 152 -36t63 -116q0 -32 -12 -57.5t-39 -46t-46.5 -31.5t-58.5 -29q-47 -21 -47 -65q0 -28 22 -38q21 -10 86.5 -36t100.5 -45q103 -55 103 -162 q0 -91 -49 -134q-49 -42 -131 -42q-81 0 -136 46q-11 10 -11 -4v-17q0 -8 -8 -8h-10q-8 0 -8 8q1 67 1 80t-1 82q0 8 8 8h10q8 0 8 -8q0 -161 148 -161q57 0 96 24q41 25 41 60q0 22 -15 36.5t-49 36.5q-23 14 -75.5 36t-78.5 38q-87 52 -87 161q0 44 26 93.5t52 100 t26 96.5q0 43 -24 73.5t-61 30.5q-42 0 -66.5 -27t-29 -69t-2 -79.5t10.5 -71.5v-540q0 -9 -9 -9q-48 1 -93 1q-35 0 -102 -1q-9 0 -9 9v11q0 8 9 8z" />
<glyph unicode="&#xe0;" horiz-adv-x="682" d="M218 599q37 12 92 12q171 0 217 -96q25 -53 25 -170v-301q0 -18 18 -18q31 0 61 1q11 0 11 -9v-10q0 -9 -11 -9q-40 1 -90 1q-46 0 -78 29t-43 77q-39 -123 -178 -123q-76 0 -129 47t-53 128q0 159 233 208q47 9 117 17q0 6 -0.5 35t-1 37.5t-3 32.5t-7 32.5t-13.5 24.5 t-21 22t-30.5 11.5t-42.5 5.5q-36 0 -68 -11q-25 -8 -27 -23q-2 -12 10 -16q40 -16 38 -63q-1 -27 -20.5 -42.5t-47.5 -15.5q-29 0 -45 22.5t-16 52.5q0 39 30.5 68.5t72.5 42.5zM304 336q-55 -21 -77.5 -65.5t-22.5 -117.5q0 -52 24 -95.5t69 -43.5q25 0 48.5 19t37.5 46 q27 51 27 153v125q-66 -6 -106 -21zM215 846q4 0 23.5 -0.5t28.5 -0.5q10 0 22.5 0.5t16.5 0.5q10 0 12 -8l56 -184q3 -8 -7 -8h-7q-9 0 -13 6l-137 186q-6 8 5 8z" />
<glyph unicode="&#xe1;" horiz-adv-x="682" d="M218 599q37 12 92 12q171 0 217 -96q25 -53 25 -170v-301q0 -18 18 -18q31 0 61 1q11 0 11 -9v-10q0 -9 -11 -9q-40 1 -90 1q-46 0 -78 29t-43 77q-39 -123 -178 -123q-76 0 -129 47t-53 128q0 159 233 208q47 9 117 17q0 6 -0.5 35t-1 37.5t-3 32.5t-7 32.5t-13.5 24.5 t-21 22t-30.5 11.5t-42.5 5.5q-36 0 -68 -11q-25 -8 -27 -23q-2 -12 10 -16q40 -16 38 -63q-1 -27 -20.5 -42.5t-47.5 -15.5q-29 0 -45 22.5t-16 52.5q0 39 30.5 68.5t72.5 42.5zM304 336q-55 -21 -77.5 -65.5t-22.5 -117.5q0 -52 24 -95.5t69 -43.5q25 0 48.5 19t37.5 46 q27 51 27 153v125q-66 -6 -106 -21zM457 846q11 0 5 -8l-137 -186q-4 -6 -13 -6h-7q-10 0 -7 8l56 184q2 8 12 8q4 0 16.5 -0.5t22.5 -0.5q9 0 28.5 0.5t23.5 0.5z" />
<glyph unicode="&#xe2;" horiz-adv-x="682" d="M218 599q37 12 92 12q171 0 217 -96q25 -53 25 -170v-301q0 -18 18 -18q31 0 61 1q11 0 11 -9v-10q0 -9 -11 -9q-40 1 -90 1q-46 0 -78 29t-43 77q-39 -123 -178 -123q-76 0 -129 47t-53 128q0 159 233 208q47 9 117 17q0 6 -0.5 35t-1 37.5t-3 32.5t-7 32.5t-13.5 24.5 t-21 22t-30.5 11.5t-42.5 5.5q-36 0 -68 -11q-25 -8 -27 -23q-2 -12 10 -16q40 -16 38 -63q-1 -27 -20.5 -42.5t-47.5 -15.5q-29 0 -45 22.5t-16 52.5q0 39 30.5 68.5t72.5 42.5zM304 336q-55 -21 -77.5 -65.5t-22.5 -117.5q0 -52 24 -95.5t69 -43.5q25 0 48.5 19t37.5 46 q27 51 27 153v125q-66 -6 -106 -21zM340 845q10 0 24 0.5t18 0.5q7 0 12 -8l111 -174q3 -8 -7 -8h-11q-8 0 -14 6l-132 116l-133 -116q-6 -6 -13 -6h-11q-10 0 -7 8l111 174q4 8 12 8q3 0 13.5 -0.5t26.5 -0.5z" />
<glyph unicode="&#xe3;" horiz-adv-x="682" d="M218 599q37 12 92 12q171 0 217 -96q25 -53 25 -170v-301q0 -18 18 -18q31 0 61 1q11 0 11 -9v-10q0 -9 -11 -9q-40 1 -90 1q-46 0 -78 29t-43 77q-39 -123 -178 -123q-76 0 -129 47t-53 128q0 159 233 208q47 9 117 17q0 6 -0.5 35t-1 37.5t-3 32.5t-7 32.5t-13.5 24.5 t-21 22t-30.5 11.5t-42.5 5.5q-36 0 -68 -11q-25 -8 -27 -23q-2 -12 10 -16q40 -16 38 -63q-1 -27 -20.5 -42.5t-47.5 -15.5q-29 0 -45 22.5t-16 52.5q0 39 30.5 68.5t72.5 42.5zM304 336q-55 -21 -77.5 -65.5t-22.5 -117.5q0 -52 24 -95.5t69 -43.5q25 0 48.5 19t37.5 46 q27 51 27 153v125q-66 -6 -106 -21zM513 776q-3 -44 -29 -76q-25 -32 -72 -32q-30 0 -94 31q-54 26 -77 26q-19 0 -32 -15.5t-16 -36.5q-1 -7 -8 -7h-9q-5 0 -7 1.5t-1 5.5q5 48 29 78q26 32 72 32q34 0 96 -31q52 -25 75 -25q41 0 48 50q0 6 8 6h9q8 0 8 -7z" />
<glyph unicode="&#xe4;" horiz-adv-x="682" d="M218 599q37 12 92 12q171 0 217 -96q25 -53 25 -170v-301q0 -18 18 -18q31 0 61 1q11 0 11 -9v-10q0 -9 -11 -9q-40 1 -90 1q-46 0 -78 29t-43 77q-39 -123 -178 -123q-76 0 -129 47t-53 128q0 159 233 208q47 9 117 17q0 6 -0.5 35t-1 37.5t-3 32.5t-7 32.5t-13.5 24.5 t-21 22t-30.5 11.5t-42.5 5.5q-36 0 -68 -11q-25 -8 -27 -23q-2 -12 10 -16q40 -16 38 -63q-1 -27 -20.5 -42.5t-47.5 -15.5q-29 0 -45 22.5t-16 52.5q0 39 30.5 68.5t72.5 42.5zM304 336q-55 -21 -77.5 -65.5t-22.5 -117.5q0 -52 24 -95.5t69 -43.5q25 0 48.5 19t37.5 46 q27 51 27 153v125q-66 -6 -106 -21zM180 722q0 24 17 41.5t41 17.5t41.5 -17.5t17.5 -41.5t-17.5 -41t-41.5 -17t-41 17t-17 41zM385 722q0 24 17 41.5t41 17.5t41.5 -17.5t17.5 -41.5t-17.5 -41t-41.5 -17t-41 17t-17 41z" />
<glyph unicode="&#xe5;" horiz-adv-x="682" d="M218 599q37 12 92 12q171 0 217 -96q25 -53 25 -170v-301q0 -18 18 -18q31 0 61 1q11 0 11 -9v-10q0 -9 -11 -9q-40 1 -90 1q-46 0 -78 29t-43 77q-39 -123 -178 -123q-76 0 -129 47t-53 128q0 159 233 208q47 9 117 17q0 6 -0.5 35t-1 37.5t-3 32.5t-7 32.5t-13.5 24.5 t-21 22t-30.5 11.5t-42.5 5.5q-36 0 -68 -11q-25 -8 -27 -23q-2 -12 10 -16q40 -16 38 -63q-1 -27 -20.5 -42.5t-47.5 -15.5q-29 0 -45 22.5t-16 52.5q0 39 30.5 68.5t72.5 42.5zM304 336q-55 -21 -77.5 -65.5t-22.5 -117.5q0 -52 24 -95.5t69 -43.5q25 0 48.5 19t37.5 46 q27 51 27 153v125q-66 -6 -106 -21zM331 835q42 0 72 -30t30 -72q0 -43 -30 -72.5t-72 -29.5q-43 0 -72.5 29.5t-29.5 72.5q0 42 29.5 72t72.5 30zM331 797q-26 0 -45 -19t-19 -45t19 -45t45 -19t45 19t19 45t-19 45t-45 19z" />
<glyph unicode="&#xe6;" horiz-adv-x="1019" d="M552 276q0 -50 1 -71q8 -194 148 -196q74 -2 131 39q57 40 89 125q3 9 10 6l12 -4q6 -2 3 -10q-31 -91 -100 -138q-66 -44 -163 -44q-102 0 -165 52.5t-85 148.5q-7 -94 -50 -147.5t-141 -53.5q-77 0 -129.5 46t-52.5 129q0 159 233 208q47 9 117 17v35.5t-0.5 36.5 t-3 33t-7 32t-13 25t-21 21.5t-31.5 12t-43 5.5q-36 0 -68 -11q-25 -8 -27 -23q-2 -12 10 -16q40 -16 38 -61q-1 -27 -21 -43.5t-47 -16.5q-29 0 -45.5 22.5t-16.5 52.5q0 56 56.5 89.5t119.5 33.5q148 0 203 -75q67 75 187 75q128 0 203.5 -83.5t75.5 -225.5q0 -9 -8 -9 l-59 1h-322q-18 0 -18 -18zM552 319h239q18 0 18 18q-1 31 0 64.5t-5.5 66t-18 59t-39 42.5t-66.5 16q-27 0 -48 -8t-34.5 -19t-23 -31.5t-14 -37t-6.5 -43.5t-2.5 -43t0 -44.5t0.5 -39.5zM304 336q-55 -21 -77.5 -65.5t-22.5 -117.5q0 -52 24 -95.5t69 -43.5q25 0 48.5 19 t37.5 46q27 51 27 153v125q-66 -6 -106 -21z" />
<glyph unicode="&#xe7;" horiz-adv-x="594" d="M310 -103q-8 -1 -12 2t-3 8l18 77q-127 10 -190 93.5t-63 219.5q0 144 72 229t216 85q70 0 130.5 -32.5t60.5 -96.5q0 -30 -18.5 -49.5t-46.5 -19.5q-26 0 -43 18t-17 43q0 29 25 49q13 11 13 24.5t-19 22.5q-33 15 -83 15q-40 0 -66 -12t-41 -31t-22 -59t-9 -78.5 t-2 -107.5t2 -107.5t9 -78.5t21.5 -59t40 -31t63.5 -12q57 0 104 29.5t67 83.5q3 8 10 6l12 -3q6 -2 3 -11q-20 -60 -74.5 -95.5t-121.5 -35.5h-3l-4 -31q39 0 64 -16.5t25 -47.5q0 -41 -37.5 -63t-83.5 -22q-39 0 -73 10q-8 3 -6 10l3 7q3 7 9 6q25 -5 51 -5q66 0 68 40 q1 18 -13.5 23.5t-35.5 2.5z" />
<glyph unicode="&#xe8;" horiz-adv-x="677" d="M210 319h239q18 0 18 18q-1 31 0 64.5t-5.5 66t-18 59t-39 42.5t-66.5 16q-20 0 -37 -5.5t-29.5 -12.5t-22 -21.5t-16 -25t-11 -32t-7 -32.5t-3.5 -36t-1.5 -34.5t-0.5 -35.5v-31zM603 163q-61 -180 -262 -180q-132 0 -206.5 85.5t-74.5 228.5q0 136 70 225t208 89 q128 0 203.5 -83.5t75.5 -225.5q0 -9 -8 -9l-99 1h-282q-18 0 -18 -18q0 -50 1 -71q8 -196 148 -196q83 0 138 43.5t82 120.5q3 8 11 6l10 -3q7 -2 3 -13zM232 846q4 0 23.5 -0.5t28.5 -0.5q10 0 22.5 0.5t16.5 0.5q10 0 12 -8l56 -184q3 -8 -7 -8h-7q-9 0 -13 6l-137 186 q-6 8 5 8z" />
<glyph unicode="&#xe9;" horiz-adv-x="677" d="M210 319h239q18 0 18 18q-1 31 0 64.5t-5.5 66t-18 59t-39 42.5t-66.5 16q-20 0 -37 -5.5t-29.5 -12.5t-22 -21.5t-16 -25t-11 -32t-7 -32.5t-3.5 -36t-1.5 -34.5t-0.5 -35.5v-31zM603 163q-61 -180 -262 -180q-132 0 -206.5 85.5t-74.5 228.5q0 136 70 225t208 89 q128 0 203.5 -83.5t75.5 -225.5q0 -9 -8 -9l-99 1h-282q-18 0 -18 -18q0 -50 1 -71q8 -196 148 -196q83 0 138 43.5t82 120.5q3 8 11 6l10 -3q7 -2 3 -13zM474 846q11 0 5 -8l-137 -186q-4 -6 -13 -6h-7q-10 0 -7 8l56 184q2 8 12 8q4 0 16.5 -0.5t22.5 -0.5q9 0 28.5 0.5 t23.5 0.5z" />
<glyph unicode="&#xea;" horiz-adv-x="677" d="M210 319h239q18 0 18 18q-1 31 0 64.5t-5.5 66t-18 59t-39 42.5t-66.5 16q-20 0 -37 -5.5t-29.5 -12.5t-22 -21.5t-16 -25t-11 -32t-7 -32.5t-3.5 -36t-1.5 -34.5t-0.5 -35.5v-31zM603 163q-61 -180 -262 -180q-132 0 -206.5 85.5t-74.5 228.5q0 136 70 225t208 89 q128 0 203.5 -83.5t75.5 -225.5q0 -9 -8 -9l-99 1h-282q-18 0 -18 -18q0 -50 1 -71q8 -196 148 -196q83 0 138 43.5t82 120.5q3 8 11 6l10 -3q7 -2 3 -13zM347 845q10 0 24 0.5t18 0.5q7 0 12 -8l111 -174q3 -8 -7 -8h-11q-8 0 -14 6l-132 116l-133 -116q-6 -6 -13 -6h-11 q-10 0 -7 8l111 174q4 8 12 8q3 0 13.5 -0.5t26.5 -0.5z" />
<glyph unicode="&#xeb;" horiz-adv-x="677" d="M210 319h239q18 0 18 18q-1 31 0 64.5t-5.5 66t-18 59t-39 42.5t-66.5 16q-20 0 -37 -5.5t-29.5 -12.5t-22 -21.5t-16 -25t-11 -32t-7 -32.5t-3.5 -36t-1.5 -34.5t-0.5 -35.5v-31zM603 163q-61 -180 -262 -180q-132 0 -206.5 85.5t-74.5 228.5q0 136 70 225t208 89 q128 0 203.5 -83.5t75.5 -225.5q0 -9 -8 -9l-99 1h-282q-18 0 -18 -18q0 -50 1 -71q8 -196 148 -196q83 0 138 43.5t82 120.5q3 8 11 6l10 -3q7 -2 3 -13zM177 722q0 24 17 41.5t41 17.5t41.5 -17.5t17.5 -41.5t-17.5 -41t-41.5 -17t-41 17t-17 41zM382 722q0 24 17 41.5 t41 17.5t41.5 -17.5t17.5 -41.5t-17.5 -41t-41.5 -17t-41 17t-17 41z" />
<glyph unicode="&#xec;" horiz-adv-x="404" d="M69 27q25 -1 44 -1q18 0 18 18v506q0 18 -18 18q-19 0 -44 -1q-9 0 -9 9v10q0 9 9 9q66 -1 105 -1q9 0 90 1q9 0 9 -9v-542q0 -18 18 -18q19 0 44 1q9 0 9 -10v-10q0 -8 -9 -8q-70 1 -138 1q-47 0 -128 -1q-9 0 -9 9v10q0 9 9 9zM96 846q4 0 23.5 -0.5t28.5 -0.5 q10 0 22.5 0.5t16.5 0.5q10 0 12 -8l56 -184q3 -8 -7 -8h-7q-9 0 -13 6l-137 186q-6 8 5 8z" />
<glyph unicode="&#xed;" horiz-adv-x="404" d="M69 27q25 -1 44 -1q18 0 18 18v506q0 18 -18 18q-19 0 -44 -1q-9 0 -9 9v10q0 9 9 9q66 -1 105 -1q9 0 90 1q9 0 9 -9v-542q0 -18 18 -18q19 0 44 1q9 0 9 -10v-10q0 -8 -9 -8q-70 1 -138 1q-47 0 -128 -1q-9 0 -9 9v10q0 9 9 9zM298 846q11 0 5 -8l-137 -186 q-4 -6 -13 -6h-7q-10 0 -7 8l56 184q2 8 12 8q4 0 16.5 -0.5t22.5 -0.5q9 0 28.5 0.5t23.5 0.5z" />
<glyph unicode="&#xee;" horiz-adv-x="404" d="M69 27q25 -1 44 -1q18 0 18 18v506q0 18 -18 18q-19 0 -44 -1q-9 0 -9 9v10q0 9 9 9q66 -1 105 -1q9 0 90 1q9 0 9 -9v-542q0 -18 18 -18q19 0 44 1q9 0 9 -10v-10q0 -8 -9 -8q-70 1 -138 1q-47 0 -128 -1q-9 0 -9 9v10q0 9 9 9zM201 845q10 0 24 0.5t18 0.5q7 0 12 -8 l111 -174q3 -8 -7 -8h-11q-8 0 -14 6l-132 116l-133 -116q-6 -6 -13 -6h-11q-10 0 -7 8l111 174q4 8 12 8q3 0 13.5 -0.5t26.5 -0.5z" />
<glyph unicode="&#xef;" horiz-adv-x="404" d="M69 27q25 -1 44 -1q18 0 18 18v506q0 18 -18 18q-19 0 -44 -1q-9 0 -9 9v10q0 9 9 9q66 -1 105 -1q9 0 90 1q9 0 9 -9v-542q0 -18 18 -18q19 0 44 1q9 0 9 -10v-10q0 -8 -9 -8q-70 1 -138 1q-47 0 -128 -1q-9 0 -9 9v10q0 9 9 9zM41 722q0 24 17 41.5t41 17.5t41.5 -17.5 t17.5 -41.5t-17.5 -41t-41.5 -17t-41 17t-17 41zM246 722q0 24 17 41.5t41 17.5t41.5 -17.5t17.5 -41.5t-17.5 -41t-41.5 -17t-41 17t-17 41z" />
<glyph unicode="&#xf0;" horiz-adv-x="703" d="M421 709l-137 -57q-9 -4 -12 4l-4 9q-3 7 6 11l132 55q-31 38 -80 64q-9 5 -3 12l5 9q3 7 11 4q58 -27 112 -70l126 53q9 4 12 -4l4 -9q3 -7 -6 -11l-113 -48q166 -166 169 -414q0 -70 -15 -128t-48 -105.5t-91.5 -74t-138.5 -26.5q-145 0 -217.5 85t-72.5 229t72.5 229 t217.5 85q76 0 127 -25q-19 76 -56 123zM210 297q0 -60 1 -91.5t5 -70.5t12.5 -57.5t24 -37t39.5 -25t58 -6.5q26 0 45.5 3.5t34 13.5t25 20.5t17 32t10.5 38.5t5.5 50.5t2 58.5t0.5 71q0 60 -1 91.5t-5 70.5t-12.5 57.5t-24 37t-39.5 25t-58 6.5t-58 -6.5t-39.5 -25 t-24 -37t-12.5 -57.5t-5 -70.5t-1 -91.5z" />
<glyph unicode="&#xf1;" horiz-adv-x="757" d="M451 27q23 -1 35 -1q18 0 18 18v326q0 121 -12 157q-18 57 -75 57q-58 0 -97 -50t-53 -111.5t-14 -126.5v-252q0 -18 18 -18q13 0 35 1q9 0 9 -8v-11q0 -9 -9 -9q-83 1 -124 1q-32 0 -133 -1q-9 0 -9 9v11q0 8 9 8q25 -1 44 -1q18 0 18 18v506q0 18 -18 18q-20 0 -45 -1 q-8 0 -8 9v10q0 9 8 9q57 -1 113 -1q20 0 83 1q9 0 9 -9v-126q46 151 181 151q105 0 158.5 -65t53.5 -176v-326q0 -18 18 -18q19 0 44 1q9 0 9 -8v-11q0 -9 -9 -9q-93 1 -130 1q-58 0 -127 -1q-9 0 -9 9v11q0 8 9 8zM561 776q-3 -44 -29 -76q-25 -32 -72 -32q-30 0 -94 31 q-54 26 -77 26q-19 0 -32 -15.5t-16 -36.5q-1 -7 -8 -7h-9q-5 0 -7 1.5t-1 5.5q5 48 29 78q26 32 72 32q34 0 96 -31q52 -25 75 -25q41 0 48 50q0 6 8 6h9q8 0 8 -7z" />
<glyph unicode="&#xf2;" horiz-adv-x="700" d="M60 297q0 144 72.5 229t217.5 85t217.5 -85t72.5 -229t-72.5 -229t-217.5 -85t-217.5 85t-72.5 229zM210 297q0 -69 2 -107.5t9 -78.5t22 -59t41 -31t66 -12t66 12t41 31t22 59t9 78.5t2 107.5t-2 107.5t-9 78.5t-22 59t-41 31t-66 12t-66 -12t-41 -31t-22 -59t-9 -78.5 t-2 -107.5zM234 846q4 0 23.5 -0.5t28.5 -0.5q10 0 22.5 0.5t16.5 0.5q10 0 12 -8l56 -184q3 -8 -7 -8h-7q-9 0 -13 6l-137 186q-6 8 5 8z" />
<glyph unicode="&#xf3;" horiz-adv-x="700" d="M60 297q0 144 72.5 229t217.5 85t217.5 -85t72.5 -229t-72.5 -229t-217.5 -85t-217.5 85t-72.5 229zM210 297q0 -69 2 -107.5t9 -78.5t22 -59t41 -31t66 -12t66 12t41 31t22 59t9 78.5t2 107.5t-2 107.5t-9 78.5t-22 59t-41 31t-66 12t-66 -12t-41 -31t-22 -59t-9 -78.5 t-2 -107.5zM486 846q11 0 5 -8l-137 -186q-4 -6 -13 -6h-7q-10 0 -7 8l56 184q2 8 12 8q4 0 16.5 -0.5t22.5 -0.5q9 0 28.5 0.5t23.5 0.5z" />
<glyph unicode="&#xf4;" horiz-adv-x="700" d="M60 297q0 144 72.5 229t217.5 85t217.5 -85t72.5 -229t-72.5 -229t-217.5 -85t-217.5 85t-72.5 229zM210 297q0 -69 2 -107.5t9 -78.5t22 -59t41 -31t66 -12t66 12t41 31t22 59t9 78.5t2 107.5t-2 107.5t-9 78.5t-22 59t-41 31t-66 12t-66 -12t-41 -31t-22 -59t-9 -78.5 t-2 -107.5zM349 845q10 0 24 0.5t18 0.5q7 0 12 -8l111 -174q3 -8 -7 -8h-11q-8 0 -14 6l-132 116l-133 -116q-6 -6 -13 -6h-11q-10 0 -7 8l111 174q4 8 12 8q3 0 13.5 -0.5t26.5 -0.5z" />
<glyph unicode="&#xf5;" horiz-adv-x="700" d="M60 297q0 144 72.5 229t217.5 85t217.5 -85t72.5 -229t-72.5 -229t-217.5 -85t-217.5 85t-72.5 229zM210 297q0 -69 2 -107.5t9 -78.5t22 -59t41 -31t66 -12t66 12t41 31t22 59t9 78.5t2 107.5t-2 107.5t-9 78.5t-22 59t-41 31t-66 12t-66 -12t-41 -31t-22 -59t-9 -78.5 t-2 -107.5zM522 776q-3 -44 -29 -76q-25 -32 -72 -32q-30 0 -94 31q-54 26 -77 26q-19 0 -32 -15.5t-16 -36.5q-1 -7 -8 -7h-9q-5 0 -7 1.5t-1 5.5q5 48 29 78q26 32 72 32q34 0 96 -31q52 -25 75 -25q41 0 48 50q0 6 8 6h9q8 0 8 -7z" />
<glyph unicode="&#xf6;" horiz-adv-x="700" d="M60 297q0 144 72.5 229t217.5 85t217.5 -85t72.5 -229t-72.5 -229t-217.5 -85t-217.5 85t-72.5 229zM210 297q0 -69 2 -107.5t9 -78.5t22 -59t41 -31t66 -12t66 12t41 31t22 59t9 78.5t2 107.5t-2 107.5t-9 78.5t-22 59t-41 31t-66 12t-66 -12t-41 -31t-22 -59t-9 -78.5 t-2 -107.5zM189 722q0 24 17 41.5t41 17.5t41.5 -17.5t17.5 -41.5t-17.5 -41t-41.5 -17t-41 17t-17 41zM394 722q0 24 17 41.5t41 17.5t41.5 -17.5t17.5 -41.5t-17.5 -41t-41.5 -17t-41 17t-17 41z" />
<glyph unicode="&#xf7;" horiz-adv-x="644" d="M240 67q0 35 25 59.5t59 24.5t59 -24.5t25 -59.5t-25 -59.5t-59 -24.5t-59 24.5t-25 59.5zM240 527q0 35 25 59.5t59 24.5t59 -24.5t25 -59.5t-25 -59.5t-59 -24.5t-59 24.5t-25 59.5zM326 272q153 0 244 -1q14 0 14 13v29q0 13 -14 13q-65 -1 -247 -1q-154 0 -249 1 q-14 0 -14 -12v-30q0 -13 14 -13q112 1 252 1z" />
<glyph unicode="&#xf8;" horiz-adv-x="701" d="M61 297q0 144 72.5 229t217.5 85q127 0 202 -70l57 65q7 8 17 0l6 -5q9 -6 1 -16l-61 -65q68 -83 68 -223q0 -144 -72.5 -229t-217.5 -85q-130 0 -203 70q-32 -37 -59 -66q-8 -10 -17 -1l-6 6q-8 8 -1 16q28 28 63 67q-67 80 -67 222zM491 297q0 93 -3 129l-270 -296 q9 -64 39 -92.5t94 -28.5q40 0 66 12t41 31t22 59t9 78.5t2 107.5zM211 297q0 -92 3 -128l269 296q-9 63 -38.5 91.5t-93.5 28.5q-40 0 -66 -12t-41 -31t-22 -59t-9 -78.5t-2 -107.5z" />
<glyph unicode="&#xf9;" horiz-adv-x="757" d="M504 298v252q0 18 -18 18q-19 0 -44 -1q-9 0 -9 8v11q0 9 9 9q89 -1 116 -1q22 0 79 1q9 0 9 -9v-542q0 -18 18 -18q20 0 45 1q8 0 8 -9v-10q0 -9 -8 -9q-66 1 -115 1q-10 0 -81 -1q-9 0 -9 9v126q-46 -151 -181 -151q-105 0 -158.5 65t-53.5 176v326q0 18 -18 18 q-19 0 -44 -1q-9 0 -9 8v11q0 9 9 9q89 -1 116 -1q22 0 79 1q9 0 9 -9v-362q0 -121 12 -157q18 -57 75 -57q58 0 97 50t53 111.5t14 126.5zM242 846q4 0 23.5 -0.5t28.5 -0.5q10 0 22.5 0.5t16.5 0.5q10 0 12 -8l56 -184q3 -8 -7 -8h-7q-9 0 -13 6l-137 186q-6 8 5 8z" />
<glyph unicode="&#xfa;" horiz-adv-x="757" d="M504 298v252q0 18 -18 18q-19 0 -44 -1q-9 0 -9 8v11q0 9 9 9q89 -1 116 -1q22 0 79 1q9 0 9 -9v-542q0 -18 18 -18q20 0 45 1q8 0 8 -9v-10q0 -9 -8 -9q-66 1 -115 1q-10 0 -81 -1q-9 0 -9 9v126q-46 -151 -181 -151q-105 0 -158.5 65t-53.5 176v326q0 18 -18 18 q-19 0 -44 -1q-9 0 -9 8v11q0 9 9 9q89 -1 116 -1q22 0 79 1q9 0 9 -9v-362q0 -121 12 -157q18 -57 75 -57q58 0 97 50t53 111.5t14 126.5zM494 846q11 0 5 -8l-137 -186q-4 -6 -13 -6h-7q-10 0 -7 8l56 184q2 8 12 8q4 0 16.5 -0.5t22.5 -0.5q9 0 28.5 0.5t23.5 0.5z" />
<glyph unicode="&#xfb;" horiz-adv-x="757" d="M504 298v252q0 18 -18 18q-19 0 -44 -1q-9 0 -9 8v11q0 9 9 9q89 -1 116 -1q22 0 79 1q9 0 9 -9v-542q0 -18 18 -18q20 0 45 1q8 0 8 -9v-10q0 -9 -8 -9q-66 1 -115 1q-10 0 -81 -1q-9 0 -9 9v126q-46 -151 -181 -151q-105 0 -158.5 65t-53.5 176v326q0 18 -18 18 q-19 0 -44 -1q-9 0 -9 8v11q0 9 9 9q89 -1 116 -1q22 0 79 1q9 0 9 -9v-362q0 -121 12 -157q18 -57 75 -57q58 0 97 50t53 111.5t14 126.5zM377 845q10 0 24 0.5t18 0.5q7 0 12 -8l111 -174q3 -8 -7 -8h-11q-8 0 -14 6l-132 116l-133 -116q-6 -6 -13 -6h-11q-10 0 -7 8 l111 174q4 8 12 8q3 0 13.5 -0.5t26.5 -0.5z" />
<glyph unicode="&#xfc;" horiz-adv-x="757" d="M504 298v252q0 18 -18 18q-19 0 -44 -1q-9 0 -9 8v11q0 9 9 9q89 -1 116 -1q22 0 79 1q9 0 9 -9v-542q0 -18 18 -18q20 0 45 1q8 0 8 -9v-10q0 -9 -8 -9q-66 1 -115 1q-10 0 -81 -1q-9 0 -9 9v126q-46 -151 -181 -151q-105 0 -158.5 65t-53.5 176v326q0 18 -18 18 q-19 0 -44 -1q-9 0 -9 8v11q0 9 9 9q89 -1 116 -1q22 0 79 1q9 0 9 -9v-362q0 -121 12 -157q18 -57 75 -57q58 0 97 50t53 111.5t14 126.5zM217 722q0 24 17 41.5t41 17.5t41.5 -17.5t17.5 -41.5t-17.5 -41t-41.5 -17t-41 17t-17 41zM422 722q0 24 17 41.5t41 17.5 t41.5 -17.5t17.5 -41.5t-17.5 -41t-41.5 -17t-41 17t-17 41z" />
<glyph unicode="&#xfd;" horiz-adv-x="645" d="M606 595q9 0 9 -8v-11q0 -9 -9 -9q-25 1 -42 1q-16 0 -23 -22l-240 -711q-39 -118 -116 -118q-41 0 -73 28t-32 69q0 32 19 54.5t53 22.5q25 0 41.5 -18.5t16.5 -44.5q0 -20 -13 -36t-34 -23q-12 -4 -12 -10t10 -11t22 -5q59 0 93 100l56 163l-230 541q-10 21 -24 21 q-17 0 -40 -1q-8 0 -8 9v11q0 8 8 8q70 -1 137 -1q69 0 142 1q9 0 9 -8v-11q0 -9 -9 -9q-26 1 -47 1q-10 0 -14 -6.5t0 -14.5l144 -338l114 339q3 9 -2 14.5t-14 5.5q-21 0 -46 -1q-9 0 -9 9v11q0 8 9 8q60 -1 86 -1q24 0 68 1zM478 846q11 0 5 -8l-137 -186q-4 -6 -13 -6 h-7q-10 0 -7 8l56 184q2 8 12 8q4 0 16.5 -0.5t22.5 -0.5q9 0 28.5 0.5t23.5 0.5z" />
<glyph unicode="&#xfe;" horiz-adv-x="734" d="M49 805q67 -1 104 -1q48 0 91 1q8 0 8 -8v-295q19 51 61.5 80t100.5 29q85 0 145 -44.5t87.5 -114t27.5 -155.5t-27.5 -155.5t-87.5 -114t-145 -44.5q-58 0 -100.5 29t-61.5 80v-331q0 -18 18 -18q19 0 44 1q9 0 9 -8v-11q0 -9 -9 -9q-101 1 -126 1q-56 0 -138 -1 q-10 0 -10 9v10q0 9 9 9q26 -1 44 -1t18 18v999q0 18 -18 18q-19 0 -44 -1q-9 0 -9 9v11q0 8 9 8zM524 297q0 147 -24 210q-30 78 -96 78q-35 0 -61.5 -12.5t-42.5 -37t-26.5 -50.5t-14.5 -62.5t-5.5 -63t-1.5 -61.5q0 -36 1.5 -62.5t5.5 -63.5t14.5 -63t26.5 -50.5 t42.5 -37t61.5 -12.5q25 0 44.5 11.5t32 28t21.5 44.5t13 49t6.5 54.5t2.5 49v42.5v9z" />
<glyph unicode="&#xff;" horiz-adv-x="645" d="M606 595q9 0 9 -8v-11q0 -9 -9 -9q-25 1 -42 1q-16 0 -23 -22l-240 -711q-39 -118 -116 -118q-41 0 -73 28t-32 69q0 32 19 54.5t53 22.5q25 0 41.5 -18.5t16.5 -44.5q0 -20 -13 -36t-34 -23q-12 -4 -12 -10t10 -11t22 -5q59 0 93 100l56 163l-230 541q-10 21 -24 21 q-17 0 -40 -1q-8 0 -8 9v11q0 8 8 8q70 -1 137 -1q69 0 142 1q9 0 9 -8v-11q0 -9 -9 -9q-26 1 -47 1q-10 0 -14 -6.5t0 -14.5l144 -338l114 339q3 9 -2 14.5t-14 5.5q-21 0 -46 -1q-9 0 -9 9v11q0 8 9 8q60 -1 86 -1q24 0 68 1zM171 722q0 24 17 41.5t41 17.5t41.5 -17.5 t17.5 -41.5t-17.5 -41t-41.5 -17t-41 17t-17 41zM376 722q0 24 17 41.5t41 17.5t41.5 -17.5t17.5 -41.5t-17.5 -41t-41.5 -17t-41 17t-17 41z" />
<glyph unicode="&#x100;" d="M197 204l-49 -153q-3 -9 1 -15t14 -6q22 0 50 1q10 0 10 -10v-13q0 -9 -10 -9q-58 1 -89 1q-29 0 -84 -1q-10 0 -10 9v13q0 10 10 10q24 -1 55 -1q17 0 24 21l238 746q2 7 9 7h104q7 0 9 -7l237 -745q7 -22 24 -22q23 0 54 1q10 0 10 -10v-13q0 -9 -10 -9q-88 1 -152 1 q-92 0 -163 -1q-10 0 -10 9v13q0 10 10 10q32 -1 58 -1q24 0 17 22l-55 170h-283q-13 0 -19 -18zM465 250q26 0 19 21l-133 416l-139 -437h253zM221 949h391q8 0 8 -6v-36q0 -7 -8 -7h-391q-7 0 -7 7v36q0 6 7 6z" />
<glyph unicode="&#x101;" horiz-adv-x="682" d="M218 599q37 12 92 12q171 0 217 -96q25 -53 25 -170v-301q0 -18 18 -18q31 0 61 1q11 0 11 -9v-10q0 -9 -11 -9q-40 1 -90 1q-46 0 -78 29t-43 77q-39 -123 -178 -123q-76 0 -129 47t-53 128q0 159 233 208q47 9 117 17q0 6 -0.5 35t-1 37.5t-3 32.5t-7 32.5t-13.5 24.5 t-21 22t-30.5 11.5t-42.5 5.5q-36 0 -68 -11q-25 -8 -27 -23q-2 -12 10 -16q40 -16 38 -63q-1 -27 -20.5 -42.5t-47.5 -15.5q-29 0 -45 22.5t-16 52.5q0 39 30.5 68.5t72.5 42.5zM304 336q-55 -21 -77.5 -65.5t-22.5 -117.5q0 -52 24 -95.5t69 -43.5q25 0 48.5 19t37.5 46 q27 51 27 153v125q-66 -6 -106 -21zM145 739h391q8 0 8 -6v-36q0 -7 -8 -7h-391q-7 0 -7 7v36q0 6 7 6z" />
<glyph unicode="&#x102;" d="M197 204l-49 -153q-3 -9 1 -15t14 -6q22 0 50 1q10 0 10 -10v-13q0 -9 -10 -9q-58 1 -89 1q-29 0 -84 -1q-10 0 -10 9v13q0 10 10 10q24 -1 55 -1q17 0 24 21l238 746q2 7 9 7h104q7 0 9 -7l237 -745q7 -22 24 -22q23 0 54 1q10 0 10 -10v-13q0 -9 -10 -9q-88 1 -152 1 q-92 0 -163 -1q-10 0 -10 9v13q0 10 10 10q32 -1 58 -1q24 0 17 22l-55 170h-283q-13 0 -19 -18zM465 250q26 0 19 21l-133 416l-139 -437h253zM418 857q-70 0 -116.5 36.5t-54.5 97.5q-1 10 8 10h8q7 0 8 -4q33 -66 147 -66q112 0 145 66q1 4 8 4h8q9 0 8 -10 q-7 -61 -55 -97.5t-114 -36.5z" />
<glyph unicode="&#x103;" horiz-adv-x="682" d="M218 599q37 12 92 12q171 0 217 -96q25 -53 25 -170v-301q0 -18 18 -18q31 0 61 1q11 0 11 -9v-10q0 -9 -11 -9q-40 1 -90 1q-46 0 -78 29t-43 77q-39 -123 -178 -123q-76 0 -129 47t-53 128q0 159 233 208q47 9 117 17q0 6 -0.5 35t-1 37.5t-3 32.5t-7 32.5t-13.5 24.5 t-21 22t-30.5 11.5t-42.5 5.5q-36 0 -68 -11q-25 -8 -27 -23q-2 -12 10 -16q40 -16 38 -63q-1 -27 -20.5 -42.5t-47.5 -15.5q-29 0 -45 22.5t-16 52.5q0 39 30.5 68.5t72.5 42.5zM304 336q-55 -21 -77.5 -65.5t-22.5 -117.5q0 -52 24 -95.5t69 -43.5q25 0 48.5 19t37.5 46 q27 51 27 153v125q-66 -6 -106 -21zM342 647q-70 0 -116.5 36.5t-54.5 97.5q-1 10 8 10h8q7 0 8 -4q33 -66 147 -66q112 0 145 66q1 4 8 4h8q9 0 8 -10q-7 -61 -55 -97.5t-114 -36.5z" />
<glyph unicode="&#x104;" d="M197 204l-49 -153q-3 -9 1 -15t14 -6q22 0 50 1q10 0 10 -10v-13q0 -9 -10 -9q-58 1 -89 1q-29 0 -84 -1q-10 0 -10 9v13q0 10 10 10q24 -1 55 -1q17 0 24 21l238 746q2 7 9 7h104q7 0 9 -7l237 -745q7 -22 24 -22q23 0 54 1q10 0 10 -10v-13q0 -9 -10 -9q-88 1 -152 1 h-4q-22 -44 -22 -75q0 -32 27 -52t62 -20t76 20q6 3 12 -2l5 -4q8 -5 0 -11q-70 -56 -138 -56q-43 0 -75.5 24t-32.5 66q0 53 65 110q-78 0 -138 -1q-10 0 -10 9v13q0 10 10 10q32 -1 58 -1q24 0 17 22l-55 170h-283q-13 0 -19 -18zM465 250q26 0 19 21l-133 416l-139 -437 h253z" />
<glyph unicode="&#x105;" horiz-adv-x="682" d="M218 599q37 12 92 12q171 0 217 -96q25 -53 25 -170v-301q0 -18 18 -18q31 0 61 1q11 0 11 -9v-10q0 -9 -11 -9q-40 1 -90 1h-5q-22 -44 -22 -75q0 -32 27 -52t62 -20t76 20q6 3 12 -2l5 -4q8 -5 0 -11q-70 -56 -138 -56q-43 0 -75.5 24t-32.5 66q0 54 68 112 q-37 7 -63 34.5t-35 69.5q-39 -123 -178 -123q-76 0 -129 47t-53 128q0 159 233 208q47 9 117 17q0 6 -0.5 35t-1 37.5t-3 32.5t-7 32.5t-13.5 24.5t-21 22t-30.5 11.5t-42.5 5.5q-36 0 -68 -11q-25 -8 -27 -23q-2 -12 10 -16q40 -16 38 -63q-1 -27 -20.5 -42.5t-47.5 -15.5 q-29 0 -45 22.5t-16 52.5q0 39 30.5 68.5t72.5 42.5zM304 336q-55 -21 -77.5 -65.5t-22.5 -117.5q0 -52 24 -95.5t69 -43.5q25 0 48.5 19t37.5 46q27 51 27 153v125q-66 -6 -106 -21z" />
<glyph unicode="&#x106;" horiz-adv-x="771" d="M440 793q-80 0 -122 -32t-62 -116t-20 -243t19.5 -242.5t61 -116t121.5 -32.5q124 0 177.5 68t53.5 206q0 10 10 10h12q10 0 10 -10q-1 -99 -1 -137q0 -40 1 -138q0 -10 -10 -10h-12q-10 0 -10 10v12q0 26 -15.5 28t-30.5 -12q-73 -55 -185 -55q-179 0 -273.5 113 t-94.5 306t94.5 306t273.5 113q109 0 185 -56q15 -14 30.5 -14t15.5 25v18q0 10 10 10h12q10 0 10 -10q-1 -109 -1 -138t1 -137q0 -10 -10 -10h-12q-10 0 -10 10v22q0 114 -56 183t-173 69zM591 1056q11 0 5 -8l-137 -186q-4 -6 -13 -6h-7q-10 0 -7 8l56 184q2 8 12 8 q4 0 16.5 -0.5t22.5 -0.5q9 0 28.5 0.5t23.5 0.5z" />
<glyph unicode="&#x107;" horiz-adv-x="594" d="M542 114q-20 -60 -74.5 -95.5t-121.5 -35.5q-144 0 -215 85t-71 229t72 229t216 85q70 0 130.5 -32.5t60.5 -96.5q0 -30 -18.5 -49.5t-46.5 -19.5q-26 0 -43 18t-17 43q0 29 25 49q13 11 13 24.5t-19 22.5q-33 15 -83 15q-40 0 -66 -12t-41 -31t-22 -59t-9 -78.5 t-2 -107.5t2 -107.5t9 -78.5t21.5 -59t40 -31t63.5 -12q57 0 104 29.5t67 83.5q3 8 10 6l12 -3q6 -2 3 -11zM483 846q11 0 5 -8l-137 -186q-4 -6 -13 -6h-7q-10 0 -7 8l56 184q2 8 12 8q4 0 16.5 -0.5t22.5 -0.5q9 0 28.5 0.5t23.5 0.5z" />
<glyph unicode="&#x108;" horiz-adv-x="771" d="M440 793q-80 0 -122 -32t-62 -116t-20 -243t19.5 -242.5t61 -116t121.5 -32.5q124 0 177.5 68t53.5 206q0 10 10 10h12q10 0 10 -10q-1 -99 -1 -137q0 -40 1 -138q0 -10 -10 -10h-12q-10 0 -10 10v12q0 26 -15.5 28t-30.5 -12q-73 -55 -185 -55q-179 0 -273.5 113 t-94.5 306t94.5 306t273.5 113q109 0 185 -56q15 -14 30.5 -14t15.5 25v18q0 10 10 10h12q10 0 10 -10q-1 -109 -1 -138t1 -137q0 -10 -10 -10h-12q-10 0 -10 10v22q0 114 -56 183t-173 69zM444 1055q10 0 24 0.5t18 0.5q7 0 12 -8l111 -174q3 -8 -7 -8h-11q-8 0 -14 6 l-132 116l-133 -116q-6 -6 -13 -6h-11q-10 0 -7 8l111 174q4 8 12 8q3 0 13.5 -0.5t26.5 -0.5z" />
<glyph unicode="&#x109;" horiz-adv-x="594" d="M542 114q-20 -60 -74.5 -95.5t-121.5 -35.5q-144 0 -215 85t-71 229t72 229t216 85q70 0 130.5 -32.5t60.5 -96.5q0 -30 -18.5 -49.5t-46.5 -19.5q-26 0 -43 18t-17 43q0 29 25 49q13 11 13 24.5t-19 22.5q-33 15 -83 15q-40 0 -66 -12t-41 -31t-22 -59t-9 -78.5 t-2 -107.5t2 -107.5t9 -78.5t21.5 -59t40 -31t63.5 -12q57 0 104 29.5t67 83.5q3 8 10 6l12 -3q6 -2 3 -11zM336 845q10 0 24 0.5t18 0.5q7 0 12 -8l111 -174q3 -8 -7 -8h-11q-8 0 -14 6l-132 116l-133 -116q-6 -6 -13 -6h-11q-10 0 -7 8l111 174q4 8 12 8q3 0 13.5 -0.5 t26.5 -0.5z" />
<glyph unicode="&#x10a;" horiz-adv-x="771" d="M440 793q-80 0 -122 -32t-62 -116t-20 -243t19.5 -242.5t61 -116t121.5 -32.5q124 0 177.5 68t53.5 206q0 10 10 10h12q10 0 10 -10q-1 -99 -1 -137q0 -40 1 -138q0 -10 -10 -10h-12q-10 0 -10 10v12q0 26 -15.5 28t-30.5 -12q-73 -55 -185 -55q-179 0 -273.5 113 t-94.5 306t94.5 306t273.5 113q109 0 185 -56q15 -14 30.5 -14t15.5 25v18q0 10 10 10h12q10 0 10 -10q-1 -109 -1 -138t1 -137q0 -10 -10 -10h-12q-10 0 -10 10v22q0 114 -56 183t-173 69zM387 932q0 24 17 41.5t41 17.5t41.5 -17.5t17.5 -41.5t-17.5 -41t-41.5 -17t-41 17 t-17 41z" />
<glyph unicode="&#x10b;" horiz-adv-x="594" d="M542 114q-20 -60 -74.5 -95.5t-121.5 -35.5q-144 0 -215 85t-71 229t72 229t216 85q70 0 130.5 -32.5t60.5 -96.5q0 -30 -18.5 -49.5t-46.5 -19.5q-26 0 -43 18t-17 43q0 29 25 49q13 11 13 24.5t-19 22.5q-33 15 -83 15q-40 0 -66 -12t-41 -31t-22 -59t-9 -78.5 t-2 -107.5t2 -107.5t9 -78.5t21.5 -59t40 -31t63.5 -12q57 0 104 29.5t67 83.5q3 8 10 6l12 -3q6 -2 3 -11zM288 722q0 24 17 41.5t41 17.5t41.5 -17.5t17.5 -41.5t-17.5 -41t-41.5 -17t-41 17t-17 41z" />
<glyph unicode="&#x10c;" horiz-adv-x="771" d="M440 793q-80 0 -122 -32t-62 -116t-20 -243t19.5 -242.5t61 -116t121.5 -32.5q124 0 177.5 68t53.5 206q0 10 10 10h12q10 0 10 -10q-1 -99 -1 -137q0 -40 1 -138q0 -10 -10 -10h-12q-10 0 -10 10v12q0 26 -15.5 28t-30.5 -12q-73 -55 -185 -55q-179 0 -273.5 113 t-94.5 306t94.5 306t273.5 113q109 0 185 -56q15 -14 30.5 -14t15.5 25v18q0 10 10 10h12q10 0 10 -10q-1 -109 -1 -138t1 -137q0 -10 -10 -10h-12q-10 0 -10 10v22q0 114 -56 183t-173 69zM444 867q-10 0 -23 -0.5t-17 -0.5q-8 0 -12 8l-111 174q-3 8 7 8h12q7 0 13 -6 l132 -116l132 116q6 6 13 6h12q10 0 7 -8l-111 -174q-5 -8 -12 -8q-3 0 -14.5 0.5t-27.5 0.5z" />
<glyph unicode="&#x10d;" horiz-adv-x="594" d="M542 114q-20 -60 -74.5 -95.5t-121.5 -35.5q-144 0 -215 85t-71 229t72 229t216 85q70 0 130.5 -32.5t60.5 -96.5q0 -30 -18.5 -49.5t-46.5 -19.5q-26 0 -43 18t-17 43q0 29 25 49q13 11 13 24.5t-19 22.5q-33 15 -83 15q-40 0 -66 -12t-41 -31t-22 -59t-9 -78.5 t-2 -107.5t2 -107.5t9 -78.5t21.5 -59t40 -31t63.5 -12q57 0 104 29.5t67 83.5q3 8 10 6l12 -3q6 -2 3 -11zM346 657q-10 0 -23 -0.5t-17 -0.5q-8 0 -12 8l-111 174q-3 8 7 8h12q7 0 13 -6l132 -116l132 116q6 6 13 6h12q10 0 7 -8l-111 -174q-5 -8 -12 -8q-3 0 -14.5 0.5 t-27.5 0.5z" />
<glyph unicode="&#x10e;" horiz-adv-x="846" d="M59 -1q-9 0 -9 9v13q0 10 9 10q31 -1 60 -1q18 0 18 18v708q0 18 -18 18q-29 0 -59 -1q-10 0 -10 9v13q0 10 10 10q87 -1 151 -1h241q84 0 147.5 -31t101.5 -86.5t56.5 -127t18.5 -157.5q0 -63 -9.5 -119t-33 -109t-60 -90.5t-93 -60.5t-128.5 -23h-239q-77 0 -154 -1z M292 758v-712q0 -18 18 -18h130q25 0 46 6.5t37 18.5t29 28.5t21.5 36.5t15 42t10 45.5t6.5 47.5t3 47t1 44.5t0 39.5v18q0 148 -13 212q-35 161 -156 162h-130q-18 0 -18 -18zM422 867q-10 0 -23 -0.5t-17 -0.5q-8 0 -12 8l-111 174q-3 8 7 8h12q7 0 13 -6l132 -116 l132 116q6 6 13 6h12q10 0 7 -8l-111 -174q-5 -8 -12 -8q-3 0 -14.5 0.5t-27.5 0.5z" />
<glyph unicode="&#x10f;" horiz-adv-x="815" d="M615 805q8 0 8 -8v-753q0 -18 18 -18q19 0 44 1q9 0 9 -9v-10q0 -9 -9 -9q-62 1 -125 1q-7 0 -70 -1q-8 0 -8 8v85q-19 -51 -61.5 -80t-100.5 -29q-85 0 -145 44.5t-87.5 114t-27.5 155.5t27.5 155.5t87.5 114t145 44.5q58 0 100.5 -29t61.5 -80v257q0 19 -18 19 q-19 0 -44 -1q-9 0 -9 10v10q0 8 9 8q67 -1 109 -1q23 0 86 1zM210 297v-10v-43.5t2.5 -49t6.5 -54t13 -48.5t21.5 -43.5t32 -28t44.5 -11.5q35 0 61.5 12.5t42.5 37t26.5 50.5t14.5 63t5.5 63.5t1.5 62.5q0 35 -1.5 61.5t-5.5 63t-14.5 62.5t-26.5 50.5t-42.5 37 t-61.5 12.5q-25 0 -44.5 -11.5t-32 -27.5t-21.5 -44t-13 -49t-6.5 -54t-2.5 -48.5v-43.5v-3.5v-3v-3.5zM700 527q1 0 10.5 9t11 10.5t10 9t11 10.5t9 10.5t10 13t9 13t9.5 15.5q8 16 0 27t-23 9q-34 -6 -63 17.5t-29 65.5q0 36 24 60.5t60 24.5q41 0 65 -28t24 -70 q0 -67 -28.5 -115t-90.5 -102q-6 -5 -12 1l-7 7q-6 7 0 12z" />
<glyph unicode="&#x110;" horiz-adv-x="846" d="M59 -1q-9 0 -9 9v13q0 10 9 10q31 -1 60 -1q18 0 18 18v398h-72q-14 0 -14 14v1q0 14 14 14q33 -1 72 -1v282q0 18 -18 18q-29 0 -59 -1q-10 0 -10 9v13q0 10 10 10q47 -1 151 -1h241q84 0 147.5 -31t101.5 -86.5t56.5 -127t18.5 -157.5q0 -63 -9.5 -119t-33 -109 t-60 -90.5t-93 -60.5t-128.5 -23h-239q-87 0 -154 -1zM292 758v-285q86 0 127 1q14 0 14 -16q-1 -13 -14 -13l-127 2v-401q0 -18 18 -18h130q48 0 82.5 28.5t50.5 64t25 95t10 92.5t1 86v8q0 169 -24 247q-40 127 -145 127h-130q-18 0 -18 -18z" />
<glyph unicode="&#x111;" horiz-adv-x="734" d="M615 805q8 0 8 -8v-101q37 0 56 1q12 0 14 -14q0 -15 -14 -15q-8 0 -27 0.5t-29 0.5v-625q0 -18 18 -18q19 0 44 1q9 0 9 -9v-10q0 -9 -9 -9q-62 1 -125 1q-7 0 -70 -1q-8 0 -8 8v85q-19 -51 -61.5 -80t-100.5 -29q-85 0 -145 44.5t-87.5 114t-27.5 155.5t27.5 155.5 t87.5 114t145 44.5q58 0 100.5 -29t61.5 -80v167h-157q-14 0 -14 14v1q0 14 14 14q24 -1 157 -2v63q0 19 -18 19q-19 0 -44 -1q-9 0 -9 10v10q0 8 9 8q67 -1 109 -1q23 0 86 1zM210 297v-10v-43.5t2.5 -49t6.5 -54t13 -48.5t21.5 -43.5t32 -28t44.5 -11.5q35 0 61.5 12.5 t42.5 37t26.5 50.5t14.5 63t5.5 63.5t1.5 62.5q0 35 -1.5 61.5t-5.5 63t-14.5 62.5t-26.5 50.5t-42.5 37t-61.5 12.5q-25 0 -44.5 -11.5t-32 -27.5t-21.5 -44t-13 -49t-6.5 -54t-2.5 -48.5v-43.5v-3.5v-3v-3.5z" />
<glyph unicode="&#x112;" horiz-adv-x="741" d="M60 805q67 -1 146 -1h368q23 0 75 1q9 0 9 -9q-1 -57 -1 -67q0 -16 1 -71q0 -10 -10 -10h-12q-10 0 -10 11q0 64 -20 90.5t-66 26.5h-230q-18 0 -18 -18v-278h178q48 0 63.5 22.5t15.5 76.5q0 9 10 9h12q9 0 9 -10q-1 -86 -1 -112q0 -27 1 -113q0 -9 -9 -9h-12 q-10 0 -10 10q0 50 -14.5 74t-61.5 24h-163q-18 0 -18 -18v-387q0 -19 18 -19h248q84 0 91 134q1 17 1 61q0 9 10 9h12q9 0 9 -9q0 -28 -0.5 -45.5t0 -22.5t0 -14.5t-0.5 -26.5q0 -21 1 -106q0 -9 -9 -9q-27 1 -48 1h-418q-59 0 -146 -1q-10 0 -10 9v13q0 10 10 10 q30 -1 59 -1q18 0 18 18v708q0 18 -18 18q-29 0 -59 -1q-10 0 -10 10v12q0 10 10 10zM184 949h391q8 0 8 -6v-36q0 -7 -8 -7h-391q-7 0 -7 7v36q0 6 7 6z" />
<glyph unicode="&#x113;" horiz-adv-x="677" d="M210 319h239q18 0 18 18q-1 31 0 64.5t-5.5 66t-18 59t-39 42.5t-66.5 16q-20 0 -37 -5.5t-29.5 -12.5t-22 -21.5t-16 -25t-11 -32t-7 -32.5t-3.5 -36t-1.5 -34.5t-0.5 -35.5v-31zM603 163q-61 -180 -262 -180q-132 0 -206.5 85.5t-74.5 228.5q0 136 70 225t208 89 q128 0 203.5 -83.5t75.5 -225.5q0 -9 -8 -9l-99 1h-282q-18 0 -18 -18q0 -50 1 -71q8 -196 148 -196q83 0 138 43.5t82 120.5q3 8 11 6l10 -3q7 -2 3 -13zM152 739h391q8 0 8 -6v-36q0 -7 -8 -7h-391q-7 0 -7 7v36q0 6 7 6z" />
<glyph unicode="&#x116;" horiz-adv-x="741" d="M60 805q67 -1 146 -1h368q23 0 75 1q9 0 9 -9q-1 -57 -1 -67q0 -16 1 -71q0 -10 -10 -10h-12q-10 0 -10 11q0 64 -20 90.5t-66 26.5h-230q-18 0 -18 -18v-278h178q48 0 63.5 22.5t15.5 76.5q0 9 10 9h12q9 0 9 -10q-1 -86 -1 -112q0 -27 1 -113q0 -9 -9 -9h-12 q-10 0 -10 10q0 50 -14.5 74t-61.5 24h-163q-18 0 -18 -18v-387q0 -19 18 -19h248q84 0 91 134q1 17 1 61q0 9 10 9h12q9 0 9 -9q0 -28 -0.5 -45.5t0 -22.5t0 -14.5t-0.5 -26.5q0 -21 1 -106q0 -9 -9 -9q-27 1 -48 1h-418q-59 0 -146 -1q-10 0 -10 9v13q0 10 10 10 q30 -1 59 -1q18 0 18 18v708q0 18 -18 18q-29 0 -59 -1q-10 0 -10 10v12q0 10 10 10zM322 932q0 24 17 41.5t41 17.5t41.5 -17.5t17.5 -41.5t-17.5 -41t-41.5 -17t-41 17t-17 41z" />
<glyph unicode="&#x117;" horiz-adv-x="677" d="M210 319h239q18 0 18 18q-1 31 0 64.5t-5.5 66t-18 59t-39 42.5t-66.5 16q-20 0 -37 -5.5t-29.5 -12.5t-22 -21.5t-16 -25t-11 -32t-7 -32.5t-3.5 -36t-1.5 -34.5t-0.5 -35.5v-31zM603 163q-61 -180 -262 -180q-132 0 -206.5 85.5t-74.5 228.5q0 136 70 225t208 89 q128 0 203.5 -83.5t75.5 -225.5q0 -9 -8 -9l-99 1h-282q-18 0 -18 -18q0 -50 1 -71q8 -196 148 -196q83 0 138 43.5t82 120.5q3 8 11 6l10 -3q7 -2 3 -13zM290 722q0 24 17 41.5t41 17.5t41.5 -17.5t17.5 -41.5t-17.5 -41t-41.5 -17t-41 17t-17 41z" />
<glyph unicode="&#x118;" horiz-adv-x="741" d="M60 805q67 -1 146 -1h368q23 0 75 1q9 0 9 -9q-1 -57 -1 -67q0 -16 1 -71q0 -10 -10 -10h-12q-10 0 -10 11q0 64 -20 90.5t-66 26.5h-230q-18 0 -18 -18v-278h178q48 0 63.5 22.5t15.5 76.5q0 9 10 9h12q9 0 9 -10q-1 -86 -1 -112q0 -27 1 -113q0 -9 -9 -9h-12 q-10 0 -10 10q0 50 -14.5 74t-61.5 24h-163q-18 0 -18 -18v-387q0 -19 18 -19h248q84 0 91 134q1 17 1 61q0 9 10 9h12q9 0 9 -9q0 -28 -0.5 -45.5t0 -22.5t0 -14.5t-0.5 -26.5q0 -21 1 -106q0 -9 -9 -9q-27 1 -48 1h-199q-22 -44 -22 -75q0 -32 27 -52t62 -20t76 20 q6 3 12 -2l5 -4q8 -5 0 -11q-70 -56 -138 -56q-43 0 -75.5 24t-32.5 66q0 53 65 110h-198q-59 0 -146 -1q-10 0 -10 9v13q0 10 10 10q30 -1 59 -1q18 0 18 18v708q0 18 -18 18q-29 0 -59 -1q-10 0 -10 10v12q0 10 10 10z" />
<glyph unicode="&#x119;" horiz-adv-x="677" d="M603 163q-44 -131 -164 -166q-20 -42 -20 -72q0 -32 27 -52t62 -20t76 20q6 3 12 -2l5 -4q8 -5 0 -11q-70 -56 -138 -56q-43 0 -75.5 24t-32.5 66q0 49 53 99q-32 -6 -67 -6q-132 0 -206.5 85.5t-74.5 228.5q0 136 70 225t208 89q128 0 203.5 -83.5t75.5 -225.5 q0 -9 -8 -9l-99 1h-282q-18 0 -18 -18q0 -50 1 -71q8 -196 148 -196q83 0 138 43.5t82 120.5q3 8 11 6l10 -3q7 -2 3 -13zM210 319h239q18 0 18 18q-1 31 0 64.5t-5.5 66t-18 59t-39 42.5t-66.5 16q-20 0 -37 -5.5t-29.5 -12.5t-22 -21.5t-16 -25t-11 -32t-7 -32.5t-3.5 -36 t-1.5 -34.5t-0.5 -35.5v-31z" />
<glyph unicode="&#x11a;" horiz-adv-x="741" d="M60 805q67 -1 146 -1h368q23 0 75 1q9 0 9 -9q-1 -57 -1 -67q0 -16 1 -71q0 -10 -10 -10h-12q-10 0 -10 11q0 64 -20 90.5t-66 26.5h-230q-18 0 -18 -18v-278h178q48 0 63.5 22.5t15.5 76.5q0 9 10 9h12q9 0 9 -10q-1 -86 -1 -112q0 -27 1 -113q0 -9 -9 -9h-12 q-10 0 -10 10q0 50 -14.5 74t-61.5 24h-163q-18 0 -18 -18v-387q0 -19 18 -19h248q84 0 91 134q1 17 1 61q0 9 10 9h12q9 0 9 -9q0 -28 -0.5 -45.5t0 -22.5t0 -14.5t-0.5 -26.5q0 -21 1 -106q0 -9 -9 -9q-27 1 -48 1h-418q-59 0 -146 -1q-10 0 -10 9v13q0 10 10 10 q30 -1 59 -1q18 0 18 18v708q0 18 -18 18q-29 0 -59 -1q-10 0 -10 10v12q0 10 10 10zM389 867q-10 0 -23 -0.5t-17 -0.5q-8 0 -12 8l-111 174q-3 8 7 8h12q7 0 13 -6l132 -116l132 116q6 6 13 6h12q10 0 7 -8l-111 -174q-5 -8 -12 -8q-3 0 -14.5 0.5t-27.5 0.5z" />
<glyph unicode="&#x11b;" horiz-adv-x="677" d="M210 319h239q18 0 18 18q-1 31 0 64.5t-5.5 66t-18 59t-39 42.5t-66.5 16q-20 0 -37 -5.5t-29.5 -12.5t-22 -21.5t-16 -25t-11 -32t-7 -32.5t-3.5 -36t-1.5 -34.5t-0.5 -35.5v-31zM603 163q-61 -180 -262 -180q-132 0 -206.5 85.5t-74.5 228.5q0 136 70 225t208 89 q128 0 203.5 -83.5t75.5 -225.5q0 -9 -8 -9l-99 1h-282q-18 0 -18 -18q0 -50 1 -71q8 -196 148 -196q83 0 138 43.5t82 120.5q3 8 11 6l10 -3q7 -2 3 -13zM347 657q-10 0 -23 -0.5t-17 -0.5q-8 0 -12 8l-111 174q-3 8 7 8h12q7 0 13 -6l132 -116l132 116q6 6 13 6h12 q10 0 7 -8l-111 -174q-5 -8 -12 -8q-3 0 -14.5 0.5t-27.5 0.5z" />
<glyph unicode="&#x11c;" horiz-adv-x="839" d="M444 -17q-182 0 -278 113t-96 306t96.5 306t278.5 113q113 0 186 -52q15 -13 30.5 -12t15.5 22v15q0 10 10 10h12q10 0 10 -10q-1 -99 -1 -138t1 -137q0 -10 -10 -10h-12q-10 0 -10 10q0 131 -57.5 202.5t-175.5 71.5q-80 0 -123 -32t-64 -116.5t-21 -242.5t21 -242.5 t64.5 -116.5t123.5 -32q71 0 102 14q21 10 21 31v300q0 18 -18 18q-27 0 -58 -1q-10 0 -10 10v12q0 10 10 10q85 -1 152 -1t155 1q10 0 10 -10v-12q0 -10 -10 -10q-33 1 -58 1q-18 0 -18 -18v-266q-110 -107 -279 -107zM448 1055q10 0 24 0.5t18 0.5q7 0 12 -8l111 -174 q3 -8 -7 -8h-11q-8 0 -14 6l-132 116l-133 -116q-6 -6 -13 -6h-11q-10 0 -7 8l111 174q4 8 12 8q3 0 13.5 -0.5t26.5 -0.5z" />
<glyph unicode="&#x11d;" horiz-adv-x="660" d="M77 391q0 110 61 165t168 55q87 0 146 -38q41 54 104 57q31 1 57.5 -16.5t26.5 -49.5q0 -25 -17.5 -43t-43.5 -18q-42 1 -52 37t22 65q-45 -7 -77 -48q64 -56 64 -166t-61.5 -165t-167.5 -55q-6 0 -27 0.5t-36.5 0.5t-38 -1t-38.5 -5t-31 -11t-23 -19t-8 -28 q0 -42 56 -42h146q43 0 85 -6t90 -21.5t77.5 -49.5t29.5 -83q0 -102 -124 -152q-91 -37 -217 -37q-30 0 -60 3.5t-66.5 13t-59 32t-22.5 54.5q0 39 33.5 75t93.5 53q-49 16 -75.5 53.5t-26.5 80.5q0 50 34 77.5t91 33.5q-113 49 -113 198zM455 -223q93 41 93 91 q0 26 -32 40.5t-73 14.5q-20 0 -57.5 0.5t-55.5 0.5q-53 0 -123 14q-42 -15 -63.5 -40.5t-19.5 -51.5t16.5 -49.5t44.5 -38.5t65 -15q127 0 205 34zM219 390v-8q0 -39 0.5 -57t3 -45t7.5 -38t14.5 -24t24.5 -17.5t37 -4.5t37.5 4.5t25 18.5t15 25t7.5 40t2.5 46.5t0.5 59.5 t-0.5 60t-2.5 46.5t-7.5 40t-15 25.5t-25 18.5t-37.5 4.5t-37.5 -4.5t-25 -19t-14.5 -25t-7 -40.5t-2.5 -46t-0.5 -60zM319 845q10 0 24 0.5t18 0.5q7 0 12 -8l111 -174q3 -8 -7 -8h-11q-8 0 -14 6l-132 116l-133 -116q-6 -6 -13 -6h-11q-10 0 -7 8l111 174q4 8 12 8 q3 0 13.5 -0.5t26.5 -0.5z" />
<glyph unicode="&#x11e;" horiz-adv-x="839" d="M444 -17q-182 0 -278 113t-96 306t96.5 306t278.5 113q113 0 186 -52q15 -13 30.5 -12t15.5 22v15q0 10 10 10h12q10 0 10 -10q-1 -99 -1 -138t1 -137q0 -10 -10 -10h-12q-10 0 -10 10q0 131 -57.5 202.5t-175.5 71.5q-80 0 -123 -32t-64 -116.5t-21 -242.5t21 -242.5 t64.5 -116.5t123.5 -32q71 0 102 14q21 10 21 31v300q0 18 -18 18q-27 0 -58 -1q-10 0 -10 10v12q0 10 10 10q85 -1 152 -1t155 1q10 0 10 -10v-12q0 -10 -10 -10q-33 1 -58 1q-18 0 -18 -18v-266q-110 -107 -279 -107zM450 857q-70 0 -116.5 36.5t-54.5 97.5q-1 10 8 10h8 q7 0 8 -4q33 -66 147 -66q112 0 145 66q1 4 8 4h8q9 0 8 -10q-7 -61 -55 -97.5t-114 -36.5z" />
<glyph unicode="&#x11f;" horiz-adv-x="660" d="M77 391q0 110 61 165t168 55q87 0 146 -38q41 54 104 57q31 1 57.5 -16.5t26.5 -49.5q0 -25 -17.5 -43t-43.5 -18q-42 1 -52 37t22 65q-45 -7 -77 -48q64 -56 64 -166t-61.5 -165t-167.5 -55q-6 0 -27 0.5t-36.5 0.5t-38 -1t-38.5 -5t-31 -11t-23 -19t-8 -28 q0 -42 56 -42h146q43 0 85 -6t90 -21.5t77.5 -49.5t29.5 -83q0 -102 -124 -152q-91 -37 -217 -37q-30 0 -60 3.5t-66.5 13t-59 32t-22.5 54.5q0 39 33.5 75t93.5 53q-49 16 -75.5 53.5t-26.5 80.5q0 50 34 77.5t91 33.5q-113 49 -113 198zM455 -223q93 41 93 91 q0 26 -32 40.5t-73 14.5q-20 0 -57.5 0.5t-55.5 0.5q-53 0 -123 14q-42 -15 -63.5 -40.5t-19.5 -51.5t16.5 -49.5t44.5 -38.5t65 -15q127 0 205 34zM219 390v-8q0 -39 0.5 -57t3 -45t7.5 -38t14.5 -24t24.5 -17.5t37 -4.5t37.5 4.5t25 18.5t15 25t7.5 40t2.5 46.5t0.5 59.5 t-0.5 60t-2.5 46.5t-7.5 40t-15 25.5t-25 18.5t-37.5 4.5t-37.5 -4.5t-25 -19t-14.5 -25t-7 -40.5t-2.5 -46t-0.5 -60zM331 647q-70 0 -116.5 36.5t-54.5 97.5q-1 10 8 10h8q7 0 8 -4q33 -66 147 -66q112 0 145 66q1 4 8 4h8q9 0 8 -10q-7 -61 -55 -97.5t-114 -36.5z" />
<glyph unicode="&#x120;" horiz-adv-x="839" d="M444 -17q-182 0 -278 113t-96 306t96.5 306t278.5 113q113 0 186 -52q15 -13 30.5 -12t15.5 22v15q0 10 10 10h12q10 0 10 -10q-1 -99 -1 -138t1 -137q0 -10 -10 -10h-12q-10 0 -10 10q0 131 -57.5 202.5t-175.5 71.5q-80 0 -123 -32t-64 -116.5t-21 -242.5t21 -242.5 t64.5 -116.5t123.5 -32q71 0 102 14q21 10 21 31v300q0 18 -18 18q-27 0 -58 -1q-10 0 -10 10v12q0 10 10 10q85 -1 152 -1t155 1q10 0 10 -10v-12q0 -10 -10 -10q-33 1 -58 1q-18 0 -18 -18v-266q-110 -107 -279 -107zM391 932q0 24 17 41.5t41 17.5t41.5 -17.5t17.5 -41.5 t-17.5 -41t-41.5 -17t-41 17t-17 41z" />
<glyph unicode="&#x121;" horiz-adv-x="660" d="M77 391q0 110 61 165t168 55q87 0 146 -38q41 54 104 57q31 1 57.5 -16.5t26.5 -49.5q0 -25 -17.5 -43t-43.5 -18q-42 1 -52 37t22 65q-45 -7 -77 -48q64 -56 64 -166t-61.5 -165t-167.5 -55q-6 0 -27 0.5t-36.5 0.5t-38 -1t-38.5 -5t-31 -11t-23 -19t-8 -28 q0 -42 56 -42h146q43 0 85 -6t90 -21.5t77.5 -49.5t29.5 -83q0 -102 -124 -152q-91 -37 -217 -37q-30 0 -60 3.5t-66.5 13t-59 32t-22.5 54.5q0 39 33.5 75t93.5 53q-49 16 -75.5 53.5t-26.5 80.5q0 50 34 77.5t91 33.5q-113 49 -113 198zM455 -223q93 41 93 91 q0 26 -32 40.5t-73 14.5q-20 0 -57.5 0.5t-55.5 0.5q-53 0 -123 14q-42 -15 -63.5 -40.5t-19.5 -51.5t16.5 -49.5t44.5 -38.5t65 -15q127 0 205 34zM219 390v-8q0 -39 0.5 -57t3 -45t7.5 -38t14.5 -24t24.5 -17.5t37 -4.5t37.5 4.5t25 18.5t15 25t7.5 40t2.5 46.5t0.5 59.5 t-0.5 60t-2.5 46.5t-7.5 40t-15 25.5t-25 18.5t-37.5 4.5t-37.5 -4.5t-25 -19t-14.5 -25t-7 -40.5t-2.5 -46t-0.5 -60zM251 722q0 24 17 41.5t41 17.5t41.5 -17.5t17.5 -41.5t-17.5 -41t-41.5 -17t-41 17t-17 41z" />
<glyph unicode="&#x122;" horiz-adv-x="839" d="M387 -236q37 29 57 67q10 21 -12 21q-23 0 -37.5 14.5t-14.5 36.5q0 23 15 37.5t37 14.5q27 0 41.5 -19.5t14.5 -45.5q0 -83 -82 -146q-7 -3 -11 1l-8 11q-4 4 0 8zM444 -17q-182 0 -278 113t-96 306t96.5 306t278.5 113q113 0 186 -52q15 -13 30.5 -12t15.5 22v15 q0 10 10 10h12q10 0 10 -10q-1 -99 -1 -138t1 -137q0 -10 -10 -10h-12q-10 0 -10 10q0 131 -57.5 202.5t-175.5 71.5q-80 0 -123 -32t-64 -116.5t-21 -242.5t21 -242.5t64.5 -116.5t123.5 -32q71 0 102 14q21 10 21 31v300q0 18 -18 18q-27 0 -58 -1q-10 0 -10 10v12 q0 10 10 10q85 -1 152 -1t155 1q10 0 10 -10v-12q0 -10 -10 -10q-33 1 -58 1q-18 0 -18 -18v-266q-110 -107 -279 -107z" />
<glyph unicode="&#x123;" horiz-adv-x="660" d="M375 921q-37 -29 -57 -67q-10 -21 12 -21q23 0 37.5 -14.5t14.5 -36.5t-15 -37t-37 -15q-27 0 -41.5 19.5t-14.5 45.5q0 83 82 146q7 3 11 -1l8 -11q4 -4 0 -8zM77 391q0 110 61 165t168 55q87 0 146 -38q41 54 104 57q31 1 57.5 -16.5t26.5 -49.5q0 -25 -17.5 -43 t-43.5 -18q-42 1 -52 37t22 65q-45 -7 -77 -48q64 -56 64 -166t-61.5 -165t-167.5 -55q-6 0 -27 0.5t-36.5 0.5t-38 -1t-38.5 -5t-31 -11t-23 -19t-8 -28q0 -42 56 -42h146q43 0 85 -6t90 -21.5t77.5 -49.5t29.5 -83q0 -102 -124 -152q-91 -37 -217 -37q-30 0 -60 3.5 t-66.5 13t-59 32t-22.5 54.5q0 39 33.5 75t93.5 53q-49 16 -75.5 53.5t-26.5 80.5q0 50 34 77.5t91 33.5q-113 49 -113 198zM455 -223q93 41 93 91q0 26 -32 40.5t-73 14.5q-20 0 -57.5 0.5t-55.5 0.5q-53 0 -123 14q-42 -15 -63.5 -40.5t-19.5 -51.5t16.5 -49.5t44.5 -38.5 t65 -15q127 0 205 34zM219 390v-8q0 -39 0.5 -57t3 -45t7.5 -38t14.5 -24t24.5 -17.5t37 -4.5t37.5 4.5t25 18.5t15 25t7.5 40t2.5 46.5t0.5 59.5t-0.5 60t-2.5 46.5t-7.5 40t-15 25.5t-25 18.5t-37.5 4.5t-37.5 -4.5t-25 -19t-14.5 -25t-7 -40.5t-2.5 -46t-0.5 -60z" />
<glyph unicode="&#x124;" horiz-adv-x="920" d="M553 -1q-10 0 -10 9v13q0 10 10 10q32 -1 58 -1q18 0 18 18v413h-319q-18 0 -18 -18v-395q0 -18 18 -18q24 0 58 1q10 0 10 -10v-13q0 -9 -10 -9q-88 1 -155 1q-66 0 -153 -1q-10 0 -10 9v13q0 10 10 10q30 -1 59 -1q18 0 18 18v708q0 18 -18 18q-29 0 -59 -1 q-10 0 -10 9v13q0 10 10 10q87 -1 154 -1q66 0 154 1q10 0 10 -10v-12q0 -10 -10 -10q-29 1 -58 1q-18 0 -18 -18v-267h319q18 0 18 18v249q0 18 -18 18q-29 0 -58 -1q-10 0 -10 10v12q0 10 10 10q67 -1 155 -1q65 0 152 1q10 0 10 -10v-12q0 -10 -10 -10q-29 1 -58 1 q-18 0 -18 -18v-708q0 -18 18 -18q26 0 59 1q9 0 9 -10v-13q0 -9 -9 -9q-108 1 -155 1q-66 0 -153 -1zM459 1055q10 0 24 0.5t18 0.5q7 0 12 -8l111 -174q3 -8 -7 -8h-11q-8 0 -14 6l-132 116l-133 -116q-6 -6 -13 -6h-11q-10 0 -7 8l111 174q4 8 12 8q3 0 13.5 -0.5 t26.5 -0.5z" />
<glyph unicode="&#x125;" horiz-adv-x="757" d="M451 27q22 -1 35 -1q18 0 18 18v326q0 121 -12 157q-18 57 -75 57q-58 0 -97 -50t-53 -111.5t-14 -126.5v-252q0 -18 18 -18q13 0 34 1q9 0 9 -9v-10q0 -9 -9 -9q-83 1 -128 1q-47 0 -128 -1q-9 0 -9 9v10q0 9 9 9q25 -1 44 -1q18 0 18 18v716q0 18 -18 18q-20 0 -45 -1 q-8 0 -8 10v9q0 9 8 9q67 -1 113 -1q20 0 83 1q9 0 9 -9v-336q46 151 181 151q105 0 158.5 -64.5t53.5 -176.5v-326q0 -18 18 -18q19 0 44 1q9 0 9 -9v-10q0 -9 -9 -9q-83 1 -129 1q-47 0 -128 -1q-9 0 -9 9v10q0 9 9 9zM413 1055q10 0 24 0.5t18 0.5q7 0 12 -8l111 -174 q3 -8 -7 -8h-11q-8 0 -14 6l-132 116l-133 -116q-6 -6 -13 -6h-11q-10 0 -7 8l111 174q4 8 12 8q3 0 13.5 -0.5t26.5 -0.5z" />
<glyph unicode="&#x126;" horiz-adv-x="920" d="M629 461h-319q-18 0 -18 -18v-395q0 -18 18 -18q24 0 58 1q10 0 10 -10v-13q0 -9 -10 -9q-88 1 -155 1q-66 0 -153 -1q-10 0 -10 9v13q0 10 10 10q30 -1 59 -1q18 0 18 18v533h-73q-14 0 -14 15t14 15q36 -1 73 -1v146q0 18 -18 18q-29 0 -59 -1q-10 0 -10 9v13 q0 10 10 10q87 -1 154 -1q66 0 154 1q10 0 10 -10v-12q0 -10 -10 -10q-29 1 -58 1q-18 0 -18 -18v-146h319q18 0 18 18v128q0 18 -18 18q-29 0 -58 -1q-10 0 -10 10v12q0 10 10 10q67 -1 155 -1q65 0 152 1q10 0 10 -10v-12q0 -10 -10 -10q-29 1 -58 1q-18 0 -18 -18v-146 q39 0 72 1q14 0 14 -17q-1 -13 -14 -13h-72v-533q0 -18 18 -18q26 0 59 1q9 0 9 -10v-13q0 -9 -9 -9q-108 1 -155 1q-66 0 -153 -1q-10 0 -10 9v13q0 10 10 10q32 -1 58 -1q18 0 18 18v413zM629 507v75h-319q-18 0 -18 -18v-75h319q18 0 18 18z" />
<glyph unicode="&#x127;" horiz-adv-x="757" d="M451 27q22 -1 35 -1q18 0 18 18v326q0 121 -12 157q-18 57 -75 57q-58 0 -97 -50t-53 -111.5t-14 -126.5v-252q0 -18 18 -18q13 0 34 1q9 0 9 -9v-10q0 -9 -9 -9q-83 1 -128 1q-47 0 -128 -1q-9 0 -9 9v10q0 9 9 9q25 -1 44 -1q18 0 18 18v625h-57q-14 0 -14 14v1 q0 14 14 14q16 -1 57 -1v63q0 18 -18 18q-20 0 -45 -1q-8 0 -8 10v9q0 9 8 9q67 -1 113 -1q20 0 83 1q9 0 9 -9v-100q105 0 155 1q12 0 14 -14q0 -15 -14 -15q-88 2 -155 2v-210q46 151 181 151q105 0 158.5 -64.5t53.5 -176.5v-326q0 -18 18 -18q19 0 44 1q9 0 9 -9v-10 q0 -9 -9 -9q-83 1 -129 1q-47 0 -128 -1q-9 0 -9 9v10q0 9 9 9z" />
<glyph unicode="&#x128;" horiz-adv-x="436" d="M60 -1q-10 0 -10 9v13q0 10 10 10q30 -1 59 -1q18 0 18 18v708q0 18 -18 18q-29 0 -59 -1q-10 0 -10 10v12q0 10 10 10q87 -1 155 -1q66 0 154 1q10 0 10 -10v-12q0 -10 -10 -10q-30 1 -59 1q-18 0 -18 -18v-708q0 -18 18 -18q32 0 66 1q10 0 10 -10v-13q0 -9 -10 -9 q-88 1 -161 1q-68 0 -155 -1zM391 986q-3 -44 -29 -76q-25 -32 -72 -32q-30 0 -94 31q-54 26 -77 26q-19 0 -32 -15.5t-16 -36.5q-1 -7 -8 -7h-9q-5 0 -7 1.5t-1 5.5q5 48 29 78q26 32 72 32q34 0 96 -31q52 -25 75 -25q41 0 48 50q0 6 8 6h9q8 0 8 -7z" />
<glyph unicode="&#x129;" horiz-adv-x="404" d="M69 27q25 -1 44 -1q18 0 18 18v506q0 18 -18 18q-19 0 -44 -1q-9 0 -9 9v10q0 9 9 9q66 -1 105 -1q9 0 90 1q9 0 9 -9v-542q0 -18 18 -18q19 0 44 1q9 0 9 -10v-10q0 -8 -9 -8q-70 1 -138 1q-47 0 -128 -1q-9 0 -9 9v10q0 9 9 9zM375 776q-3 -44 -29 -76q-25 -32 -72 -32 q-30 0 -94 31q-54 26 -77 26q-19 0 -32 -15.5t-16 -36.5q-1 -7 -8 -7h-9q-5 0 -7 1.5t-1 5.5q5 48 29 78q26 32 72 32q34 0 96 -31q52 -25 75 -25q41 0 48 50q0 6 8 6h9q8 0 8 -7z" />
<glyph unicode="&#x12a;" horiz-adv-x="436" d="M60 -1q-10 0 -10 9v13q0 10 10 10q30 -1 59 -1q18 0 18 18v708q0 18 -18 18q-29 0 -59 -1q-10 0 -10 10v12q0 10 10 10q87 -1 155 -1q66 0 154 1q10 0 10 -10v-12q0 -10 -10 -10q-30 1 -59 1q-18 0 -18 -18v-708q0 -18 18 -18q32 0 66 1q10 0 10 -10v-13q0 -9 -10 -9 q-88 1 -161 1q-68 0 -155 -1zM22 949h391q8 0 8 -6v-36q0 -7 -8 -7h-391q-7 0 -7 7v36q0 6 7 6z" />
<glyph unicode="&#x12b;" horiz-adv-x="404" d="M69 27q25 -1 44 -1q18 0 18 18v506q0 18 -18 18q-19 0 -44 -1q-9 0 -9 9v10q0 9 9 9q66 -1 105 -1q9 0 90 1q9 0 9 -9v-542q0 -18 18 -18q19 0 44 1q9 0 9 -10v-10q0 -8 -9 -8q-70 1 -138 1q-47 0 -128 -1q-9 0 -9 9v10q0 9 9 9zM6 739h391q8 0 8 -6v-36q0 -7 -8 -7h-391 q-7 0 -7 7v36q0 6 7 6z" />
<glyph unicode="&#x12e;" horiz-adv-x="436" d="M60 -1q-10 0 -10 9v13q0 10 10 10q30 -1 59 -1q18 0 18 18v708q0 18 -18 18q-29 0 -59 -1q-10 0 -10 10v12q0 10 10 10q87 -1 155 -1q66 0 154 1q10 0 10 -10v-12q0 -10 -10 -10q-30 1 -59 1q-18 0 -18 -18v-708q0 -18 18 -18q32 0 66 1q10 0 10 -10v-13q0 -9 -10 -9 q-85 1 -156 1q-22 -44 -22 -75q0 -32 27 -52t62 -20t76 20q6 3 12 -2l5 -4q8 -5 0 -11q-70 -56 -138 -56q-43 0 -75.5 24t-32.5 66q0 53 65 110q-62 0 -139 -1z" />
<glyph unicode="&#x12f;" horiz-adv-x="364" d="M49 27q25 -1 44 -1q18 0 18 18v506q0 18 -18 18q-19 0 -44 -1q-9 0 -9 10v9q0 9 9 9q66 -1 105 -1q9 0 90 1q9 0 9 -9v-542q0 -18 18 -18q19 0 44 1q9 0 9 -10v-10q0 -8 -9 -8q-70 1 -138 1h-35q-22 -44 -22 -75q0 -32 27 -52t62 -20t76 20q6 3 12 -2l5 -4q8 -5 0 -11 q-70 -56 -138 -56q-43 0 -75.5 24t-32.5 66q0 53 65 110q-35 0 -72 -1q-9 0 -9 9v10q0 9 9 9zM181 631q-34 0 -58 24t-24 58q0 33 24 57t58 24q33 0 57.5 -24t24.5 -57q0 -34 -24.5 -58t-57.5 -24z" />
<glyph unicode="&#x130;" horiz-adv-x="436" d="M60 -1q-10 0 -10 9v13q0 10 10 10q30 -1 59 -1q18 0 18 18v708q0 18 -18 18q-29 0 -59 -1q-10 0 -10 10v12q0 10 10 10q87 -1 155 -1q66 0 154 1q10 0 10 -10v-12q0 -10 -10 -10q-30 1 -59 1q-18 0 -18 -18v-708q0 -18 18 -18q32 0 66 1q10 0 10 -10v-13q0 -9 -10 -9 q-88 1 -161 1q-68 0 -155 -1zM159 932q0 24 17 41.5t41 17.5t41.5 -17.5t17.5 -41.5t-17.5 -41t-41.5 -17t-41 17t-17 41z" />
<glyph unicode="&#x131;" horiz-adv-x="404" d="M69 27q25 -1 44 -1q18 0 18 18v506q0 18 -18 18q-19 0 -44 -1q-9 0 -9 9v10q0 9 9 9q66 -1 105 -1q9 0 90 1q9 0 9 -9v-542q0 -18 18 -18q19 0 44 1q9 0 9 -10v-10q0 -8 -9 -8q-70 1 -138 1q-47 0 -128 -1q-9 0 -9 9v10q0 9 9 9z" />
<glyph unicode="&#x134;" horiz-adv-x="575" d="M515 805q10 0 10 -10v-12q0 -10 -10 -10q-30 1 -59 1q-18 0 -18 -18v-458q0 -139 -63 -227t-181 -88q-72 0 -118 42.5t-46 110.5q0 31 19.5 55.5t51.5 24.5q28 0 44 -16t16 -46q0 -46 -52 -61q-15 -4 -17.5 -17.5t7.5 -23.5q35 -41 86 -41q41 0 66 30.5t31.5 81t6 91 t-5.5 84.5v458q0 18 -18 18q-29 0 -58 -1q-10 0 -10 10v12q0 10 10 10q45 -1 152 -1q108 0 156 1zM358 1055q10 0 24 0.5t18 0.5q7 0 12 -8l111 -174q3 -8 -7 -8h-11q-8 0 -14 6l-132 116l-133 -116q-6 -6 -13 -6h-11q-10 0 -7 8l111 174q4 8 12 8q3 0 13.5 -0.5t26.5 -0.5z " />
<glyph unicode="&#x135;" horiz-adv-x="366" d="M247 595q9 0 9 -9v-584q0 -48 -9 -94t-28 -91t-57 -72.5t-89 -27.5q-55 0 -82 33q-17 20 -23 47t3 51q17 39 62 39q23 0 41.5 -17t18.5 -44q0 -20 -11.5 -36.5t-30.5 -22.5q-12 -3 -8 -14q3 -11 23 -11q29 0 44 23t15.5 58.5t-2.5 63.5t-9 53v610q0 18 -18 18 q-19 0 -44 -1q-9 0 -9 10v9q0 9 9 9q81 -1 110 -1q17 0 85 1zM182 845q10 0 24 0.5t18 0.5q7 0 12 -8l111 -174q3 -8 -7 -8h-11q-8 0 -14 6l-132 116l-133 -116q-6 -6 -13 -6h-11q-10 0 -7 8l111 174q4 8 12 8q3 0 13.5 -0.5t26.5 -0.5z" />
<glyph unicode="&#x136;" horiz-adv-x="863" d="M363 -236q37 29 57 67q10 21 -12 21q-23 0 -37.5 14.5t-14.5 36.5q0 23 15 37.5t37 14.5q27 0 41.5 -19.5t14.5 -45.5q0 -83 -82 -146q-7 -3 -11 1l-8 11q-4 4 0 8zM823 -1q-98 1 -172 1q-97 0 -176 -1q-10 0 -10 10v12q0 10 10 10q36 -1 63 -1q9 0 13.5 6t-1.5 17 l-259 394v-399q0 -18 18 -18q27 0 58 1q10 0 10 -10v-12q0 -10 -10 -10q-107 1 -157 1q-54 0 -150 -1q-10 0 -10 10v12q0 10 10 10q31 -1 58 -1q18 0 18 18v708q0 18 -18 18q-29 0 -58 -1q-10 0 -10 10v12q0 10 10 10q87 -1 150 -1q49 0 157 1q10 0 10 -10v-13q0 -9 -10 -9 q-29 1 -58 1q-18 0 -18 -18v-309l315 304q8 7 6 15t-13 8q-28 0 -57 -1q-10 0 -10 10v12q0 10 10 10q45 -1 104 -1q34 0 92 1q10 0 10 -10v-12q0 -10 -10 -10q-26 1 -48 1q-20 0 -47 -27l-222 -215l320 -483q12 -19 24 -19q25 0 58 1q10 0 10 -10v-12q0 -10 -10 -10z" />
<glyph unicode="&#x137;" horiz-adv-x="728" d="M286 -236q37 29 57 67q11 21 -12 21t-37.5 14.5t-14.5 36.5q0 23 14.5 37.5t37.5 14.5q27 0 41.5 -19.5t14.5 -45.5q0 -83 -82 -146q-7 -3 -11 1l-8 11q-4 4 0 8zM185 0q-52 0 -137 -1q-8 0 -8 9v10q0 9 9 9q25 -1 44 -1q18 0 18 18v716q0 18 -18 18q-19 0 -44 -1 q-9 0 -9 10v9q0 9 9 9q66 -1 112 -1q25 0 82 1q9 0 9 -9v-752q0 -18 18 -18q5 0 26 1q8 0 8 -9v-10q0 -9 -9 -9q-77 1 -110 1zM373 390l245 -343q14 -21 35 -21q15 0 37 1q8 0 8 -9v-10q0 -9 -8 -9q-102 1 -142 1q-61 0 -152 -1q-9 0 -9 8v11q0 9 9 9q21 -1 32 -1 q10 0 14 8.5t-3 17.5l-182 256l228 229q11 12 9 21.5t-13 9.5q-23 0 -49 -1q-9 0 -9 10v10q0 8 9 8q63 -1 90 -1q40 0 96 1q9 0 9 -8v-10q0 -10 -9 -10q-25 1 -44 1q-18 0 -46 -26z" />
<glyph unicode="&#x138;" horiz-adv-x="728" d="M252 550v-506q0 -18 18 -18q5 0 26 1q8 0 8 -9v-10q0 -9 -9 -9q-77 1 -110 1q-52 0 -137 -1q-8 0 -8 9v10q0 9 9 9q25 -1 44 -1q18 0 18 18v506q0 18 -18 18q-19 0 -44 -1q-9 0 -9 9v10q0 9 8 9q85 -1 137 -1q33 0 110 1q9 0 9 -9v-10q0 -9 -8 -9q-21 1 -26 1 q-18 0 -18 -18zM373 390l245 -343q14 -21 35 -21q15 0 37 1q8 0 8 -9v-10q0 -9 -8 -9q-102 1 -142 1q-61 0 -152 -1q-9 0 -9 8v11q0 9 9 9q21 -1 32 -1q10 0 14 8.5t-3 17.5l-182 256l228 229q11 12 9 21.5t-13 9.5q-23 0 -49 -1q-9 0 -9 10v10q0 8 9 8q63 -1 90 -1 q40 0 96 1q9 0 9 -8v-10q0 -10 -9 -10q-25 1 -44 1q-18 0 -46 -26z" />
<glyph unicode="&#x139;" horiz-adv-x="668" d="M367 805q10 0 10 -10v-12q0 -10 -10 -10q-29 1 -58 1q-18 0 -18 -18v-710q0 -18 18 -18h206q22 0 38.5 7.5t26 23.5t15.5 30.5t8 41t2.5 40.5t0.5 42v11q0 8 10 8h12q10 0 10 -9q0 -40 -1 -109q0 -30 0.5 -60.5t0.5 -45.5q0 -9 -9 -9q-57 1 -109 1h-305q-70 0 -155 -1 q-10 0 -10 10v12q0 10 10 10q32 -1 58 -1q18 0 18 18v708q0 18 -18 18q-29 0 -58 -1q-10 0 -10 10v12q0 10 10 10q77 -1 155 -1q65 0 152 1zM360 1056q11 0 5 -8l-137 -186q-4 -6 -13 -6h-7q-10 0 -7 8l56 184q2 8 12 8q4 0 16.5 -0.5t22.5 -0.5q9 0 28.5 0.5t23.5 0.5z" />
<glyph unicode="&#x13a;" horiz-adv-x="364" d="M244 805q9 0 9 -9v-752q0 -18 18 -18q20 0 45 1q8 0 8 -8v-11q0 -9 -8 -9q-93 1 -135 1q-30 0 -132 -1q-9 0 -9 9v11q0 8 9 8q25 -1 44 -1q18 0 18 18v716q0 18 -18 18q-19 0 -44 -1q-9 0 -9 9v10q0 9 9 9q66 -1 107 -1q37 0 88 1zM290 1056q11 0 5 -8l-137 -186 q-4 -6 -13 -6h-7q-10 0 -7 8l56 184q2 8 12 8q4 0 16.5 -0.5t22.5 -0.5q9 0 28.5 0.5t23.5 0.5z" />
<glyph unicode="&#x13b;" horiz-adv-x="668" d="M338 -236q37 29 57 67q11 21 -12 21t-37.5 14.5t-14.5 36.5q0 23 14.5 37.5t37.5 14.5q27 0 41.5 -19.5t14.5 -45.5q0 -83 -82 -146q-7 -3 -11 1l-8 11q-4 4 0 8zM367 805q10 0 10 -10v-12q0 -10 -10 -10q-29 1 -58 1q-18 0 -18 -18v-710q0 -18 18 -18h206q22 0 38.5 7.5 t26 23.5t15.5 30.5t8 41t2.5 40.5t0.5 42v11q0 8 10 8h12q10 0 10 -9q0 -40 -1 -109q0 -30 0.5 -60.5t0.5 -45.5q0 -9 -9 -9q-57 1 -109 1h-305q-70 0 -155 -1q-10 0 -10 10v12q0 10 10 10q32 -1 58 -1q18 0 18 18v708q0 18 -18 18q-29 0 -58 -1q-10 0 -10 10v12q0 10 10 10 q77 -1 155 -1q65 0 152 1z" />
<glyph unicode="&#x13c;" horiz-adv-x="364" d="M122 -236q37 29 57 67q11 21 -12 21t-37.5 14.5t-14.5 36.5q0 23 14.5 37.5t37.5 14.5q27 0 41.5 -19.5t14.5 -45.5q0 -83 -82 -146q-7 -3 -11 1l-8 11q-4 4 0 8zM244 805q9 0 9 -9v-752q0 -18 18 -18q20 0 45 1q8 0 8 -8v-11q0 -9 -8 -9q-93 1 -135 1q-30 0 -132 -1 q-9 0 -9 9v11q0 8 9 8q25 -1 44 -1q18 0 18 18v716q0 18 -18 18q-19 0 -44 -1q-9 0 -9 9v10q0 9 9 9q66 -1 107 -1q37 0 88 1z" />
<glyph unicode="&#x13d;" horiz-adv-x="668" d="M367 805q10 0 10 -10v-12q0 -10 -10 -10q-29 1 -58 1q-18 0 -18 -18v-710q0 -18 18 -18h206q22 0 38.5 7.5t26 23.5t15.5 30.5t8 41t2.5 40.5t0.5 42v11q0 8 10 8h12q10 0 10 -9q0 -40 -1 -109q0 -30 0.5 -60.5t0.5 -45.5q0 -9 -9 -9q-57 1 -109 1h-305q-70 0 -155 -1 q-10 0 -10 10v12q0 10 10 10q32 -1 58 -1q18 0 18 18v708q0 18 -18 18q-29 0 -58 -1q-10 0 -10 10v12q0 10 10 10q77 -1 155 -1q65 0 152 1zM438 527q1 0 10.5 9t11 10.5t10 9t11 10.5t9 10.5t10 13t9 13t9.5 15.5q8 16 0 27t-23 9q-34 -6 -63 17.5t-29 65.5q0 36 24 60.5 t60 24.5q41 0 65 -28t24 -70q0 -67 -28.5 -115t-90.5 -102q-6 -5 -12 1l-7 7q-6 7 0 12z" />
<glyph unicode="&#x13e;" horiz-adv-x="432" d="M244 805q9 0 9 -9v-752q0 -18 18 -18q20 0 45 1q8 0 8 -8v-11q0 -9 -8 -9q-93 1 -135 1q-30 0 -132 -1q-9 0 -9 9v11q0 8 9 8q25 -1 44 -1q18 0 18 18v716q0 18 -18 18q-19 0 -44 -1q-9 0 -9 9v10q0 9 9 9q66 -1 107 -1q37 0 88 1zM349 527q1 0 10.5 9t11 10.5t10 9 t11 10.5t9 10.5t10 13t9 13t9.5 15.5q8 16 0 27t-23 9q-34 -6 -63 17.5t-29 65.5q0 36 24 60.5t60 24.5q41 0 65 -28t24 -70q0 -67 -28.5 -115t-90.5 -102q-6 -5 -12 1l-7 7q-6 7 0 12z" />
<glyph unicode="&#x141;" horiz-adv-x="707" d="M301 479v-433q0 -18 18 -18h206q22 0 38 7t25.5 23.5t15.5 30.5t8 40t2.5 39.5t0.5 42.5v13q0 8 10 8h12q10 0 10 -9q-1 -94 -1 -109q0 -21 1 -106q0 -9 -9 -9q-57 1 -88 1h-325q-70 0 -155 -1q-10 0 -10 10v12q0 10 10 10q32 -1 58 -1q18 0 18 18v340l-63 -36 q-12 -6 -18 3l-2 3q-7 13 6 19l77 42v337q0 18 -18 18q-29 0 -58 -1q-10 0 -10 10v12q0 10 10 10q67 -1 155 -1q65 0 152 1q10 0 10 -10v-12q0 -10 -10 -10q-29 1 -58 1q-18 0 -18 -18v-246q58 34 66 38q10 6 16 -3l4 -6q6 -8 -7 -15z" />
<glyph unicode="&#x142;" horiz-adv-x="405" d="M274 462v-418q0 -18 18 -18q20 0 45 1q8 0 8 -8v-11q0 -9 -8 -9q-83 1 -135 1q-60 0 -132 -1q-9 0 -9 9v11q0 8 9 8q25 -1 44 -1q18 0 18 18v336l-48 -28q-11 -7 -17 2l-4 6q-7 10 7 17l62 34v349q0 18 -18 18q-19 0 -44 -1q-9 0 -9 9v10q0 9 9 9q66 -1 107 -1q17 0 88 1 q9 0 9 -9v-305l46 26q12 7 17 -2l4 -7q5 -8 -6 -14q-1 -1 -2 -1z" />
<glyph unicode="&#x143;" horiz-adv-x="846" d="M61 805q67 -1 128 -1q23 0 64 1q3 0 8 -5l420 -554v510q0 18 -18 18q-29 0 -58 -1q-10 0 -10 10v12q0 10 10 10q58 -1 90 -1q22 0 91 1q10 0 10 -10v-12q0 -10 -10 -10q-30 1 -59 1q-18 0 -18 -18v-677q0 -30 1 -87q0 -9 -9 -9h-10q-6 0 -9 5l-517 681v-621q0 -18 18 -18 q31 0 66 1q10 0 10 -10v-12q0 -10 -10 -10q-71 1 -99 1q-23 0 -90 -1q-10 0 -10 10v12q0 10 10 10q30 -1 59 -1q18 0 18 18v708q0 18 -18 18q-29 0 -58 -1q-10 0 -10 10v12q0 10 10 10zM549 1056q11 0 5 -8l-137 -186q-4 -6 -13 -6h-7q-10 0 -7 8l56 184q2 8 12 8 q4 0 16.5 -0.5t22.5 -0.5q9 0 28.5 0.5t23.5 0.5z" />
<glyph unicode="&#x144;" horiz-adv-x="757" d="M451 27q23 -1 35 -1q18 0 18 18v326q0 121 -12 157q-18 57 -75 57q-58 0 -97 -50t-53 -111.5t-14 -126.5v-252q0 -18 18 -18q13 0 35 1q9 0 9 -8v-11q0 -9 -9 -9q-83 1 -124 1q-32 0 -133 -1q-9 0 -9 9v11q0 8 9 8q25 -1 44 -1q18 0 18 18v506q0 18 -18 18q-20 0 -45 -1 q-8 0 -8 9v10q0 9 8 9q57 -1 113 -1q20 0 83 1q9 0 9 -9v-126q46 151 181 151q105 0 158.5 -65t53.5 -176v-326q0 -18 18 -18q19 0 44 1q9 0 9 -8v-11q0 -9 -9 -9q-93 1 -130 1q-58 0 -127 -1q-9 0 -9 9v11q0 8 9 8zM544 846q11 0 5 -8l-137 -186q-4 -6 -13 -6h-7 q-10 0 -7 8l56 184q2 8 12 8q4 0 16.5 -0.5t22.5 -0.5q9 0 28.5 0.5t23.5 0.5z" />
<glyph unicode="&#x145;" horiz-adv-x="846" d="M367 -236q37 29 57 67q10 21 -12 21q-23 0 -37.5 14.5t-14.5 36.5q0 23 15 37.5t37 14.5q27 0 41.5 -19.5t14.5 -45.5q0 -83 -82 -146q-7 -3 -11 1l-8 11q-4 4 0 8zM61 805q67 -1 128 -1q23 0 64 1q3 0 8 -5l420 -554v510q0 18 -18 18q-29 0 -58 -1q-10 0 -10 10v12 q0 10 10 10q58 -1 90 -1q22 0 91 1q10 0 10 -10v-12q0 -10 -10 -10q-30 1 -59 1q-18 0 -18 -18v-677q0 -30 1 -87q0 -9 -9 -9h-10q-6 0 -9 5l-517 681v-621q0 -18 18 -18q31 0 66 1q10 0 10 -10v-12q0 -10 -10 -10q-71 1 -99 1q-23 0 -90 -1q-10 0 -10 10v12q0 10 10 10 q30 -1 59 -1q18 0 18 18v708q0 18 -18 18q-29 0 -58 -1q-10 0 -10 10v12q0 10 10 10z" />
<glyph unicode="&#x146;" horiz-adv-x="757" d="M327 -236q37 29 57 67q10 21 -12 21q-23 0 -37.5 14.5t-14.5 36.5q0 23 15 37.5t37 14.5q27 0 41.5 -19.5t14.5 -45.5q0 -83 -82 -146q-7 -3 -11 1l-8 11q-4 4 0 8zM451 27q23 -1 35 -1q18 0 18 18v326q0 121 -12 157q-18 57 -75 57q-58 0 -97 -50t-53 -111.5t-14 -126.5 v-252q0 -18 18 -18q13 0 35 1q9 0 9 -8v-11q0 -9 -9 -9q-83 1 -124 1q-32 0 -133 -1q-9 0 -9 9v11q0 8 9 8q25 -1 44 -1q18 0 18 18v506q0 18 -18 18q-20 0 -45 -1q-8 0 -8 9v10q0 9 8 9q57 -1 113 -1q20 0 83 1q9 0 9 -9v-126q46 151 181 151q105 0 158.5 -65t53.5 -176 v-326q0 -18 18 -18q19 0 44 1q9 0 9 -8v-11q0 -9 -9 -9q-93 1 -130 1q-58 0 -127 -1q-9 0 -9 9v11q0 8 9 8z" />
<glyph unicode="&#x147;" horiz-adv-x="846" d="M61 805q67 -1 128 -1q23 0 64 1q3 0 8 -5l420 -554v510q0 18 -18 18q-29 0 -58 -1q-10 0 -10 10v12q0 10 10 10q58 -1 90 -1q22 0 91 1q10 0 10 -10v-12q0 -10 -10 -10q-30 1 -59 1q-18 0 -18 -18v-677q0 -30 1 -87q0 -9 -9 -9h-10q-6 0 -9 5l-517 681v-621q0 -18 18 -18 q31 0 66 1q10 0 10 -10v-12q0 -10 -10 -10q-71 1 -99 1q-23 0 -90 -1q-10 0 -10 10v12q0 10 10 10q30 -1 59 -1q18 0 18 18v708q0 18 -18 18q-29 0 -58 -1q-10 0 -10 10v12q0 10 10 10zM432 867q-10 0 -23 -0.5t-17 -0.5q-8 0 -12 8l-111 174q-3 8 7 8h12q7 0 13 -6 l132 -116l132 116q6 6 13 6h12q10 0 7 -8l-111 -174q-5 -8 -12 -8q-3 0 -14.5 0.5t-27.5 0.5z" />
<glyph unicode="&#x148;" horiz-adv-x="757" d="M451 27q23 -1 35 -1q18 0 18 18v326q0 121 -12 157q-18 57 -75 57q-58 0 -97 -50t-53 -111.5t-14 -126.5v-252q0 -18 18 -18q13 0 35 1q9 0 9 -8v-11q0 -9 -9 -9q-83 1 -124 1q-32 0 -133 -1q-9 0 -9 9v11q0 8 9 8q25 -1 44 -1q18 0 18 18v506q0 18 -18 18q-20 0 -45 -1 q-8 0 -8 9v10q0 9 8 9q57 -1 113 -1q20 0 83 1q9 0 9 -9v-126q46 151 181 151q105 0 158.5 -65t53.5 -176v-326q0 -18 18 -18q19 0 44 1q9 0 9 -8v-11q0 -9 -9 -9q-93 1 -130 1q-58 0 -127 -1q-9 0 -9 9v11q0 8 9 8zM377 657q-10 0 -23 -0.5t-17 -0.5q-8 0 -12 8l-111 174 q-3 8 7 8h12q7 0 13 -6l132 -116l132 116q6 6 13 6h12q10 0 7 -8l-111 -174q-5 -8 -12 -8q-3 0 -14.5 0.5t-27.5 0.5z" />
<glyph unicode="&#x14a;" horiz-adv-x="846" d="M709 -2q0 -43 -6 -82t-21.5 -81t-48.5 -67t-80 -25q-49 0 -78.5 27.5t-29.5 74.5q0 27 20 48t48 21q23 0 41.5 -17t18.5 -44q0 -20 -11.5 -36.5t-30.5 -22.5q-11 -3 -8 -13t28 -10q47 0 72.5 24.5t41.5 80.5q15 50 16 114l-516 679v-621q0 -18 18 -18q31 0 66 1 q10 0 10 -10v-12q0 -10 -10 -10q-71 1 -99 1q-23 0 -90 -1q-10 0 -10 10v12q0 10 10 10q30 -1 59 -1q18 0 18 18v708q0 18 -18 18q-29 0 -58 -1q-10 0 -10 10v12q0 10 10 10q67 -1 128 -1q23 0 64 1q3 0 8 -5l420 -554v510q0 18 -18 18q-29 0 -58 -1q-10 0 -10 10v12 q0 10 10 10q58 -1 90 -1q22 0 91 1q10 0 10 -10v-12q0 -10 -10 -10q-30 1 -59 1q-18 0 -18 -18v-758z" />
<glyph unicode="&#x14b;" horiz-adv-x="757" d="M355 -154q0 28 20 47.5t48 19.5q23 0 41.5 -17t18.5 -44q0 -20 -11.5 -36.5t-30.5 -22.5q-12 -3 -8 -14q3 -11 23 -11q29 0 44 23t15.5 58.5t-2.5 63.5t-9 53v404q0 121 -12 157q-18 57 -75 57q-58 0 -97 -50t-53 -111.5t-14 -126.5v-252q0 -18 18 -18q13 0 35 1 q9 0 9 -8v-11q0 -9 -9 -9q-83 1 -124 1q-32 0 -133 -1q-9 0 -9 9v11q0 8 9 8q25 -1 44 -1q18 0 18 18v506q0 18 -18 18q-20 0 -45 -1q-8 0 -8 9v10q0 9 8 9q57 -1 113 -1q20 0 83 1q9 0 9 -9v-126q46 151 181 151q105 0 158.5 -65t53.5 -176v-342q0 -48 -9 -94t-28 -91 t-57 -72.5t-89 -27.5q-47 0 -77.5 27.5t-30.5 75.5z" />
<glyph unicode="&#x14c;" horiz-adv-x="880" d="M70 402q0 193 95.5 306t274.5 113t274.5 -113t95.5 -306t-95.5 -306t-274.5 -113t-274.5 113t-95.5 306zM236 402q0 -159 20 -243t62 -116t122 -32t122 32t62 116t20 243t-20 243t-62 116t-122 32t-122 -32t-62 -116t-20 -243zM244 949h391q8 0 8 -6v-36q0 -7 -8 -7h-391 q-7 0 -7 7v36q0 6 7 6z" />
<glyph unicode="&#x14d;" horiz-adv-x="700" d="M60 297q0 144 72.5 229t217.5 85t217.5 -85t72.5 -229t-72.5 -229t-217.5 -85t-217.5 85t-72.5 229zM210 297q0 -69 2 -107.5t9 -78.5t22 -59t41 -31t66 -12t66 12t41 31t22 59t9 78.5t2 107.5t-2 107.5t-9 78.5t-22 59t-41 31t-66 12t-66 -12t-41 -31t-22 -59t-9 -78.5 t-2 -107.5zM154 739h391q8 0 8 -6v-36q0 -7 -8 -7h-391q-7 0 -7 7v36q0 6 7 6z" />
<glyph unicode="&#x150;" horiz-adv-x="880" d="M70 402q0 193 95.5 306t274.5 113t274.5 -113t95.5 -306t-95.5 -306t-274.5 -113t-274.5 113t-95.5 306zM236 402q0 -159 20 -243t62 -116t122 -32t122 32t62 116t20 243t-20 243t-62 116t-122 32t-122 -32t-62 -116t-20 -243zM486 1056q11 0 5 -8l-137 -186 q-4 -6 -13 -6h-7q-10 0 -7 8l56 184q2 8 12 8q4 0 16.5 -0.5t22.5 -0.5q9 0 28.5 0.5t23.5 0.5zM685 1056q11 0 5 -8l-137 -186q-4 -6 -13 -6h-7q-10 0 -7 8l56 184q2 8 12 8q4 0 16.5 -0.5t22.5 -0.5q9 0 28.5 0.5t23.5 0.5z" />
<glyph unicode="&#x151;" horiz-adv-x="700" d="M60 297q0 144 72.5 229t217.5 85t217.5 -85t72.5 -229t-72.5 -229t-217.5 -85t-217.5 85t-72.5 229zM210 297q0 -69 2 -107.5t9 -78.5t22 -59t41 -31t66 -12t66 12t41 31t22 59t9 78.5t2 107.5t-2 107.5t-9 78.5t-22 59t-41 31t-66 12t-66 -12t-41 -31t-22 -59t-9 -78.5 t-2 -107.5zM386 846q11 0 5 -8l-137 -186q-4 -6 -13 -6h-7q-10 0 -7 8l56 184q2 8 12 8q4 0 16.5 -0.5t22.5 -0.5q9 0 28.5 0.5t23.5 0.5zM585 846q11 0 5 -8l-137 -186q-4 -6 -13 -6h-7q-10 0 -7 8l56 184q2 8 12 8q4 0 16.5 -0.5t22.5 -0.5q9 0 28.5 0.5t23.5 0.5z" />
<glyph unicode="&#x152;" horiz-adv-x="1239" d="M226 402q0 -159 20 -243t62 -116t122 -32t122 32t62 116t20 243q-2 160 -22.5 244.5t-62 115.5t-119.5 31q-80 0 -122 -32t-62 -116t-20 -243zM1122 0h-418q-13 0 -60 -1q-10 0 -10 9v56q-75 -81 -204 -81q-179 0 -274.5 113t-95.5 306t95.5 306t274.5 113q129 0 204 -82 v56q0 10 10 10q47 -1 60 -1h368q23 0 75 1q9 0 9 -9q-1 -57 -1 -67q0 -16 1 -71q0 -10 -10 -10h-12q-10 0 -10 11q0 64 -20 90.5t-66 26.5h-230q-18 0 -18 -18v-278h178q48 0 63.5 22.5t15.5 76.5q0 9 10 9h12q9 0 9 -10q-1 -86 -1 -112q0 -27 1 -113q0 -9 -9 -9h-12 q-10 0 -10 10q0 50 -14.5 74t-61.5 24h-163q-18 0 -18 -18v-387q0 -19 18 -19h248q84 0 91 134q1 17 1 61q0 9 10 9h12q9 0 9 -9q-1 -42 -1 -63.5v-45.5q0 -21 1 -106q0 -9 -9 -9q-27 1 -48 1z" />
<glyph unicode="&#x153;" horiz-adv-x="1107" d="M1034 165q-31 -91 -100 -138q-66 -44 -163 -44q-139 0 -205 97q-67 -97 -216 -97q-145 0 -217.5 85t-72.5 229t72.5 229t217.5 85q148 0 215 -96q65 96 203 96q128 0 203.5 -83.5t75.5 -225.5q0 -9 -8 -9l-59 1h-322q-18 0 -18 -18q0 -50 1 -71q8 -194 148 -196 q74 -2 131 39q57 40 89 125q3 7 10 6l11 -3q7 -2 4 -11zM210 297q0 -60 1 -91.5t5 -70.5t12.5 -57.5t24 -37t39.5 -25t58 -6.5t58 6.5t39.5 25t24 37t12.5 57.5t5 70.5t1 91.5t-1 91.5t-5 70.5t-12.5 57.5t-24 37t-39.5 25t-58 6.5t-58 -6.5t-39.5 -25t-24 -37t-12.5 -57.5 t-5 -70.5t-1 -91.5zM640 319h239q18 0 18 18q-1 31 0 64.5t-5.5 66t-18 59t-39 42.5t-66.5 16q-27 0 -48 -8t-34.5 -19t-23 -31.5t-14 -37t-6.5 -43.5t-2.5 -43t0 -44.5t0.5 -39.5z" />
<glyph unicode="&#x154;" horiz-adv-x="802" d="M517 1056q11 0 5 -8l-137 -186q-4 -6 -13 -6h-7q-10 0 -7 8l56 184q2 8 12 8q4 0 16.5 -0.5t22.5 -0.5q9 0 28.5 0.5t23.5 0.5zM471 396h-162q-18 0 -18 -18v-330q0 -18 18 -18q27 0 58 1q10 0 10 -10v-12q0 -10 -10 -10q-107 1 -151 1q-49 0 -156 -1q-10 0 -10 10v12 q0 10 10 10q31 -1 58 -1q18 0 18 18v710q0 16 -19 16q-28 0 -57 -1q-10 0 -10 9v13q0 10 10 10q47 -1 133 -1h244q114 0 186.5 -49t72.5 -156q0 -70 -36 -119t-103 -70q150 -33 150 -218v-144q0 -18 18 -18q27 0 58 1q10 0 10 -10v-12q0 -10 -10 -10q-25 1 -60 1h-32 q-33 0 -58.5 13t-41 37t-26 50t-15 61.5t-6 62t-1.5 59.5v23q0 53 -15 71.5t-57 18.5zM291 758v-334h126q37 0 61 14t35 41.5t15 55t4 67.5q0 37 -3.5 62.5t-14 54t-35.5 43t-63 14.5h-107q-18 0 -18 -18z" />
<glyph unicode="&#x155;" horiz-adv-x="512" d="M49 595q54 -1 103 -1q35 0 90 1q11 0 11 -9v-99q14 50 47 87t80 37q57 0 86 -40q16 -25 16 -54q0 -30 -18 -51t-49 -21q-26 0 -42.5 17.5t-16.5 43.5q0 29 26 50q11 9 8 20q-6 13 -26 9q-34 -8 -57.5 -40.5t-34.5 -78.5t-15 -85.5t-4 -79.5v-257q0 -18 18 -18q19 0 44 1 q8 0 8 -8v-11q0 -9 -8 -9q-83 1 -138 1q-47 0 -128 -1q-9 0 -9 9v11q0 8 9 8q25 -1 44 -1q18 0 18 18v506q0 18 -18 18q-19 0 -44 -1q-9 0 -9 9v10q0 9 9 9zM332 846q11 0 5 -8l-137 -186q-4 -6 -13 -6h-7q-10 0 -7 8l56 184q2 8 12 8q4 0 16.5 -0.5t22.5 -0.5q9 0 28.5 0.5 t23.5 0.5z" />
<glyph unicode="&#x156;" horiz-adv-x="802" d="M388 -236q37 29 57 67q11 21 -12 21t-37.5 14.5t-14.5 36.5q0 23 14.5 37.5t37.5 14.5q27 0 41.5 -19.5t14.5 -45.5q0 -83 -82 -146q-7 -3 -11 1l-8 11q-4 4 0 8zM471 396h-162q-18 0 -18 -18v-330q0 -18 18 -18q27 0 58 1q10 0 10 -10v-12q0 -10 -10 -10q-107 1 -151 1 q-49 0 -156 -1q-10 0 -10 10v12q0 10 10 10q31 -1 58 -1q18 0 18 18v710q0 16 -19 16q-28 0 -57 -1q-10 0 -10 9v13q0 10 10 10q47 -1 133 -1h244q114 0 186.5 -49t72.5 -156q0 -70 -36 -119t-103 -70q150 -33 150 -218v-144q0 -18 18 -18q27 0 58 1q10 0 10 -10v-12 q0 -10 -10 -10q-25 1 -60 1h-32q-33 0 -58.5 13t-41 37t-26 50t-15 61.5t-6 62t-1.5 59.5v23q0 53 -15 71.5t-57 18.5zM291 758v-334h126q37 0 61 14t35 41.5t15 55t4 67.5q0 37 -3.5 62.5t-14 54t-35.5 43t-63 14.5h-107q-18 0 -18 -18z" />
<glyph unicode="&#x157;" horiz-adv-x="512" d="M127 -236q37 29 57 67q10 21 -12 21q-23 0 -37.5 14.5t-14.5 36.5q0 23 15 37.5t37 14.5q27 0 41.5 -19.5t14.5 -45.5q0 -83 -82 -146q-7 -3 -11 1l-8 11q-4 4 0 8zM49 595q54 -1 103 -1q35 0 90 1q11 0 11 -9v-99q14 50 47 87t80 37q57 0 86 -40q16 -25 16 -54 q0 -30 -18 -51t-49 -21q-26 0 -42.5 17.5t-16.5 43.5q0 29 26 50q11 9 8 20q-6 13 -26 9q-34 -8 -57.5 -40.5t-34.5 -78.5t-15 -85.5t-4 -79.5v-257q0 -18 18 -18q19 0 44 1q8 0 8 -8v-11q0 -9 -8 -9q-83 1 -138 1q-47 0 -128 -1q-9 0 -9 9v11q0 8 9 8q25 -1 44 -1 q18 0 18 18v506q0 18 -18 18q-19 0 -44 -1q-9 0 -9 9v10q0 9 9 9z" />
<glyph unicode="&#x158;" horiz-adv-x="802" d="M400 867q-10 0 -23 -0.5t-17 -0.5q-8 0 -12 8l-111 174q-3 8 7 8h12q7 0 13 -6l132 -116l132 116q6 6 13 6h12q10 0 7 -8l-111 -174q-5 -8 -12 -8q-3 0 -14.5 0.5t-27.5 0.5zM471 396h-162q-18 0 -18 -18v-330q0 -18 18 -18q27 0 58 1q10 0 10 -10v-12q0 -10 -10 -10 q-107 1 -151 1q-49 0 -156 -1q-10 0 -10 10v12q0 10 10 10q31 -1 58 -1q18 0 18 18v710q0 16 -19 16q-28 0 -57 -1q-10 0 -10 9v13q0 10 10 10q47 -1 133 -1h244q114 0 186.5 -49t72.5 -156q0 -70 -36 -119t-103 -70q150 -33 150 -218v-144q0 -18 18 -18q27 0 58 1 q10 0 10 -10v-12q0 -10 -10 -10q-25 1 -60 1h-32q-33 0 -58.5 13t-41 37t-26 50t-15 61.5t-6 62t-1.5 59.5v23q0 53 -15 71.5t-57 18.5zM291 758v-334h126q37 0 61 14t35 41.5t15 55t4 67.5q0 37 -3.5 62.5t-14 54t-35.5 43t-63 14.5h-107q-18 0 -18 -18z" />
<glyph unicode="&#x159;" horiz-adv-x="512" d="M49 595q54 -1 103 -1q35 0 90 1q11 0 11 -9v-99q14 50 47 87t80 37q57 0 86 -40q16 -25 16 -54q0 -30 -18 -51t-49 -21q-26 0 -42.5 17.5t-16.5 43.5q0 29 26 50q11 9 8 20q-6 13 -26 9q-34 -8 -57.5 -40.5t-34.5 -78.5t-15 -85.5t-4 -79.5v-257q0 -18 18 -18q19 0 44 1 q8 0 8 -8v-11q0 -9 -8 -9q-83 1 -138 1q-47 0 -128 -1q-9 0 -9 9v11q0 8 9 8q25 -1 44 -1q18 0 18 18v506q0 18 -18 18q-19 0 -44 -1q-9 0 -9 9v10q0 9 9 9zM255 657q-10 0 -23 -0.5t-17 -0.5q-8 0 -12 8l-111 174q-3 8 7 8h12q7 0 13 -6l132 -116l132 116q6 6 13 6h12 q10 0 7 -8l-111 -174q-5 -8 -12 -8q-3 0 -14.5 0.5t-27.5 0.5z" />
<glyph unicode="&#x15a;" horiz-adv-x="642" d="M81 58v-48q0 -10 -9 -10h-12q-10 0 -10 10q1 89 1 119q0 29 -1 119q0 9 10 9h12q9 0 9 -9v-24q0 -97 65.5 -155.5t171.5 -58.5q45 0 87.5 14.5t74 50.5t31.5 86q0 39 -21 65t-61 47q-20 11 -89.5 45.5t-119.5 63.5t-87 59q-77 62 -75 172q1 94 77.5 151t177.5 57 q62 0 105 -15.5t85 -51.5q10 -8 16.5 -4t6.5 14v30q0 10 10 10h12q10 0 10 -10q-1 -82 -1 -89q0 -20 1 -102q0 -10 -10 -10h-12q-10 0 -10 10v23q0 74 -63.5 120.5t-145.5 46.5q-62 0 -115.5 -32.5t-53.5 -92.5q0 -55 58 -86q21 -11 123 -60t154 -82q119 -75 119 -223 q0 -110 -84.5 -172t-199.5 -62q-60 0 -119 21t-101 59q-4 3 -7.5 4t-6.5 -1t-3 -8zM447 1056q11 0 5 -8l-137 -186q-4 -6 -13 -6h-7q-10 0 -7 8l56 184q2 8 12 8q4 0 16.5 -0.5t22.5 -0.5q9 0 28.5 0.5t23.5 0.5z" />
<glyph unicode="&#x15b;" horiz-adv-x="530" d="M96 45q-5 5 -11 7t-11 -1t-5 -11v-31q0 -9 -10 -9h-10q-9 0 -9 9q1 70 1 96q0 29 -1 100q0 9 9 9h10q10 0 10 -9v-30q0 -73 55.5 -118.5t133.5 -47.5q32 -1 68 8.5t66.5 36.5t30.5 65q0 46 -73 81l-196 92q-51 24 -75 66.5t-24 89.5q0 81 57.5 122t145.5 41q92 0 149 -46 q5 -5 11.5 -5t6.5 8v17q0 9 9 9h11q9 0 9 -9q-1 -56 -1 -71q0 -13 1 -70q0 -9 -9 -9h-11q-9 0 -9 9v19q0 56 -49 88.5t-114 34.5q-31 0 -60 -6.5t-54.5 -26.5t-25.5 -51q0 -35 50 -59l202 -96q116 -55 116 -176q0 -90 -67 -139t-164 -49q-101 0 -163 62zM391 846q11 0 5 -8 l-137 -186q-4 -6 -13 -6h-7q-10 0 -7 8l56 184q2 8 12 8q4 0 16.5 -0.5t22.5 -0.5q9 0 28.5 0.5t23.5 0.5z" />
<glyph unicode="&#x15c;" horiz-adv-x="642" d="M81 58v-48q0 -10 -9 -10h-12q-10 0 -10 10q1 89 1 119q0 29 -1 119q0 9 10 9h12q9 0 9 -9v-24q0 -97 65.5 -155.5t171.5 -58.5q45 0 87.5 14.5t74 50.5t31.5 86q0 39 -21 65t-61 47q-20 11 -89.5 45.5t-119.5 63.5t-87 59q-77 62 -75 172q1 94 77.5 151t177.5 57 q62 0 105 -15.5t85 -51.5q10 -8 16.5 -4t6.5 14v30q0 10 10 10h12q10 0 10 -10q-1 -82 -1 -89q0 -20 1 -102q0 -10 -10 -10h-12q-10 0 -10 10v23q0 74 -63.5 120.5t-145.5 46.5q-62 0 -115.5 -32.5t-53.5 -92.5q0 -55 58 -86q21 -11 123 -60t154 -82q119 -75 119 -223 q0 -110 -84.5 -172t-199.5 -62q-60 0 -119 21t-101 59q-4 3 -7.5 4t-6.5 -1t-3 -8zM330 1055q10 0 24 0.5t18 0.5q7 0 12 -8l111 -174q3 -8 -7 -8h-11q-8 0 -14 6l-132 116l-133 -116q-6 -6 -13 -6h-11q-10 0 -7 8l111 174q4 8 12 8q3 0 13.5 -0.5t26.5 -0.5z" />
<glyph unicode="&#x15d;" horiz-adv-x="530" d="M96 45q-5 5 -11 7t-11 -1t-5 -11v-31q0 -9 -10 -9h-10q-9 0 -9 9q1 70 1 96q0 29 -1 100q0 9 9 9h10q10 0 10 -9v-30q0 -73 55.5 -118.5t133.5 -47.5q32 -1 68 8.5t66.5 36.5t30.5 65q0 46 -73 81l-196 92q-51 24 -75 66.5t-24 89.5q0 81 57.5 122t145.5 41q92 0 149 -46 q5 -5 11.5 -5t6.5 8v17q0 9 9 9h11q9 0 9 -9q-1 -56 -1 -71q0 -13 1 -70q0 -9 -9 -9h-11q-9 0 -9 9v19q0 56 -49 88.5t-114 34.5q-31 0 -60 -6.5t-54.5 -26.5t-25.5 -51q0 -35 50 -59l202 -96q116 -55 116 -176q0 -90 -67 -139t-164 -49q-101 0 -163 62zM274 845 q10 0 24 0.5t18 0.5q7 0 12 -8l111 -174q3 -8 -7 -8h-11q-8 0 -14 6l-132 116l-133 -116q-6 -6 -13 -6h-11q-10 0 -7 8l111 174q4 8 12 8q3 0 13.5 -0.5t26.5 -0.5z" />
<glyph unicode="&#x15e;" horiz-adv-x="642" d="M294 -103q-8 -1 -12 2t-3 8l18 77q-119 7 -199 79q-4 3 -7.5 4t-6.5 -1t-3 -8v-48q0 -10 -9 -10h-12q-10 0 -10 10q1 89 1 119q0 29 -1 119q0 9 10 9h12q9 0 9 -9v-24q0 -97 65.5 -155.5t171.5 -58.5q45 0 87.5 14.5t74 50.5t31.5 86q0 39 -21 65t-61 47 q-20 11 -89.5 45.5t-119.5 63.5t-87 59q-77 62 -75 172q1 94 77.5 151t177.5 57q62 0 105 -15.5t85 -51.5q10 -8 16.5 -4t6.5 14v30q0 10 10 10h12q10 0 10 -10q-1 -82 -1 -89q0 -20 1 -102q0 -10 -10 -10h-12q-10 0 -10 10v23q0 74 -63.5 120.5t-145.5 46.5 q-62 0 -115.5 -32.5t-53.5 -92.5q0 -55 58 -86q21 -11 123 -60t154 -82q119 -75 119 -223q0 -73 -40.5 -126.5t-101.5 -79.5t-133 -28l-4 -31q39 0 64 -16.5t25 -47.5q0 -41 -37.5 -63t-83.5 -22q-39 0 -73 10q-8 3 -6 10l3 7q3 7 9 6q25 -5 51 -5q66 0 68 40 q1 18 -13.5 23.5t-35.5 2.5z" />
<glyph unicode="&#x15f;" horiz-adv-x="530" d="M238 -103q-8 -1 -12.5 2t-2.5 8l18 77q-90 5 -145 61q-5 5 -11 7t-11 -1t-5 -11v-31q0 -9 -10 -9h-10q-9 0 -9 9q1 70 1 96q0 29 -1 100q0 9 9 9h10q10 0 10 -9v-30q0 -73 55.5 -118.5t133.5 -47.5q32 -1 68 8.5t66.5 36.5t30.5 65q0 46 -73 81l-196 92q-51 24 -75 66.5 t-24 89.5q0 81 57.5 122t145.5 41q92 0 149 -46q5 -5 11.5 -5t6.5 8v17q0 9 9 9h11q9 0 9 -9q-1 -56 -1 -71q0 -13 1 -70q0 -9 -9 -9h-11q-9 0 -9 9v19q0 56 -49 88.5t-114 34.5q-31 0 -60 -6.5t-54.5 -26.5t-25.5 -51q0 -35 50 -59l202 -96q116 -55 116 -176 q0 -87 -63 -136t-156 -52l-4 -31q39 0 64 -16.5t25 -47.5q0 -41 -37.5 -63t-83.5 -22q-39 0 -73 10q-8 3 -6 10l3 7q3 7 9 6q25 -5 51 -5q66 0 68 40q1 18 -13.5 23.5t-35.5 2.5z" />
<glyph unicode="&#x160;" horiz-adv-x="642" d="M81 58v-48q0 -10 -9 -10h-12q-10 0 -10 10q1 89 1 119q0 29 -1 119q0 9 10 9h12q9 0 9 -9v-24q0 -97 65.5 -155.5t171.5 -58.5q45 0 87.5 14.5t74 50.5t31.5 86q0 39 -21 65t-61 47q-20 11 -89.5 45.5t-119.5 63.5t-87 59q-77 62 -75 172q1 94 77.5 151t177.5 57 q62 0 105 -15.5t85 -51.5q10 -8 16.5 -4t6.5 14v30q0 10 10 10h12q10 0 10 -10q-1 -82 -1 -89q0 -20 1 -102q0 -10 -10 -10h-12q-10 0 -10 10v23q0 74 -63.5 120.5t-145.5 46.5q-62 0 -115.5 -32.5t-53.5 -92.5q0 -55 58 -86q21 -11 123 -60t154 -82q119 -75 119 -223 q0 -110 -84.5 -172t-199.5 -62q-60 0 -119 21t-101 59q-4 3 -7.5 4t-6.5 -1t-3 -8zM330 867q-10 0 -23 -0.5t-17 -0.5q-8 0 -12 8l-111 174q-3 8 7 8h12q7 0 13 -6l132 -116l132 116q6 6 13 6h12q10 0 7 -8l-111 -174q-5 -8 -12 -8q-3 0 -14.5 0.5t-27.5 0.5z" />
<glyph unicode="&#x161;" horiz-adv-x="530" d="M96 45q-5 5 -11 7t-11 -1t-5 -11v-31q0 -9 -10 -9h-10q-9 0 -9 9q1 70 1 96q0 29 -1 100q0 9 9 9h10q10 0 10 -9v-30q0 -73 55.5 -118.5t133.5 -47.5q32 -1 68 8.5t66.5 36.5t30.5 65q0 46 -73 81l-196 92q-51 24 -75 66.5t-24 89.5q0 81 57.5 122t145.5 41q92 0 149 -46 q5 -5 11.5 -5t6.5 8v17q0 9 9 9h11q9 0 9 -9q-1 -56 -1 -71q0 -13 1 -70q0 -9 -9 -9h-11q-9 0 -9 9v19q0 56 -49 88.5t-114 34.5q-31 0 -60 -6.5t-54.5 -26.5t-25.5 -51q0 -35 50 -59l202 -96q116 -55 116 -176q0 -90 -67 -139t-164 -49q-101 0 -163 62zM274 657 q-10 0 -23 -0.5t-17 -0.5q-8 0 -12 8l-111 174q-3 8 7 8h12q7 0 13 -6l132 -116l132 116q6 6 13 6h12q10 0 7 -8l-111 -174q-5 -8 -12 -8q-3 0 -14.5 0.5t-27.5 0.5z" />
<glyph unicode="&#x162;" horiz-adv-x="670" d="M281 -236q37 29 57 67q10 21 -12 21q-23 0 -37.5 14.5t-14.5 36.5q0 23 15 37.5t37 14.5q27 0 41.5 -19.5t14.5 -45.5q0 -83 -82 -146q-7 -3 -11 1l-8 11q-4 4 0 8zM127 804h417q41 0 88 1q9 0 9 -9q-1 -96 -1 -107q0 -12 1 -108q0 -10 -10 -10h-12q-10 0 -10 10v36.5 t-1.5 36t-5 38t-10 32t-16 28.5t-24.5 16.5t-34 7.5h-87q-18 0 -18 -18v-710q0 -18 18 -18q31 0 66 1q10 0 10 -10v-12q0 -10 -10 -10q-88 1 -166 1q-64 0 -149 -1q-10 0 -10 10v12q0 10 10 10q32 -1 58 -1q18 0 18 18v710q0 18 -18 18h-87q-19 0 -34 -7.5t-24.5 -16.5 t-16 -28.5t-10 -32t-5 -38t-1.5 -36v-36.5q0 -10 -10 -10h-12q-10 0 -10 10q1 96 1 108q0 11 -1 107q0 9 9 9q47 -1 88 -1z" />
<glyph unicode="&#x163;" horiz-adv-x="465" d="M223 -236q37 29 57 67q10 21 -12 21q-23 0 -37.5 14.5t-14.5 36.5q0 23 15 37.5t37 14.5q27 0 41.5 -19.5t14.5 -45.5q0 -83 -82 -146q-7 -3 -11 1l-8 11q-4 4 0 8zM297 -17q-120 0 -163 58.5t-43 183.5v343q-21 0 -62 -1q-9 0 -9 9v10q0 9 9 9q42 -1 62 -1v85q0 5 4 6 l126 49q11 4 11 -6v-134q56 0 118 1q9 0 9 -9v-10q0 -9 -9 -9q-63 1 -100 1q-18 0 -18 -18v-356q0 -47 2.5 -76t10.5 -56.5t25.5 -40t44.5 -12.5q62 0 94 113q1 7 10 6l10 -3q7 -2 5 -11q-9 -30 -17 -49t-23 -40t-39 -31.5t-58 -10.5z" />
<glyph unicode="&#x164;" horiz-adv-x="670" d="M544 804h-417q-41 0 -88 1q-9 0 -9 -9q1 -96 1 -107q0 -12 -1 -108q0 -10 10 -10h12q10 0 10 10v36.5t1.5 36t5 38t10 32t16 28.5t24.5 16.5t34 7.5h87q18 0 18 -18v-710q0 -18 -18 -18q-26 0 -58 1q-10 0 -10 -10v-12q0 -10 10 -10q85 1 149 1q78 0 166 -1q10 0 10 10 v12q0 10 -10 10q-35 -1 -66 -1q-18 0 -18 18v710q0 18 18 18h87q19 0 34 -7.5t24.5 -16.5t16 -28.5t10 -32t5 -38t1.5 -36v-36.5q0 -10 10 -10h12q10 0 10 10q-1 96 -1 108q0 11 1 107q0 9 -9 9q-47 -1 -88 -1zM334 867q-10 0 -23 -0.5t-17 -0.5q-8 0 -12 8l-111 174 q-3 8 7 8h12q7 0 13 -6l132 -116l132 116q6 6 13 6h12q10 0 7 -8l-111 -174q-5 -8 -12 -8q-3 0 -14.5 0.5t-27.5 0.5z" />
<glyph unicode="&#x165;" horiz-adv-x="489" d="M297 -17q-120 0 -163 58.5t-43 183.5v343q-21 0 -62 -1q-9 0 -9 9v10q0 9 9 9q42 -1 62 -1v85q0 5 4 6l126 49q11 4 11 -6v-134q56 0 118 1q9 0 9 -9v-10q0 -9 -9 -9q-63 1 -100 1q-18 0 -18 -18v-356q0 -47 2.5 -76t10.5 -56.5t25.5 -40t44.5 -12.5q62 0 94 113 q1 7 10 6l10 -3q7 -2 5 -11q-9 -30 -17 -49t-23 -40t-39 -31.5t-58 -10.5zM385 640q1 0 10.5 9t11 10.5t10 9t11 10.5t9 10.5t10 13t9 13t9.5 15.5q8 16 0 27t-23 9q-34 -6 -63 17.5t-29 65.5q0 36 24 60.5t60 24.5q41 0 65 -28t24 -70q0 -67 -28.5 -115t-90.5 -102 q-6 -5 -12 1l-7 7q-6 8 0 12z" />
<glyph unicode="&#x166;" horiz-adv-x="670" d="M127 804h417q41 0 88 1q9 0 9 -9q-1 -96 -1 -107q0 -12 1 -108q0 -10 -10 -10h-12q-10 0 -10 10v36.5t-1.5 36t-5 38t-10 32t-16 28.5t-24.5 16.5t-34 7.5h-87q-18 0 -18 -18v-275q39 0 148 1q12 0 14 -15q0 -15 -14 -15q-62 1 -97 1.5t-51 0.5v-408q0 -18 18 -18 q31 0 66 1q10 0 10 -10v-12q0 -10 -10 -10q-88 1 -166 1q-64 0 -149 -1q-10 0 -10 10v12q0 10 10 10q32 -1 58 -1q18 0 18 18v408q-16 0 -51 -0.5t-97 -1.5q-14 0 -14 13q0 17 14 17q108 -1 148 -1v275q0 18 -18 18h-87q-19 0 -34 -7.5t-24.5 -16.5t-16 -28.5t-10 -32 t-5 -38t-1.5 -36v-36.5q0 -10 -10 -10h-12q-10 0 -10 10q1 96 1 108q0 11 -1 107q0 9 9 9q47 -1 88 -1z" />
<glyph unicode="&#x167;" horiz-adv-x="465" d="M91 458v110q-21 0 -62 -1q-9 0 -9 9v10q0 9 9 9q42 -1 62 -1v85q0 5 4 6l126 49q11 4 11 -6v-134q56 0 118 1q9 0 9 -9v-10q0 -9 -9 -9q-63 1 -100 1q-18 0 -18 -18v-92q56 0 118 1q9 0 9 -9v-10q0 -9 -9 -9q-63 1 -118 1v-238q0 -47 2.5 -76t10.5 -56.5t25.5 -40 t44.5 -12.5q62 0 94 113q1 7 10 6l10 -3q7 -2 5 -11q-9 -30 -17 -49t-23 -40t-39 -31.5t-58 -10.5q-120 0 -163 58.5t-43 183.5v207q-21 0 -62 -1q-9 0 -9 9v10q0 9 9 9q42 -1 62 -1z" />
<glyph unicode="&#x168;" d="M779 805q10 0 10 -10v-11q0 -11 -10 -11q-33 1 -58 1q-18 0 -18 -18v-563q0 -96 -68 -153t-197 -57q-41 0 -80 5.5t-81.5 20.5t-74 38t-51.5 62.5t-20 89.5v557q0 18 -18 18q-29 0 -58 -1q-10 0 -10 10v12q0 10 10 10q87 -1 151 -1q69 0 156 1q10 0 10 -10v-12 q0 -10 -10 -10q-29 1 -58 1q-18 0 -18 -18v-557q0 -86 46.5 -136.5t128.5 -50.5q85 0 149.5 46t64.5 134v564q0 18 -18 18q-29 0 -58 -1q-10 0 -10 10v12q0 10 10 10q57 -1 90 -1q32 0 90 1zM609 986q-3 -44 -29 -76q-25 -32 -72 -32q-30 0 -94 31q-54 26 -77 26 q-19 0 -32 -15.5t-16 -36.5q-1 -7 -8 -7h-9q-5 0 -7 1.5t-1 5.5q5 48 29 78q26 32 72 32q34 0 96 -31q52 -25 75 -25q41 0 48 50q0 6 8 6h9q8 0 8 -7z" />
<glyph unicode="&#x169;" horiz-adv-x="757" d="M504 298v252q0 18 -18 18q-19 0 -44 -1q-9 0 -9 8v11q0 9 9 9q89 -1 116 -1q22 0 79 1q9 0 9 -9v-542q0 -18 18 -18q20 0 45 1q8 0 8 -9v-10q0 -9 -8 -9q-66 1 -115 1q-10 0 -81 -1q-9 0 -9 9v126q-46 -151 -181 -151q-105 0 -158.5 65t-53.5 176v326q0 18 -18 18 q-19 0 -44 -1q-9 0 -9 8v11q0 9 9 9q89 -1 116 -1q22 0 79 1q9 0 9 -9v-362q0 -121 12 -157q18 -57 75 -57q58 0 97 50t53 111.5t14 126.5zM551 776q-3 -44 -29 -76q-25 -32 -72 -32q-30 0 -94 31q-54 26 -77 26q-19 0 -32 -15.5t-16 -36.5q-1 -7 -8 -7h-9q-5 0 -7 1.5 t-1 5.5q5 48 29 78q26 32 72 32q34 0 96 -31q52 -25 75 -25q41 0 48 50q0 6 8 6h9q8 0 8 -7z" />
<glyph unicode="&#x16a;" d="M779 805q10 0 10 -10v-11q0 -11 -10 -11q-33 1 -58 1q-18 0 -18 -18v-563q0 -96 -68 -153t-197 -57q-41 0 -80 5.5t-81.5 20.5t-74 38t-51.5 62.5t-20 89.5v557q0 18 -18 18q-29 0 -58 -1q-10 0 -10 10v12q0 10 10 10q87 -1 151 -1q69 0 156 1q10 0 10 -10v-12 q0 -10 -10 -10q-29 1 -58 1q-18 0 -18 -18v-557q0 -86 46.5 -136.5t128.5 -50.5q85 0 149.5 46t64.5 134v564q0 18 -18 18q-29 0 -58 -1q-10 0 -10 10v12q0 10 10 10q57 -1 90 -1q32 0 90 1zM241 949h391q8 0 8 -6v-36q0 -7 -8 -7h-391q-7 0 -7 7v36q0 6 7 6z" />
<glyph unicode="&#x16b;" horiz-adv-x="757" d="M504 298v252q0 18 -18 18q-19 0 -44 -1q-9 0 -9 8v11q0 9 9 9q89 -1 116 -1q22 0 79 1q9 0 9 -9v-542q0 -18 18 -18q20 0 45 1q8 0 8 -9v-10q0 -9 -8 -9q-66 1 -115 1q-10 0 -81 -1q-9 0 -9 9v126q-46 -151 -181 -151q-105 0 -158.5 65t-53.5 176v326q0 18 -18 18 q-19 0 -44 -1q-9 0 -9 8v11q0 9 9 9q89 -1 116 -1q22 0 79 1q9 0 9 -9v-362q0 -121 12 -157q18 -57 75 -57q58 0 97 50t53 111.5t14 126.5zM182 739h391q8 0 8 -6v-36q0 -7 -8 -7h-391q-7 0 -7 7v36q0 6 7 6z" />
<glyph unicode="&#x16c;" d="M779 805q10 0 10 -10v-11q0 -11 -10 -11q-33 1 -58 1q-18 0 -18 -18v-563q0 -96 -68 -153t-197 -57q-41 0 -80 5.5t-81.5 20.5t-74 38t-51.5 62.5t-20 89.5v557q0 18 -18 18q-29 0 -58 -1q-10 0 -10 10v12q0 10 10 10q87 -1 151 -1q69 0 156 1q10 0 10 -10v-12 q0 -10 -10 -10q-29 1 -58 1q-18 0 -18 -18v-557q0 -86 46.5 -136.5t128.5 -50.5q85 0 149.5 46t64.5 134v564q0 18 -18 18q-29 0 -58 -1q-10 0 -10 10v12q0 10 10 10q57 -1 90 -1q32 0 90 1zM438 857q-70 0 -116.5 36.5t-54.5 97.5q-1 10 8 10h8q7 0 8 -4q33 -66 147 -66 q112 0 145 66q1 4 8 4h8q9 0 8 -10q-7 -61 -55 -97.5t-114 -36.5z" />
<glyph unicode="&#x16d;" horiz-adv-x="757" d="M504 298v252q0 18 -18 18q-19 0 -44 -1q-9 0 -9 8v11q0 9 9 9q89 -1 116 -1q22 0 79 1q9 0 9 -9v-542q0 -18 18 -18q20 0 45 1q8 0 8 -9v-10q0 -9 -8 -9q-66 1 -115 1q-10 0 -81 -1q-9 0 -9 9v126q-46 -151 -181 -151q-105 0 -158.5 65t-53.5 176v326q0 18 -18 18 q-19 0 -44 -1q-9 0 -9 8v11q0 9 9 9q89 -1 116 -1q22 0 79 1q9 0 9 -9v-362q0 -121 12 -157q18 -57 75 -57q58 0 97 50t53 111.5t14 126.5zM369 647q-70 0 -116.5 36.5t-54.5 97.5q-1 10 8 10h8q7 0 8 -4q33 -66 147 -66q112 0 145 66q1 4 8 4h8q9 0 8 -10q-7 -61 -55 -97.5 t-114 -36.5z" />
<glyph unicode="&#x16e;" d="M779 805q10 0 10 -10v-11q0 -11 -10 -11q-33 1 -58 1q-18 0 -18 -18v-563q0 -96 -68 -153t-197 -57q-41 0 -80 5.5t-81.5 20.5t-74 38t-51.5 62.5t-20 89.5v557q0 18 -18 18q-29 0 -58 -1q-10 0 -10 10v12q0 10 10 10q87 -1 151 -1q69 0 156 1q10 0 10 -10v-12 q0 -10 -10 -10q-29 1 -58 1q-18 0 -18 -18v-557q0 -86 46.5 -136.5t128.5 -50.5q85 0 149.5 46t64.5 134v564q0 18 -18 18q-29 0 -58 -1q-10 0 -10 10v12q0 10 10 10q57 -1 90 -1q32 0 90 1zM457 1045q42 0 72 -30t30 -72q0 -43 -30 -72.5t-72 -29.5q-43 0 -72.5 29.5 t-29.5 72.5q0 42 29.5 72t72.5 30zM457 1007q-26 0 -45 -19t-19 -45t19 -45t45 -19t45 19t19 45t-19 45t-45 19z" />
<glyph unicode="&#x16f;" horiz-adv-x="757" d="M504 298v252q0 18 -18 18q-19 0 -44 -1q-9 0 -9 8v11q0 9 9 9q89 -1 116 -1q22 0 79 1q9 0 9 -9v-542q0 -18 18 -18q20 0 45 1q8 0 8 -9v-10q0 -9 -8 -9q-66 1 -115 1q-10 0 -81 -1q-9 0 -9 9v126q-46 -151 -181 -151q-105 0 -158.5 65t-53.5 176v326q0 18 -18 18 q-19 0 -44 -1q-9 0 -9 8v11q0 9 9 9q89 -1 116 -1q22 0 79 1q9 0 9 -9v-362q0 -121 12 -157q18 -57 75 -57q58 0 97 50t53 111.5t14 126.5zM358 835q42 0 72 -30t30 -72q0 -43 -30 -72.5t-72 -29.5q-43 0 -72.5 29.5t-29.5 72.5q0 42 29.5 72t72.5 30zM358 797 q-26 0 -45 -19t-19 -45t19 -45t45 -19t45 19t19 45t-19 45t-45 19z" />
<glyph unicode="&#x170;" d="M779 805q10 0 10 -10v-11q0 -11 -10 -11q-33 1 -58 1q-18 0 -18 -18v-563q0 -96 -68 -153t-197 -57q-41 0 -80 5.5t-81.5 20.5t-74 38t-51.5 62.5t-20 89.5v557q0 18 -18 18q-29 0 -58 -1q-10 0 -10 10v12q0 10 10 10q87 -1 151 -1q69 0 156 1q10 0 10 -10v-12 q0 -10 -10 -10q-29 1 -58 1q-18 0 -18 -18v-557q0 -86 46.5 -136.5t128.5 -50.5q85 0 149.5 46t64.5 134v564q0 18 -18 18q-29 0 -58 -1q-10 0 -10 10v12q0 10 10 10q57 -1 90 -1q32 0 90 1zM443 1056q11 0 5 -8l-137 -186q-4 -6 -13 -6h-7q-10 0 -7 8l56 184q2 8 12 8 q4 0 16.5 -0.5t22.5 -0.5q9 0 28.5 0.5t23.5 0.5zM642 1056q11 0 5 -8l-137 -186q-4 -6 -13 -6h-7q-10 0 -7 8l56 184q2 8 12 8q4 0 16.5 -0.5t22.5 -0.5q9 0 28.5 0.5t23.5 0.5z" />
<glyph unicode="&#x171;" horiz-adv-x="757" d="M504 298v252q0 18 -18 18q-19 0 -44 -1q-9 0 -9 8v11q0 9 9 9q89 -1 116 -1q22 0 79 1q9 0 9 -9v-542q0 -18 18 -18q20 0 45 1q8 0 8 -9v-10q0 -9 -8 -9q-66 1 -115 1q-10 0 -81 -1q-9 0 -9 9v126q-46 -151 -181 -151q-105 0 -158.5 65t-53.5 176v326q0 18 -18 18 q-19 0 -44 -1q-9 0 -9 8v11q0 9 9 9q89 -1 116 -1q22 0 79 1q9 0 9 -9v-362q0 -121 12 -157q18 -57 75 -57q58 0 97 50t53 111.5t14 126.5zM395 846q11 0 5 -8l-137 -186q-4 -6 -13 -6h-7q-10 0 -7 8l56 184q2 8 12 8q4 0 16.5 -0.5t22.5 -0.5q9 0 28.5 0.5t23.5 0.5z M594 846q11 0 5 -8l-137 -186q-4 -6 -13 -6h-7q-10 0 -7 8l56 184q2 8 12 8q4 0 16.5 -0.5t22.5 -0.5q9 0 28.5 0.5t23.5 0.5z" />
<glyph unicode="&#x172;" d="M779 805q10 0 10 -10v-11q0 -11 -10 -11q-33 1 -58 1q-18 0 -18 -18v-563q0 -88 -58.5 -144t-168.5 -64q-15 -35 -15 -60q0 -32 27 -52t62 -20t76 20q6 3 12 -2l5 -4q8 -5 0 -11q-70 -56 -138 -56q-43 0 -75.5 24t-32.5 66q0 46 47 93h-6q-41 0 -80 5.5t-81.5 20.5 t-74 38t-51.5 62.5t-20 89.5v557q0 18 -18 18q-29 0 -58 -1q-10 0 -10 10v12q0 10 10 10q87 -1 151 -1q69 0 156 1q10 0 10 -10v-12q0 -10 -10 -10q-29 1 -58 1q-18 0 -18 -18v-557q0 -86 46.5 -136.5t128.5 -50.5q85 0 149.5 46t64.5 134v564q0 18 -18 18q-29 0 -58 -1 q-10 0 -10 10v12q0 10 10 10q57 -1 90 -1q32 0 90 1z" />
<glyph unicode="&#x173;" horiz-adv-x="757" d="M504 298v252q0 18 -18 18q-19 0 -44 -1q-9 0 -9 8v11q0 9 9 9q89 -1 116 -1q22 0 79 1q9 0 9 -9v-542q0 -18 18 -18q20 0 45 1q8 0 8 -9v-10q0 -9 -8 -9q-66 1 -115 1h-43q-22 -44 -22 -75q0 -32 27 -52t62 -20t76 20q6 3 12 -2l5 -4q8 -5 0 -11q-70 -56 -138 -56 q-43 0 -75.5 24t-32.5 66q0 52 64 109h-16q-9 0 -9 9v126q-46 -151 -181 -151q-105 0 -158.5 65t-53.5 176v326q0 18 -18 18q-19 0 -44 -1q-9 0 -9 8v11q0 9 9 9q89 -1 116 -1q22 0 79 1q9 0 9 -9v-362q0 -121 12 -157q18 -57 75 -57q58 0 97 50t53 111.5t14 126.5z" />
<glyph unicode="&#x174;" horiz-adv-x="1157" d="M369 0q-14 0 -47 -1q-8 0 -9 7l-197 748q-6 20 -19 20q-25 0 -57 -1q-10 0 -10 10v11q0 11 10 11q88 -1 156 -1t156 1q10 0 10 -10v-12q0 -10 -10 -10q-32 1 -61 1q-20 0 -15 -20l160 -608l145 651q2 8 9 8q37 -1 54 -1q16 0 53 1q7 0 9 -7l142 -654l161 609q5 21 -17 21 q-23 0 -47 -1q-10 0 -10 11v11q0 10 10 10q57 -1 89 -1q25 0 83 1q10 0 10 -10v-11q0 -11 -10 -11q-31 1 -55 1q-19 0 -24 -20l-197 -748q-1 -7 -9 -7q-42 1 -54 1t-49 -1q-8 0 -9 7l-141 649l-146 -649q-1 -7 -9 -7q-37 1 -55 1zM644 1055q10 0 24 0.5t18 0.5q7 0 12 -8 l111 -174q3 -8 -7 -8h-11q-8 0 -14 6l-132 116l-133 -116q-6 -6 -13 -6h-11q-10 0 -7 8l111 174q4 8 12 8q3 0 13.5 -0.5t26.5 -0.5z" />
<glyph unicode="&#x175;" horiz-adv-x="943" d="M905 595q8 0 8 -8v-11q0 -9 -8 -9q-23 1 -40 1t-23 -21l-139 -540q-3 -8 -9 -8q-23 1 -35 1q-14 0 -38 -1q-6 0 -9 7l-137 433l-111 -432q-1 -8 -9 -8q-23 1 -35 1q-14 0 -38 -1q-6 0 -9 7l-171 541q-7 21 -22 21q-17 0 -41 -1q-9 0 -9 9v11q0 8 9 8q81 -1 134 -1 q71 0 139 1q9 0 9 -8v-11q0 -9 -9 -9q-26 1 -47 1q-9 0 -13.5 -6t-1.5 -15l125 -393l111 433q2 8 9 8q23 -1 36 -1q11 0 37 1q7 0 9 -7l137 -434l102 393q5 21 -16 21t-46 -1q-8 0 -8 9v11q0 8 8 8q52 -1 82 -1q11 0 69 1zM531 845q10 0 24 0.5t18 0.5q7 0 12 -8l111 -174 q3 -8 -7 -8h-11q-8 0 -14 6l-132 116l-133 -116q-6 -6 -13 -6h-11q-10 0 -7 8l111 174q4 8 12 8q3 0 13.5 -0.5t26.5 -0.5z" />
<glyph unicode="&#x176;" horiz-adv-x="760" d="M234 -1q-10 0 -10 10v12q0 10 10 10q31 -1 58 -1q18 0 18 18v267l-190 437q-10 22 -26 22q-24 0 -54 -1q-10 0 -10 11v11q0 10 10 10q87 -1 161 -1q72 0 160 1q10 0 10 -10v-11q0 -11 -10 -11q-32 1 -59 1q-10 0 -13.5 -6.5t0.5 -15.5l162 -375l162 375q4 9 -1 15.5 t-15 6.5q-28 0 -56 -1q-10 0 -10 11v12q0 9 10 9q57 -1 104 -1q17 0 75 1q10 0 10 -9v-12q0 -11 -10 -11q-26 1 -49 1q-18 0 -27 -22l-180 -416v-288q0 -18 18 -18q25 0 58 1q10 0 10 -10v-12q0 -10 -10 -10q-108 1 -158 1q-41 0 -148 -1zM399 1055q10 0 24 0.5t18 0.5 q7 0 12 -8l111 -174q3 -8 -7 -8h-11q-8 0 -14 6l-132 116l-133 -116q-6 -6 -13 -6h-11q-10 0 -7 8l111 174q4 8 12 8q3 0 13.5 -0.5t26.5 -0.5z" />
<glyph unicode="&#x177;" horiz-adv-x="645" d="M606 595q9 0 9 -8v-11q0 -9 -9 -9q-25 1 -42 1q-16 0 -23 -22l-240 -711q-39 -118 -116 -118q-41 0 -73 28t-32 69q0 32 19 54.5t53 22.5q25 0 41.5 -18.5t16.5 -44.5q0 -20 -13 -36t-34 -23q-12 -4 -12 -10t10 -11t22 -5q59 0 93 100l56 163l-230 541q-10 21 -24 21 q-17 0 -40 -1q-8 0 -8 9v11q0 8 8 8q70 -1 137 -1q69 0 142 1q9 0 9 -8v-11q0 -9 -9 -9q-26 1 -47 1q-10 0 -14 -6.5t0 -14.5l144 -338l114 339q3 9 -2 14.5t-14 5.5q-21 0 -46 -1q-9 0 -9 9v11q0 8 9 8q60 -1 86 -1q24 0 68 1zM331 845q10 0 24 0.5t18 0.5q7 0 12 -8 l111 -174q3 -8 -7 -8h-11q-8 0 -14 6l-132 116l-133 -116q-6 -6 -13 -6h-11q-10 0 -7 8l111 174q4 8 12 8q3 0 13.5 -0.5t26.5 -0.5z" />
<glyph unicode="&#x178;" horiz-adv-x="760" d="M234 -1q-10 0 -10 10v12q0 10 10 10q31 -1 58 -1q18 0 18 18v267l-190 437q-10 22 -26 22q-24 0 -54 -1q-10 0 -10 11v11q0 10 10 10q87 -1 161 -1q72 0 160 1q10 0 10 -10v-11q0 -11 -10 -11q-32 1 -59 1q-10 0 -13.5 -6.5t0.5 -15.5l162 -375l162 375q4 9 -1 15.5 t-15 6.5q-28 0 -56 -1q-10 0 -10 11v12q0 9 10 9q57 -1 104 -1q17 0 75 1q10 0 10 -9v-12q0 -11 -10 -11q-26 1 -49 1q-18 0 -27 -22l-180 -416v-288q0 -18 18 -18q25 0 58 1q10 0 10 -10v-12q0 -10 -10 -10q-108 1 -158 1q-41 0 -148 -1zM219 932q0 24 17 41.5t41 17.5 t41.5 -17.5t17.5 -41.5t-17.5 -41t-41.5 -17t-41 17t-17 41zM424 932q0 24 17 41.5t41 17.5t41.5 -17.5t17.5 -41.5t-17.5 -41t-41.5 -17t-41 17t-17 41z" />
<glyph unicode="&#x179;" horiz-adv-x="644" d="M154 804h363q30 0 87 1q9 0 9 -9v-10q0 -2 -2 -6l-403 -752h280q23 0 40 7.5t27 24.5t16 30.5t8.5 40t2.5 38v38.5v6v5v5q0 10 10 10h12q10 0 10 -10q-1 -74 -1 -109q0 -18 1 -106q0 -9 -9 -9q-52 1 -74 1h-420q-21 0 -72 -1q-9 0 -9 9v10q0 4 1 6l402 751h-257 q-47 0 -67.5 -27t-20.5 -92q0 -9 -10 -9h-12q-10 0 -10 9q1 45 1 70q0 22 -1 70q0 9 9 9q57 -1 89 -1zM438 1056q11 0 5 -8l-137 -186q-4 -6 -13 -6h-7q-10 0 -7 8l56 184q2 8 12 8q4 0 16.5 -0.5t22.5 -0.5q9 0 28.5 0.5t23.5 0.5z" />
<glyph unicode="&#x17a;" horiz-adv-x="568" d="M532 205q-1 -94 -1 -100q0 -15 1 -97q0 -9 -9 -9q-52 1 -87 1h-399q-11 0 -5 10l329 558h-214q-13 0 -23 -4t-16 -11.5t-10 -17.5t-5 -21t-1.5 -23t0 -23.5t-0.5 -22.5q0 -9 -10 -9h-11q-9 0 -9 9q1 55 1 75q0 14 -1 67q0 8 9 8q40 -1 119 -1h221q40 0 120 1q11 0 6 -9 l-331 -560h219q44 0 61 37t18 131v11q0 9 9 9h11q9 0 9 -9zM420 846q11 0 5 -8l-137 -186q-4 -6 -13 -6h-7q-10 0 -7 8l56 184q2 8 12 8q4 0 16.5 -0.5t22.5 -0.5q9 0 28.5 0.5t23.5 0.5z" />
<glyph unicode="&#x17b;" horiz-adv-x="644" d="M154 804h363q30 0 87 1q9 0 9 -9v-10q0 -2 -2 -6l-403 -752h280q23 0 40 7.5t27 24.5t16 30.5t8.5 40t2.5 38v38.5v6v5v5q0 10 10 10h12q10 0 10 -10q-1 -74 -1 -109q0 -18 1 -106q0 -9 -9 -9q-52 1 -74 1h-420q-21 0 -72 -1q-9 0 -9 9v10q0 4 1 6l402 751h-257 q-47 0 -67.5 -27t-20.5 -92q0 -9 -10 -9h-12q-10 0 -10 9q1 45 1 70q0 22 -1 70q0 9 9 9q57 -1 89 -1zM283 932q0 24 17 41.5t41 17.5t41.5 -17.5t17.5 -41.5t-17.5 -41t-41.5 -17t-41 17t-17 41z" />
<glyph unicode="&#x17c;" horiz-adv-x="568" d="M532 205q-1 -94 -1 -100q0 -15 1 -97q0 -9 -9 -9q-52 1 -87 1h-399q-11 0 -5 10l329 558h-214q-13 0 -23 -4t-16 -11.5t-10 -17.5t-5 -21t-1.5 -23t0 -23.5t-0.5 -22.5q0 -9 -10 -9h-11q-9 0 -9 9q1 55 1 75q0 14 -1 67q0 8 9 8q40 -1 119 -1h221q40 0 120 1q11 0 6 -9 l-331 -560h219q44 0 61 37t18 131v11q0 9 9 9h11q9 0 9 -9zM225 722q0 24 17 41.5t41 17.5t41.5 -17.5t17.5 -41.5t-17.5 -41t-41.5 -17t-41 17t-17 41z" />
<glyph unicode="&#x17d;" horiz-adv-x="644" d="M154 804h363q30 0 87 1q9 0 9 -9v-10q0 -2 -2 -6l-403 -752h280q23 0 40 7.5t27 24.5t16 30.5t8.5 40t2.5 38v38.5v6v5v5q0 10 10 10h12q10 0 10 -10q-1 -74 -1 -109q0 -18 1 -106q0 -9 -9 -9q-52 1 -74 1h-420q-21 0 -72 -1q-9 0 -9 9v10q0 4 1 6l402 751h-257 q-47 0 -67.5 -27t-20.5 -92q0 -9 -10 -9h-12q-10 0 -10 9q1 45 1 70q0 22 -1 70q0 9 9 9q57 -1 89 -1zM331 867q-10 0 -23 -0.5t-17 -0.5q-8 0 -12 8l-111 174q-3 8 7 8h12q7 0 13 -6l132 -116l132 116q6 6 13 6h12q10 0 7 -8l-111 -174q-5 -8 -12 -8q-3 0 -14.5 0.5 t-27.5 0.5z" />
<glyph unicode="&#x17e;" horiz-adv-x="568" d="M532 205q-1 -94 -1 -100q0 -15 1 -97q0 -9 -9 -9q-52 1 -87 1h-399q-11 0 -5 10l329 558h-214q-13 0 -23 -4t-16 -11.5t-10 -17.5t-5 -21t-1.5 -23t0 -23.5t-0.5 -22.5q0 -9 -10 -9h-11q-9 0 -9 9q1 55 1 75q0 14 -1 67q0 8 9 8q40 -1 119 -1h221q40 0 120 1q11 0 6 -9 l-331 -560h219q44 0 61 37t18 131v11q0 9 9 9h11q9 0 9 -9zM283 657q-10 0 -23 -0.5t-17 -0.5q-8 0 -12 8l-111 174q-3 8 7 8h12q7 0 13 -6l132 -116l132 116q6 6 13 6h12q10 0 7 -8l-111 -174q-5 -8 -12 -8q-3 0 -14.5 0.5t-27.5 0.5z" />
<glyph unicode="&#x192;" horiz-adv-x="565" d="M358 546l-66 -483q-6 -42 -16 -79.5t-28.5 -76t-43 -66t-61.5 -45t-81 -17.5q-40 0 -71 26.5t-31 69.5q0 31 17.5 53t47.5 22q25 0 43.5 -19t18.5 -44q0 -40 -42 -57q-13 -4 -13 -14q0 -12 23 -12q26 0 45 21.5t27.5 54t11.5 64.5t1 57l73 526q3 19 -13 19q-36 0 -92 -1 q-6 0 -6 8l1 13q0 7 9 7q31 -1 107 -1l3 18q9 54 24 100t41 90.5t68.5 70.5t97.5 26q40 0 71 -26.5t31 -69.5q0 -31 -17.5 -53t-47.5 -22q-25 0 -43.5 19t-18.5 44q0 40 42 57q13 4 13 14q0 12 -23 12q-26 0 -45 -21.5t-28 -54.5t-12.5 -64.5t-1.5 -58.5l-11 -81q48 0 104 1 q8 0 6 -8l-2 -13q-1 -7 -7 -7q-52 1 -105 1z" />
<glyph unicode="&#x218;" horiz-adv-x="642" d="M81 58v-48q0 -10 -9 -10h-12q-10 0 -10 10q1 89 1 119q0 29 -1 119q0 9 10 9h12q9 0 9 -9v-24q0 -97 65.5 -155.5t171.5 -58.5q45 0 87.5 14.5t74 50.5t31.5 86q0 39 -21 65t-61 47q-20 11 -89.5 45.5t-119.5 63.5t-87 59q-77 62 -75 172q1 94 77.5 151t177.5 57 q62 0 105 -15.5t85 -51.5q10 -8 16.5 -4t6.5 14v30q0 10 10 10h12q10 0 10 -10q-1 -82 -1 -89q0 -20 1 -102q0 -10 -10 -10h-12q-10 0 -10 10v23q0 74 -63.5 120.5t-145.5 46.5q-62 0 -115.5 -32.5t-53.5 -92.5q0 -55 58 -86q21 -11 123 -60t154 -82q119 -75 119 -223 q0 -110 -84.5 -172t-199.5 -62q-60 0 -119 21t-101 59q-4 3 -7.5 4t-6.5 -1t-3 -8zM272 -236q37 29 57 67q11 21 -12 21t-37.5 14.5t-14.5 36.5q0 23 14.5 37.5t37.5 14.5q27 0 41.5 -19.5t14.5 -45.5q0 -83 -82 -146q-7 -3 -11 1l-8 11q-4 4 0 8z" />
<glyph unicode="&#x219;" horiz-adv-x="530" d="M96 45q-5 5 -11 7t-11 -1t-5 -11v-31q0 -9 -10 -9h-10q-9 0 -9 9q1 70 1 96q0 29 -1 100q0 9 9 9h10q10 0 10 -9v-30q0 -73 55.5 -118.5t133.5 -47.5q32 -1 68 8.5t66.5 36.5t30.5 65q0 46 -73 81l-196 92q-51 24 -75 66.5t-24 89.5q0 81 57.5 122t145.5 41q92 0 149 -46 q5 -5 11.5 -5t6.5 8v17q0 9 9 9h11q9 0 9 -9q-1 -56 -1 -71q0 -13 1 -70q0 -9 -9 -9h-11q-9 0 -9 9v19q0 56 -49 88.5t-114 34.5q-31 0 -60 -6.5t-54.5 -26.5t-25.5 -51q0 -35 50 -59l202 -96q116 -55 116 -176q0 -90 -67 -139t-164 -49q-101 0 -163 62zM218 -236 q37 29 57 67q11 21 -12 21t-37.5 14.5t-14.5 36.5q0 23 14.5 37.5t37.5 14.5q27 0 41.5 -19.5t14.5 -45.5q0 -83 -82 -146q-7 -3 -11 1l-8 11q-4 4 0 8z" />
<glyph unicode="&#x2c6;" horiz-adv-x="450" d="M224 845q10 0 24 0.5t18 0.5q7 0 12 -8l111 -174q3 -8 -7 -8h-11q-8 0 -14 6l-132 116l-133 -116q-6 -6 -13 -6h-11q-10 0 -7 8l111 174q4 8 12 8q3 0 13.5 -0.5t26.5 -0.5z" />
<glyph unicode="&#x2c7;" horiz-adv-x="450" d="M224 657q-10 0 -23 -0.5t-17 -0.5q-8 0 -12 8l-111 174q-3 8 7 8h12q7 0 13 -6l132 -116l132 116q6 6 13 6h12q10 0 7 -8l-111 -174q-5 -8 -12 -8q-3 0 -14.5 0.5t-27.5 0.5z" />
<glyph unicode="&#x2d8;" horiz-adv-x="462" d="M232 647q-70 0 -116.5 36.5t-54.5 97.5q-1 10 8 10h8q7 0 8 -4q33 -66 147 -66q112 0 145 66q1 4 8 4h8q9 0 8 -10q-7 -61 -55 -97.5t-114 -36.5z" />
<glyph unicode="&#x2d9;" horiz-adv-x="249" d="M66 722q0 24 17 41.5t41 17.5t41.5 -17.5t17.5 -41.5t-17.5 -41t-41.5 -17t-41 17t-17 41z" />
<glyph unicode="&#x2da;" horiz-adv-x="324" d="M162 835q42 0 72 -30t30 -72q0 -43 -30 -72.5t-72 -29.5q-43 0 -72.5 29.5t-29.5 72.5q0 42 29.5 72t72.5 30zM162 797q-26 0 -45 -19t-19 -45t19 -45t45 -19t45 19t19 45t-19 45t-45 19z" />
<glyph unicode="&#x2db;" horiz-adv-x="370" d="M129 3h19q-24 -46 -24 -78t27 -52t62 -20t76 20q6 3 12 -2l5 -4q8 -5 0 -11q-70 -56 -138 -56q-43 0 -75.5 24t-32.5 66q0 52 69 113z" />
<glyph unicode="&#x2dc;" horiz-adv-x="465" d="M405 776q-3 -44 -29 -76q-25 -32 -72 -32q-30 0 -94 31q-54 26 -77 26q-19 0 -32 -15.5t-16 -36.5q-1 -7 -8 -7h-9q-5 0 -7 1.5t-1 5.5q5 48 29 78q26 32 72 32q34 0 96 -31q52 -25 75 -25q41 0 48 50q0 6 8 6h9q8 0 8 -7z" />
<glyph unicode="&#x2dd;" horiz-adv-x="487" d="M220 846q11 0 5 -8l-137 -186q-4 -6 -13 -6h-7q-10 0 -7 8l56 184q2 8 12 8q4 0 16.5 -0.5t22.5 -0.5q9 0 28.5 0.5t23.5 0.5zM419 846q11 0 5 -8l-137 -186q-4 -6 -13 -6h-7q-10 0 -7 8l56 184q2 8 12 8q4 0 16.5 -0.5t22.5 -0.5q9 0 28.5 0.5t23.5 0.5z" />
<glyph unicode="&#x3bc;" horiz-adv-x="797" d="M524 298v252q0 18 -18 18q-19 0 -44 -1q-9 0 -9 8v11q0 9 9 9q68 -1 104 -1q27 0 91 1q9 0 9 -9v-542q0 -18 18 -18q21 0 45 1q8 0 8 -9v-10q0 -9 -8 -9q-77 1 -108 1q-25 0 -88 -1q-9 0 -9 9v126q-46 -151 -181 -151q-118 0 -172 84q8 -62 15 -89q26 -109 26 -139 q0 -37 -17 -64.5t-52 -27.5q-33 0 -50.5 27.5t-17.5 64.5q0 41 23 139q33 149 33 285v287q0 18 -18 18q-19 0 -44 -1q-9 0 -9 8v11q0 9 9 9q68 -1 104 -1q27 0 91 1q9 0 9 -9v-362q0 -121 12 -157q18 -57 75 -57q58 0 97 50t53 111.5t14 126.5z" />
<glyph unicode="&#x3c0;" horiz-adv-x="744" d="M227 319l25 157q-81 -6 -123.5 -21t-42.5 -46q0 -39 36 -59.5t105 -30.5zM679 585v-98q0 -9 -8 -9h-106l-19 -185q-17 -162 -7 -221q12 -62 46 -63q69 0 72 100q0 9 9 9h9q9 0 8 -9q-4 -60 -26.5 -93t-80.5 -33q-44 0 -74 31t-40.5 77t-14.5 100.5t3 100.5l19 186h-164 q-29 -291 -65 -425q-20 -69 -72 -69q-20 0 -35 18.5t-13 47.5q3 33 44 83t46 83l13 78q-163 26 -163 120q0 51 31 88.5t81 56t99 27t98 8.5h302q8 0 8 -9z" />
<glyph unicode="&#x1e02;" horiz-adv-x="766" d="M59 805q77 -1 156 -1h264q84 0 137.5 -45t53.5 -125q0 -71 -42.5 -113.5t-110.5 -46.5q87 -10 138 -73.5t51 -158.5q0 -109 -53 -175.5t-166 -66.5h-280q-60 0 -147 -1q-10 0 -10 9v13q0 10 10 10q30 -1 59 -1q18 0 18 18v708q0 18 -18 18q-30 0 -60 -1q-9 0 -9 10v12 q0 10 9 10zM540 245q0 119 -24.5 166.5t-87.5 49.5h-118q-18 0 -18 -18v-397q0 -18 18 -18h112q66 0 92 48.5t26 168.5zM292 489h129q83 0 83 144q0 77 -19 110t-64 33h-111q-18 0 -18 -18v-269zM324 932q0 24 17 41.5t41 17.5t41.5 -17.5t17.5 -41.5t-17.5 -41t-41.5 -17 t-41 17t-17 41z" />
<glyph unicode="&#x1e03;" horiz-adv-x="734" d="M674 297q0 -86 -27.5 -155.5t-87.5 -114t-145 -44.5q-58 0 -100.5 29t-61.5 80v-84q0 -9 -8 -9q-70 1 -91 1q-42 0 -104 -1q-9 0 -9 9v10q0 9 9 9q25 -1 44 -1q18 0 18 18v716q0 18 -18 18q-19 0 -44 -1q-9 0 -9 9v11q0 8 9 8q67 -1 106 -1q16 0 89 1q8 0 8 -8v-295 q19 51 61.5 80t100.5 29q85 0 145 -44.5t87.5 -114t27.5 -155.5zM524 297v10v43.5t-2.5 49t-6.5 54t-13 48.5t-21.5 43.5t-32 28t-44.5 11.5q-35 0 -61.5 -12.5t-42.5 -37t-26.5 -50.5t-14.5 -62.5t-5.5 -63t-1.5 -61.5q0 -36 1.5 -62.5t5.5 -63.5t14.5 -63t26.5 -50.5 t42.5 -37t61.5 -12.5q25 0 44.5 11.5t32 27.5t21.5 44t13 49t6.5 54t2.5 48.5v43.5v3.5v3v3.5zM344 932q0 24 17 41.5t41 17.5t41.5 -17.5t17.5 -41.5t-17.5 -41t-41.5 -17t-41 17t-17 41z" />
<glyph unicode="&#x1e0a;" horiz-adv-x="846" d="M59 -1q-9 0 -9 9v13q0 10 9 10q31 -1 60 -1q18 0 18 18v708q0 18 -18 18q-29 0 -59 -1q-10 0 -10 9v13q0 10 10 10q87 -1 151 -1h241q84 0 147.5 -31t101.5 -86.5t56.5 -127t18.5 -157.5q0 -63 -9.5 -119t-33 -109t-60 -90.5t-93 -60.5t-128.5 -23h-239q-77 0 -154 -1z M292 758v-712q0 -18 18 -18h130q25 0 46 6.5t37 18.5t29 28.5t21.5 36.5t15 42t10 45.5t6.5 47.5t3 47t1 44.5t0 39.5v18q0 148 -13 212q-35 161 -156 162h-130q-18 0 -18 -18zM364 932q0 24 17 41.5t41 17.5t41.5 -17.5t17.5 -41.5t-17.5 -41t-41.5 -17t-41 17t-17 41z" />
<glyph unicode="&#x1e0b;" horiz-adv-x="734" d="M615 805q8 0 8 -8v-753q0 -18 18 -18q19 0 44 1q9 0 9 -9v-10q0 -9 -9 -9q-62 1 -125 1q-7 0 -70 -1q-8 0 -8 8v85q-19 -51 -61.5 -80t-100.5 -29q-85 0 -145 44.5t-87.5 114t-27.5 155.5t27.5 155.5t87.5 114t145 44.5q58 0 100.5 -29t61.5 -80v257q0 19 -18 19 q-19 0 -44 -1q-9 0 -9 10v10q0 8 9 8q67 -1 109 -1q23 0 86 1zM210 297v-10v-43.5t2.5 -49t6.5 -54t13 -48.5t21.5 -43.5t32 -28t44.5 -11.5q35 0 61.5 12.5t42.5 37t26.5 50.5t14.5 63t5.5 63.5t1.5 62.5q0 35 -1.5 61.5t-5.5 63t-14.5 62.5t-26.5 50.5t-42.5 37 t-61.5 12.5q-25 0 -44.5 -11.5t-32 -27.5t-21.5 -44t-13 -49t-6.5 -54t-2.5 -48.5v-43.5v-3.5v-3v-3.5zM274 932q0 24 17 41.5t41 17.5t41.5 -17.5t17.5 -41.5t-17.5 -41t-41.5 -17t-41 17t-17 41z" />
<glyph unicode="&#x1e1e;" horiz-adv-x="708" d="M291 469h176q49 0 66 22t17 77q0 9 10 9h12q10 0 10 -10q-1 -96 -1 -111q0 -8 1 -113q0 -10 -10 -10h-12q-10 0 -10 9q0 54 -16.5 76.5t-66.5 22.5h-158q-18 0 -18 -18v-375q0 -18 18 -18q27 0 58 1q10 0 10 -10v-13q0 -9 -10 -9q-88 1 -156 1q-66 0 -151 -1q-10 0 -10 9 v13q0 10 10 10q32 -1 58 -1q18 0 18 18v708q0 18 -18 18q-29 0 -58 -1q-10 0 -10 9v13q0 10 10 10q97 -1 151 -1h365q21 0 73 1q9 0 9 -9q-1 -57 -1 -67q0 -17 1 -71q0 -10 -10 -10h-12q-10 0 -10 10q0 63 -18 90.5t-59 27.5h-240q-18 0 -18 -18v-289zM335 932q0 24 17 41.5 t41 17.5t41.5 -17.5t17.5 -41.5t-17.5 -41t-41.5 -17t-41 17t-17 41z" />
<glyph unicode="&#x1e1f;" horiz-adv-x="443" d="M49 27q25 -1 45 -1q18 0 18 18v524q-11 0 -62 -1q-9 0 -9 9v11q0 8 9 8q41 -1 64 -1q0 97 50.5 162t157.5 65q55 0 93 -28t38 -84q0 -27 -20 -48t-47 -21t-44.5 18.5t-15.5 44.5q3 39 41 56q12 6 12 16q0 20 -47 20q-33 0 -53.5 -21t-26 -54.5t-4.5 -64.5t6 -61 q48 0 129 1q8 0 8 -8v-11q0 -9 -8 -9q-71 1 -111 1q-18 0 -18 -18v-506q0 -18 18 -18q19 0 44 1q9 0 9 -9v-10q0 -9 -9 -9q-83 1 -145 1q-60 0 -122 -1q-9 0 -9 9v10q0 9 9 9zM251 932q0 24 17 41.5t41 17.5t41.5 -17.5t17.5 -41.5t-17.5 -41t-41.5 -17t-41 17t-17 41z" />
<glyph unicode="&#x1e40;" horiz-adv-x="1046" d="M60 805q119 -1 142 -1q21 0 91 1q7 0 9 -7l220 -666l223 665q2 8 9 8q64 -1 72 -1q84 0 152 1q10 0 10 -10v-12q0 -10 -10 -10q-29 1 -58 1q-18 0 -18 -18v-708q0 -18 18 -18q32 0 66 1q10 0 10 -10v-12q0 -10 -10 -10q-111 1 -169 1q-49 0 -136 -1q-9 0 -9 10v12 q0 10 9 10q28 -1 48 -1q18 0 18 18v667l-238 -709q-3 -7 -9 -7q-32 1 -43 1q-12 0 -47 -1q-6 0 -9 7l-237 713v-671q0 -18 18 -18q31 0 59 1q10 0 10 -10v-12q0 -10 -10 -10q-48 1 -91 1q-33 0 -90 -1q-10 0 -10 10v12q0 10 10 10q28 -1 58 -1q18 0 18 18v708q0 18 -18 18 q-29 0 -58 -1q-10 0 -10 10v12q0 10 10 10zM464 932q0 24 17 41.5t41 17.5t41.5 -17.5t17.5 -41.5t-17.5 -41t-41.5 -17t-41 17t-17 41z" />
<glyph unicode="&#x1e41;" horiz-adv-x="1086" d="M608 449q41 162 172 162q195 0 195 -241v-326q0 -18 18 -18q19 0 44 1q9 0 9 -8v-11q0 -9 -9 -9q-83 1 -134 1q-33 0 -121 -1q-9 0 -9 9v11q0 8 9 8q21 -1 33 -1q18 0 18 18v326q0 38 -0.5 57t-2 49.5t-6.5 45.5t-12.5 31.5t-20 23.5t-30.5 7q-38 0 -68 -26.5 t-46.5 -69.5t-24.5 -89.5t-8 -93.5v-261q0 -18 18 -18q12 0 33 1q9 0 9 -8v-11q0 -9 -9 -9q-99 1 -125 1q-20 0 -118 -1q-9 0 -9 9v11q0 8 9 8q21 -1 33 -1q18 0 18 18v326q0 38 -0.5 57t-2 49.5t-6.5 45.5t-12.5 31.5t-20 23.5t-30.5 7q-38 0 -68 -27t-46.5 -70.5t-25 -90 t-8.5 -92.5v-260q0 -18 18 -18q13 0 34 1q8 0 8 -8v-11q0 -9 -8 -9q-83 1 -120 1q-35 0 -136 -1q-9 0 -9 9v11q0 8 9 8q25 -1 44 -1q18 0 18 18v506q0 18 -18 18q-19 0 -44 -1q-9 0 -9 9v10q0 9 9 9q66 -1 117 -1q27 0 78 1q9 0 9 -9v-120q21 67 59 106t108 39 q159 0 187 -162h1zM484 722q0 24 17 41.5t41 17.5t41.5 -17.5t17.5 -41.5t-17.5 -41t-41.5 -17t-41 17t-17 41z" />
<glyph unicode="&#x1e56;" horiz-adv-x="750" d="M316 932q0 24 17 41.5t41 17.5t41.5 -17.5t17.5 -41.5t-17.5 -41t-41.5 -17t-41 17t-17 41zM60 805q67 -1 149 -1h232q112 0 185.5 -57t73.5 -167q0 -107 -70.5 -166t-187.5 -59h-133q-18 0 -18 -18v-289q0 -18 18 -18q26 0 58 1q10 0 10 -10v-12q0 -10 -10 -10 q-108 1 -158 1q-43 0 -150 -1q-9 0 -9 10v12q0 10 9 10q31 -1 59 -1q18 0 18 18v708q0 18 -18 18q-19 0 -58 -1q-10 0 -10 10v12q0 10 10 10zM291 758v-375h130q30 0 52 12.5t34 30.5t18.5 46.5t8.5 52t2 54.5q0 36 -3 63.5t-13.5 61.5t-35.5 53t-63 19h-112q-18 0 -18 -18z " />
<glyph unicode="&#x1e57;" horiz-adv-x="734" d="M111 -239v789q0 18 -18 18q-19 0 -44 -1q-9 0 -9 8v11q0 9 9 9q62 -1 115 -1q24 0 80 1q8 0 8 -8v-85q19 51 61.5 80t100.5 29q85 0 145 -44.5t87.5 -114t27.5 -155.5t-27.5 -155.5t-87.5 -114t-145 -44.5q-58 0 -100.5 29t-61.5 80v-331q0 -18 18 -18q19 0 44 1 q9 0 9 -9v-11q0 -8 -9 -8q-91 1 -133 1q-50 0 -132 -1q-9 0 -9 8v11q0 9 9 9q26 -1 44 -1t18 18zM524 297v10v43.5t-2.5 49t-6.5 54t-13 48.5t-21.5 43.5t-32 28t-44.5 11.5q-35 0 -61.5 -12.5t-42.5 -37t-26.5 -50.5t-14.5 -63t-5.5 -63.5t-1.5 -62.5q0 -35 1.5 -61.5 t5.5 -63t14.5 -62.5t26.5 -50.5t42.5 -37t61.5 -12.5q25 0 44.5 11.5t32 27.5t21.5 44t13 49t6.5 54t2.5 48.5v43.5v3.5v3v3.5zM358 722q0 24 17 41.5t41 17.5t41.5 -17.5t17.5 -41.5t-17.5 -41t-41.5 -17t-41 17t-17 41z" />
<glyph unicode="&#x1e60;" horiz-adv-x="642" d="M81 58v-48q0 -10 -9 -10h-12q-10 0 -10 10q1 89 1 119q0 29 -1 119q0 9 10 9h12q9 0 9 -9v-24q0 -97 65.5 -155.5t171.5 -58.5q45 0 87.5 14.5t74 50.5t31.5 86q0 39 -21 65t-61 47q-20 11 -89.5 45.5t-119.5 63.5t-87 59q-77 62 -75 172q1 94 77.5 151t177.5 57 q62 0 105 -15.5t85 -51.5q10 -8 16.5 -4t6.5 14v30q0 10 10 10h12q10 0 10 -10q-1 -82 -1 -89q0 -20 1 -102q0 -10 -10 -10h-12q-10 0 -10 10v23q0 74 -63.5 120.5t-145.5 46.5q-62 0 -115.5 -32.5t-53.5 -92.5q0 -55 58 -86q21 -11 123 -60t154 -82q119 -75 119 -223 q0 -110 -84.5 -172t-199.5 -62q-60 0 -119 21t-101 59q-4 3 -7.5 4t-6.5 -1t-3 -8zM272 932q0 24 17 41.5t41 17.5t41.5 -17.5t17.5 -41.5t-17.5 -41t-41.5 -17t-41 17t-17 41z" />
<glyph unicode="&#x1e61;" horiz-adv-x="530" d="M96 45q-5 5 -11 7t-11 -1t-5 -11v-31q0 -9 -10 -9h-10q-9 0 -9 9q1 70 1 96q0 29 -1 100q0 9 9 9h10q10 0 10 -9v-30q0 -73 55.5 -118.5t133.5 -47.5q32 -1 68 8.5t66.5 36.5t30.5 65q0 46 -73 81l-196 92q-51 24 -75 66.5t-24 89.5q0 81 57.5 122t145.5 41q92 0 149 -46 q5 -5 11.5 -5t6.5 8v17q0 9 9 9h11q9 0 9 -9q-1 -56 -1 -71q0 -13 1 -70q0 -9 -9 -9h-11q-9 0 -9 9v19q0 56 -49 88.5t-114 34.5q-31 0 -60 -6.5t-54.5 -26.5t-25.5 -51q0 -35 50 -59l202 -96q116 -55 116 -176q0 -90 -67 -139t-164 -49q-101 0 -163 62zM216 722 q0 24 17 41.5t41 17.5t41.5 -17.5t17.5 -41.5t-17.5 -41t-41.5 -17t-41 17t-17 41z" />
<glyph unicode="&#x1e6a;" horiz-adv-x="670" d="M544 804h-417q-41 0 -88 1q-9 0 -9 -9q1 -96 1 -107q0 -12 -1 -108q0 -10 10 -10h12q10 0 10 10v36.5t1.5 36t5 38t10 32t16 28.5t24.5 16.5t34 7.5h87q18 0 18 -18v-710q0 -18 -18 -18q-26 0 -58 1q-10 0 -10 -10v-12q0 -10 10 -10q85 1 149 1q78 0 166 -1q10 0 10 10 v12q0 10 -10 10q-35 -1 -66 -1q-18 0 -18 18v710q0 18 18 18h87q19 0 34 -7.5t24.5 -16.5t16 -28.5t10 -32t5 -38t1.5 -36v-36.5q0 -10 10 -10h12q10 0 10 10q-1 96 -1 108q0 11 1 107q0 9 -9 9q-47 -1 -88 -1zM276 932q0 24 17 41.5t41 17.5t41.5 -17.5t17.5 -41.5 t-17.5 -41t-41.5 -17t-41 17t-17 41z" />
<glyph unicode="&#x1e6b;" horiz-adv-x="465" d="M297 -17q-120 0 -163 58.5t-43 183.5v343q-21 0 -62 -1q-9 0 -9 9v10q0 9 9 9q42 -1 62 -1v85q0 5 4 6l126 49q11 4 11 -6v-134q56 0 118 1q9 0 9 -9v-10q0 -9 -9 -9q-63 1 -100 1q-18 0 -18 -18v-356q0 -47 2.5 -76t10.5 -56.5t25.5 -40t44.5 -12.5q62 0 94 113 q1 7 10 6l10 -3q7 -2 5 -11q-9 -30 -17 -49t-23 -40t-39 -31.5t-58 -10.5zM111 862q0 24 17 41.5t41 17.5t41.5 -17.5t17.5 -41.5t-17.5 -41t-41.5 -17t-41 17t-17 41z" />
<glyph unicode="&#x1e80;" horiz-adv-x="1157" d="M369 0q-14 0 -47 -1q-8 0 -9 7l-197 748q-6 20 -19 20q-25 0 -57 -1q-10 0 -10 10v11q0 11 10 11q88 -1 156 -1t156 1q10 0 10 -10v-12q0 -10 -10 -10q-32 1 -61 1q-20 0 -15 -20l160 -608l145 651q2 8 9 8q37 -1 54 -1q16 0 53 1q7 0 9 -7l142 -654l161 609q5 21 -17 21 q-23 0 -47 -1q-10 0 -10 11v11q0 10 10 10q57 -1 89 -1q25 0 83 1q10 0 10 -10v-11q0 -11 -10 -11q-31 1 -55 1q-19 0 -24 -20l-197 -748q-1 -7 -9 -7q-42 1 -54 1t-49 -1q-8 0 -9 7l-141 649l-146 -649q-1 -7 -9 -7q-37 1 -55 1zM502 1056q4 0 23.5 -0.5t28.5 -0.5 q10 0 22.5 0.5t16.5 0.5q10 0 12 -8l56 -184q3 -8 -7 -8h-7q-9 0 -13 6l-137 186q-6 8 5 8z" />
<glyph unicode="&#x1e81;" horiz-adv-x="943" d="M905 595q8 0 8 -8v-11q0 -9 -8 -9q-23 1 -40 1t-23 -21l-139 -540q-3 -8 -9 -8q-23 1 -35 1q-14 0 -38 -1q-6 0 -9 7l-137 433l-111 -432q-1 -8 -9 -8q-23 1 -35 1q-14 0 -38 -1q-6 0 -9 7l-171 541q-7 21 -22 21q-17 0 -41 -1q-9 0 -9 9v11q0 8 9 8q81 -1 134 -1 q71 0 139 1q9 0 9 -8v-11q0 -9 -9 -9q-26 1 -47 1q-9 0 -13.5 -6t-1.5 -15l125 -393l111 433q2 8 9 8q23 -1 36 -1q11 0 37 1q7 0 9 -7l137 -434l102 393q5 21 -16 21t-46 -1q-8 0 -8 9v11q0 8 8 8q52 -1 82 -1q11 0 69 1zM375 846q4 0 23.5 -0.5t28.5 -0.5q10 0 22.5 0.5 t16.5 0.5q10 0 12 -8l56 -184q3 -8 -7 -8h-7q-9 0 -13 6l-137 186q-6 8 5 8z" />
<glyph unicode="&#x1e82;" horiz-adv-x="1157" d="M369 0q-14 0 -47 -1q-8 0 -9 7l-197 748q-6 20 -19 20q-25 0 -57 -1q-10 0 -10 10v11q0 11 10 11q88 -1 156 -1t156 1q10 0 10 -10v-12q0 -10 -10 -10q-32 1 -61 1q-20 0 -15 -20l160 -608l145 651q2 8 9 8q37 -1 54 -1q16 0 53 1q7 0 9 -7l142 -654l161 609q5 21 -17 21 q-23 0 -47 -1q-10 0 -10 11v11q0 10 10 10q57 -1 89 -1q25 0 83 1q10 0 10 -10v-11q0 -11 -10 -11q-31 1 -55 1q-19 0 -24 -20l-197 -748q-1 -7 -9 -7q-42 1 -54 1t-49 -1q-8 0 -9 7l-141 649l-146 -649q-1 -7 -9 -7q-37 1 -55 1zM764 1056q11 0 5 -8l-137 -186 q-4 -6 -13 -6h-7q-10 0 -7 8l56 184q2 8 12 8q4 0 16.5 -0.5t22.5 -0.5q9 0 28.5 0.5t23.5 0.5z" />
<glyph unicode="&#x1e83;" horiz-adv-x="943" d="M905 595q8 0 8 -8v-11q0 -9 -8 -9q-23 1 -40 1t-23 -21l-139 -540q-3 -8 -9 -8q-23 1 -35 1q-14 0 -38 -1q-6 0 -9 7l-137 433l-111 -432q-1 -8 -9 -8q-23 1 -35 1q-14 0 -38 -1q-6 0 -9 7l-171 541q-7 21 -22 21q-17 0 -41 -1q-9 0 -9 9v11q0 8 9 8q81 -1 134 -1 q71 0 139 1q9 0 9 -8v-11q0 -9 -9 -9q-26 1 -47 1q-9 0 -13.5 -6t-1.5 -15l125 -393l111 433q2 8 9 8q23 -1 36 -1q11 0 37 1q7 0 9 -7l137 -434l102 393q5 21 -16 21t-46 -1q-8 0 -8 9v11q0 8 8 8q52 -1 82 -1q11 0 69 1zM657 846q11 0 5 -8l-137 -186q-4 -6 -13 -6h-7 q-10 0 -7 8l56 184q2 8 12 8q4 0 16.5 -0.5t22.5 -0.5q9 0 28.5 0.5t23.5 0.5z" />
<glyph unicode="&#x1e84;" horiz-adv-x="1157" d="M369 0q-14 0 -47 -1q-8 0 -9 7l-197 748q-6 20 -19 20q-25 0 -57 -1q-10 0 -10 10v11q0 11 10 11q88 -1 156 -1t156 1q10 0 10 -10v-12q0 -10 -10 -10q-32 1 -61 1q-20 0 -15 -20l160 -608l145 651q2 8 9 8q37 -1 54 -1q16 0 53 1q7 0 9 -7l142 -654l161 609q5 21 -17 21 q-23 0 -47 -1q-10 0 -10 11v11q0 10 10 10q57 -1 89 -1q25 0 83 1q10 0 10 -10v-11q0 -11 -10 -11q-31 1 -55 1q-19 0 -24 -20l-197 -748q-1 -7 -9 -7q-42 1 -54 1t-49 -1q-8 0 -9 7l-141 649l-146 -649q-1 -7 -9 -7q-37 1 -55 1zM487 932q0 24 17 41.5t41 17.5t41.5 -17.5 t17.5 -41.5t-17.5 -41t-41.5 -17t-41 17t-17 41zM692 932q0 24 17 41.5t41 17.5t41.5 -17.5t17.5 -41.5t-17.5 -41t-41.5 -17t-41 17t-17 41z" />
<glyph unicode="&#x1e85;" horiz-adv-x="943" d="M905 595q8 0 8 -8v-11q0 -9 -8 -9q-23 1 -40 1t-23 -21l-139 -540q-3 -8 -9 -8q-23 1 -35 1q-14 0 -38 -1q-6 0 -9 7l-137 433l-111 -432q-1 -8 -9 -8q-23 1 -35 1q-14 0 -38 -1q-6 0 -9 7l-171 541q-7 21 -22 21q-17 0 -41 -1q-9 0 -9 9v11q0 8 9 8q81 -1 134 -1 q71 0 139 1q9 0 9 -8v-11q0 -9 -9 -9q-26 1 -47 1q-9 0 -13.5 -6t-1.5 -15l125 -393l111 433q2 8 9 8q23 -1 36 -1q11 0 37 1q7 0 9 -7l137 -434l102 393q5 21 -16 21t-46 -1q-8 0 -8 9v11q0 8 8 8q52 -1 82 -1q11 0 69 1zM370 722q0 24 17 41.5t41 17.5t41.5 -17.5 t17.5 -41.5t-17.5 -41t-41.5 -17t-41 17t-17 41zM575 722q0 24 17 41.5t41 17.5t41.5 -17.5t17.5 -41.5t-17.5 -41t-41.5 -17t-41 17t-17 41z" />
<glyph unicode="&#x1ef2;" horiz-adv-x="760" d="M234 -1q-10 0 -10 10v12q0 10 10 10q31 -1 58 -1q18 0 18 18v267l-190 437q-10 22 -26 22q-24 0 -54 -1q-10 0 -10 11v11q0 10 10 10q87 -1 161 -1q72 0 160 1q10 0 10 -10v-11q0 -11 -10 -11q-32 1 -59 1q-10 0 -13.5 -6.5t0.5 -15.5l162 -375l162 375q4 9 -1 15.5 t-15 6.5q-28 0 -56 -1q-10 0 -10 11v12q0 9 10 9q57 -1 104 -1q17 0 75 1q10 0 10 -9v-12q0 -11 -10 -11q-26 1 -49 1q-18 0 -27 -22l-180 -416v-288q0 -18 18 -18q25 0 58 1q10 0 10 -10v-12q0 -10 -10 -10q-108 1 -158 1q-41 0 -148 -1zM304 1056q4 0 23.5 -0.5t28.5 -0.5 q10 0 22.5 0.5t16.5 0.5q10 0 12 -8l56 -184q3 -8 -7 -8h-7q-9 0 -13 6l-137 186q-6 8 5 8z" />
<glyph unicode="&#x1ef3;" horiz-adv-x="645" d="M606 595q9 0 9 -8v-11q0 -9 -9 -9q-25 1 -42 1q-16 0 -23 -22l-240 -711q-39 -118 -116 -118q-41 0 -73 28t-32 69q0 32 19 54.5t53 22.5q25 0 41.5 -18.5t16.5 -44.5q0 -20 -13 -36t-34 -23q-12 -4 -12 -10t10 -11t22 -5q59 0 93 100l56 163l-230 541q-10 21 -24 21 q-17 0 -40 -1q-8 0 -8 9v11q0 8 8 8q70 -1 137 -1q69 0 142 1q9 0 9 -8v-11q0 -9 -9 -9q-26 1 -47 1q-10 0 -14 -6.5t0 -14.5l144 -338l114 339q3 9 -2 14.5t-14 5.5q-21 0 -46 -1q-9 0 -9 9v11q0 8 9 8q60 -1 86 -1q24 0 68 1zM236 846q4 0 23.5 -0.5t28.5 -0.5 q10 0 22.5 0.5t16.5 0.5q10 0 12 -8l56 -184q3 -8 -7 -8h-7q-9 0 -13 6l-137 186q-6 8 5 8z" />
<glyph unicode="&#x2013;" horiz-adv-x="709" d="M360 236q-174 0 -286 -1q-14 0 -14 13v30q0 12 14 12q95 -1 283 -1q213 0 278 1q14 0 14 -13v-29q0 -13 -14 -13q-91 1 -275 1z" />
<glyph unicode="&#x2014;" horiz-adv-x="1039" d="M520 236q-334 0 -446 -1q-14 0 -14 13v30q0 12 14 12q95 -1 443 -1q383 0 448 1q14 0 14 -13v-29q0 -13 -14 -13q-91 1 -445 1z" />
<glyph unicode="&#x2018;" horiz-adv-x="293" d="M198 798q-1 0 -10.5 -9t-11 -10.5t-10 -9t-11 -10.5t-9 -10.5t-10 -13t-9 -13t-9.5 -15.5q-8 -16 0 -27t23 -9q34 6 63 -17.5t29 -65.5q0 -36 -24 -60.5t-60 -24.5q-41 0 -65 28t-24 70q0 67 28.5 115t90.5 102q6 5 12 -1l7 -7q6 -8 0 -12z" />
<glyph unicode="&#x2019;" horiz-adv-x="293" d="M95 527q1 0 10.5 9t11 10.5t10 9t11 10.5t9 10.5t10 13t9 13t9.5 15.5q8 16 0 27t-23 9q-34 -6 -63 17.5t-29 65.5q0 36 24 60.5t60 24.5q41 0 65 -28t24 -70q0 -67 -28.5 -115t-90.5 -102q-6 -5 -12 1l-7 7q-6 7 0 12z" />
<glyph unicode="&#x201a;" horiz-adv-x="293" d="M95 -144q1 0 10.5 9t11 10.5t10 9t11 10.5t9 10.5t10 13t9 13t9.5 15.5q8 16 0 27t-23 9q-34 -6 -63 17.5t-29 65.5q0 36 24 60.5t60 24.5q41 0 65 -28t24 -70q0 -67 -28.5 -115t-90.5 -102q-6 -5 -12 1l-7 7q-6 8 0 12z" />
<glyph unicode="&#x201c;" horiz-adv-x="521" d="M426 798q-1 0 -10.5 -9t-11 -10.5t-10 -9t-11 -10.5t-9 -10.5t-10 -13t-9 -13t-9.5 -15.5q-8 -16 0 -27t23 -9q34 6 63 -17.5t29 -65.5q0 -36 -24 -60.5t-60 -24.5q-41 0 -65 28t-24 70q0 67 28.5 115t90.5 102q6 5 12 -1l7 -7q6 -8 0 -12zM198 798q-1 0 -10.5 -9 t-11 -10.5t-10 -9t-11 -10.5t-9 -10.5t-10 -13t-9 -13t-9.5 -15.5q-8 -16 0 -27t23 -9q34 6 63 -17.5t29 -65.5q0 -36 -24 -60.5t-60 -24.5q-41 0 -65 28t-24 70q0 67 28.5 115t90.5 102q6 5 12 -1l7 -7q6 -8 0 -12z" />
<glyph unicode="&#x201d;" horiz-adv-x="521" d="M95 527q1 0 10.5 9t11 10.5t10 9t11 10.5t9 10.5t10 13t9 13t9.5 15.5q8 16 0 27t-23 9q-34 -6 -63 17.5t-29 65.5q0 36 24 60.5t60 24.5q41 0 65 -28t24 -70q0 -67 -28.5 -115t-90.5 -102q-6 -5 -12 1l-7 7q-6 7 0 12zM323 527q1 0 10.5 9t11 10.5t10 9t11 10.5t9 10.5 t10 13t9 13t9.5 15.5q8 16 0 27t-23 9q-34 -6 -63 17.5t-29 65.5q0 36 24 60.5t60 24.5q41 0 65 -28t24 -70q0 -67 -28.5 -115t-90.5 -102q-6 -5 -12 1l-7 7q-6 7 0 12z" />
<glyph unicode="&#x201e;" horiz-adv-x="521" d="M95 -144q1 0 10.5 9t11 10.5t10 9t11 10.5t9 10.5t10 13t9 13t9.5 15.5q8 16 0 27t-23 9q-34 -6 -63 17.5t-29 65.5q0 36 24 60.5t60 24.5q41 0 65 -28t24 -70q0 -67 -28.5 -115t-90.5 -102q-6 -5 -12 1l-7 7q-6 8 0 12zM323 -144q1 0 10.5 9t11 10.5t10 9t11 10.5 t9 10.5t10 13t9 13t9.5 15.5q8 16 0 27t-23 9q-34 -6 -63 17.5t-29 65.5q0 36 24 60.5t60 24.5q41 0 65 -28t24 -70q0 -67 -28.5 -115t-90.5 -102q-6 -5 -12 1l-7 7q-6 8 0 12z" />
<glyph unicode="&#x2020;" horiz-adv-x="612" d="M320 -214q0 -9 -9 -9h-11q-8 0 -8 9v58.5t1 60.5v30q0 30 -2.5 63.5t-5.5 59t-9 62.5t-9.5 56t-11 58t-9.5 52q53 137 51 237q-48 -6 -88 -24q-56 -27 -107 -27q-26 0 -44 18t-18 44t18 44t44 18q44 0 106 -29q37 -19 89 -23q-4 63 -26 108q-27 57 -27 107 q0 25 18.5 43.5t43.5 18.5t43.5 -18.5t18.5 -43.5q0 -44 -29 -106q-22 -47 -25 -110q52 6 90 24q62 29 106 29q26 0 44 -18t18 -44q0 -27 -18 -44.5t-44 -17.5q-51 0 -107 27q-42 19 -88 24q-5 -103 51 -237q-46 -230 -47 -351v-28q0 -84 1 -121z" />
<glyph unicode="&#x2021;" horiz-adv-x="612" d="M102 123q50 0 107 -27q36 -18 87 -24q3 80 -52 229q54 136 52 222q-47 -5 -87 -24q-56 -27 -107 -27q-25 0 -43.5 18t-18.5 44t18 44t44 18q44 0 106 -29q37 -19 89 -23q-4 63 -26 108q-27 57 -27 107q0 25 18 43.5t44 18.5t44 -18.5t18 -43.5q0 -44 -29 -106 q-22 -47 -25 -110q52 6 90 24q60 29 106 29q26 0 44 -18t18 -44t-18 -44t-44 -18q-51 0 -107 27q-42 19 -88 24q-3 -89 51 -223q-56 -142 -51 -229q48 6 88 25q57 27 107 27q26 0 44 -18t18 -44t-18.5 -44t-44.5 -18q-43 0 -105 29q-39 17 -90 23q3 -63 25 -109 q29 -62 29 -106q0 -26 -18 -44t-44 -18t-44 18t-18 44q0 51 27 107q22 45 26 108q-52 -6 -89 -23q-60 -29 -106 -29q-26 0 -44 18.5t-18 43.5t18.5 43.5t43.5 18.5z" />
<glyph unicode="&#x2022;" horiz-adv-x="365" d="M60 402q0 51 35.5 86.5t87.5 35.5q51 0 86.5 -35.5t35.5 -86.5q0 -52 -35.5 -87.5t-86.5 -35.5q-52 0 -87.5 35.5t-35.5 87.5z" />
<glyph unicode="&#x2026;" horiz-adv-x="780" d="M60 67q0 35 25 59.5t59 24.5t59 -24.5t25 -59.5t-25 -59.5t-59 -24.5t-59 24.5t-25 59.5zM306 67q0 35 25 59.5t59 24.5t59 -24.5t25 -59.5t-25 -59.5t-59 -24.5t-59 24.5t-25 59.5zM552 67q0 35 25 59.5t59 24.5t59 -24.5t25 -59.5t-25 -59.5t-59 -24.5t-59 24.5 t-25 59.5z" />
<glyph unicode="&#x2030;" horiz-adv-x="1153" d="M60 611q0 104 38 157.5t106 53.5q69 0 107.5 -53.5t38.5 -157.5t-38.5 -158t-107.5 -54q-68 0 -106 54t-38 158zM144 612q0 -117 11 -154.5t49 -37.5q39 0 50.5 37.5t11.5 154.5q0 118 -11.5 154.5t-50.5 36.5q-38 0 -49 -37t-11 -154zM463 196q0 104 38 157.5t106 53.5 q69 0 107.5 -53.5t38.5 -157.5t-38.5 -158t-107.5 -54q-68 0 -106 54t-38 158zM547 197q0 -117 11 -154.5t49 -37.5q39 0 50.5 37.5t11.5 154.5q0 118 -11.5 154.5t-50.5 36.5q-38 0 -49 -37t-11 -154zM803 196q0 104 38 157.5t106 53.5q69 0 107.5 -53.5t38.5 -157.5 t-38.5 -158t-107.5 -54q-68 0 -106 54t-38 158zM887 197q0 -117 11 -154.5t49 -37.5q39 0 50.5 37.5t11.5 154.5q0 118 -11.5 154.5t-50.5 36.5q-38 0 -49 -37t-11 -154zM654 795l-466 -804q-7 -12 -19 -5l-10 6q-11 7 -4 18l467 804q7 12 19 5l8 -5q12 -7 5 -19z" />
<glyph unicode="&#x2039;" horiz-adv-x="353" d="M190 299l120 -202q3 -6 1 -9.5t-8 -3.5h-61q-10 0 -19 11l-159 195q-7 8 0 16l159 195q9 11 19 11h61q5 0 7.5 -4t-0.5 -9z" />
<glyph unicode="&#x203a;" horiz-adv-x="353" d="M43 97l120 202l-120 200q-3 5 -0.5 9t7.5 4h61q10 0 19 -11l159 -195q7 -8 0 -16l-159 -195q-9 -11 -19 -11h-61q-6 0 -8 3.5t1 9.5z" />
<glyph unicode="&#x2044;" horiz-adv-x="627" d="M563 792l-464 -800q-7 -11 -18 -5l-13 8q-11 7 -4 18l464 800q7 12 19 5l11 -7q12 -7 5 -19z" />
<glyph unicode="&#x20ac;" horiz-adv-x="660" d="M306 332h-27q1 -67 6 -115.5t19 -100.5t43.5 -79.5t73.5 -27.5q48 0 83 16q19 9 19 22.5t-13 24.5q-25 20 -25 49q0 25 17 43t43 18q28 0 46.5 -19.5t18.5 -49.5q0 -64 -60.5 -97t-130.5 -33q-67 0 -118 20t-82 51.5t-51.5 79t-29 93.5t-12.5 104h-72q-14 0 -14 13v1 q0 14 14 14q20 -1 71 -1q0 7 -0.5 21t-0.5 21t0.5 23t0.5 24h-71q-14 0 -14 13v1q0 14 14 14q20 -1 73 -1q4 57 12.5 103t29 93.5t51.5 79t81.5 51.5t117.5 20q70 0 130.5 -32.5t60.5 -96.5q0 -30 -18.5 -49.5t-46.5 -19.5q-26 0 -43 18t-17 43q0 29 25 49q13 11 13 24.5 t-19 22.5q-33 15 -83 15q-44 0 -73.5 -27.5t-43.5 -79t-19 -100.5t-6 -115h24q102 0 167 1q12 0 14 -14q0 -14 -14 -14q-122 2 -164 2h-27v-91h24q103 0 167 1q14 0 14 -15q-1 -13 -14 -13q-122 2 -164 2z" />
<glyph unicode="&#x2113;" horiz-adv-x="481" d="M-9 203q10 7 46 33t59 44v260q0 135 59.5 208t158.5 73q54 0 87.5 -37.5t33.5 -93.5q0 -92 -52.5 -170t-144.5 -163v-167v-31v-51.5t3 -37t9.5 -30t19 -15t31.5 -6.5q46 0 79.5 27.5t63.5 92.5q2 7 11 4l9 -5q6 -4 4 -10q-64 -145 -189 -145q-88 0 -135.5 58.5 t-47.5 154.5v49q-17 -12 -47.5 -33t-41.5 -29q-6 -5 -12 1l-6 7q-5 6 2 12zM238 632v-239q171 158 171 292q0 43 -23.5 76.5t-68.5 33.5q-79 0 -79 -163z" />
<glyph unicode="&#x2122;" horiz-adv-x="1080" d="M466 805q56 -1 83 -1q6 0 54 1q7 0 8 -5l127 -387q23 71 68 202.5t62 183.5q2 6 7 6q34 -1 43 -1q43 0 89 1q8 0 8 -8v-7q0 -8 -8 -8q-22 1 -34 1q-9 0 -9 -9v-418q0 -9 9 -9q15 0 39 1q8 0 8 -8v-7q0 -8 -8 -8q-69 1 -92 1q-30 0 -88 -1q-8 0 -8 7v8q0 8 8 8 q21 -1 28 -1q9 0 9 9v382q-16 -47 -66.5 -200.5t-69.5 -207.5q-3 -5 -8 -5q-23 1 -28 1q-7 0 -25 -1q-7 0 -8 5l-135 407v-381q0 -9 8 -9q15 0 35 1q8 0 8 -8v-7q0 -8 -8 -8q-37 1 -54 1q-22 0 -52 -1q-8 0 -8 8v7q0 8 8 8q21 -1 33 -1q9 0 9 9v418q0 9 -9 9q-11 0 -33 -1 q-8 0 -8 8v7q0 8 8 8zM365 804h-245q-13 0 -53 1q-7 0 -7 -7q1 -52 1 -64q0 -13 -1 -64q0 -7 7 -7h9q7 0 7 7q0 25 1 38.5t5 34.5t15.5 31t30.5 10h50q9 0 9 -9v-419q0 -9 -9 -9q-10 0 -33 1q-8 0 -8 -8v-7q0 -8 8 -8q59 1 88 1q28 0 97 -1q8 0 8 8v7q0 5 -1.5 6.5t-6.5 1.5 q-23 -1 -38 -1q-8 0 -8 9v419q0 9 9 9h50q19 0 30.5 -10t15.5 -31t5 -34.5t1 -38.5q0 -7 7 -7h9q7 0 7 7q-1 51 -1 64q0 12 1 64q0 7 -7 7q-40 -1 -53 -1z" />
<glyph unicode="&#x2126;" horiz-adv-x="861" d="M361 107v53q-130 20 -205 106.5t-75 221.5q0 155 91 244t258 89q156 0 253 -85t97 -248q0 -133 -72.5 -217.5t-207.5 -110.5v-53l184 9q46 2 65.5 28t23.5 92q0 9 10 9h8q10 0 10 -9q-1 -87 -1 -115q0 -25 1 -112q0 -9 -8 -9h-313q-8 0 -8 9v177q53 11 89.5 39.5 t54.5 71.5t25.5 88t7.5 103q0 305 -219 305q-65 0 -109.5 -24t-67.5 -69t-32 -95.5t-9 -116.5q0 -55 6.5 -98.5t24.5 -87.5t55 -74t91 -42v-177q0 -9 -8 -9h-312q-8 0 -8 9q1 87 1 112q0 28 -1 115q0 9 10 9h8q10 0 10 -9q4 -67 23 -92.5t65 -27.5z" />
<glyph unicode="&#x212e;" horiz-adv-x="1044" d="M988 389h-756q-7 0 -7 -4v-230q0 -10 10 -26q121 -124 287 -124q88 0 166 37t134 102h67q-64 -74 -161 -118t-208 -44q-193 0 -329 123t-137 296q0 114 62.5 211t170 153t233.5 56q95 0 181.5 -33.5t149.5 -89.5t100 -134t37 -163v-12zM816 419v230q0 15 -11 28 q-122 119 -283 119q-165 0 -286 -123q-11 -13 -11 -28v-226q0 -7 7 -7h579q5 0 5 7z" />
<glyph unicode="&#x2202;" horiz-adv-x="608" d="M503 365q-15 61 -54 94.5t-85 33.5q-55 0 -96 -32t-62.5 -84t-31 -105.5t-9.5 -108.5q0 -146 87 -146q81 0 144 90q77 109 107 258zM189 662l-3 -6l-2.5 -5t-3 -2t-5.5 -1h-7q-10 0 -5 16q27 77 78.5 117t114.5 40q82 0 137 -75.5t55 -213.5q0 -212 -89 -378 q-48 -88 -100 -129.5t-122 -41.5q-79 0 -128 57.5t-49 146.5q0 140 82 239t206 99q54 0 97.5 -28t66.5 -82q6 56 6 107q-2 103 -50 165.5t-132 62.5q-55 0 -88.5 -21.5t-58.5 -66.5z" />
<glyph unicode="&#x2206;" horiz-adv-x="843" d="M635 37l-266 601l-271 -611h530q11 0 7 10zM427 809l355 -800q4 -9 -8 -9h-706q-11 0 -6 11l353 798q2 5 6 5t6 -5z" />
<glyph unicode="&#x220f;" horiz-adv-x="893" d="M270 758v-933q0 -18 18 -18q9 0 32 0.5t36 0.5q9 0 9 -10v-11q0 -10 -9 -10q-93 1 -146 1q-42 0 -141 -1q-9 0 -9 10v11q0 10 9 10q5 0 25 -0.5t34 -0.5q18 0 18 18v931q0 18 -18 18q-29 0 -59 -1q-9 0 -9 9v14q0 9 9 9q71 -1 121 -1h508q53 0 124 1q11 0 11 -9v-14 q0 -9 -11 -9q-22 1 -58 1q-18 0 -18 -19v-933q0 -15 18 -15q24 0 58 1q10 0 10 -10v-11q0 -10 -10 -10q-91 1 -133 1q-54 0 -144 -1q-9 0 -9 10v11q0 10 9 10q35 -1 59 -1q18 0 18 18v951h-334q-18 0 -18 -18z" />
<glyph unicode="&#x2211;" horiz-adv-x="753" d="M62 -212l283 464l-282 543q-6 10 7 10q70 -1 91 -1h353q40 0 120 1q8 0 8 -9q-1 -43 -1 -62q0 -20 1 -78q0 -11 -9 -11h-8q-11 0 -11 10q-4 67 -23 94t-64 27h-314l221 -432l-269 -441h406q33 0 53.5 19t28 54t9.5 60t1 62q0 9 10 9h10q10 0 10 -9q-1 -120 -1 -155 q0 -44 1 -156q0 -9 -8 -9q-68 1 -84 1h-436q-24 0 -96 -1q-5 0 -7.5 3t0.5 7z" />
<glyph unicode="&#x2212;" horiz-adv-x="644" d="M326 374q-140 0 -252 -1q-14 0 -14 13v30q0 12 14 12q95 -1 249 -1q182 0 247 1q14 0 14 -13v-29q0 -13 -14 -13q-91 1 -244 1z" />
<glyph unicode="&#x221a;" horiz-adv-x="1204" d="M255 363h-103q-39 0 -79 -1q-13 0 -13 11v6q0 13 13 13q40 -1 79 -1h167q7 0 10 -8l127 -348l381 912q7 8 10 8h150q49 0 134 1q13 0 13 -13v-56q0 -11 -13 -11q-85 1 -134 1h-159l-403 -969q-2 -5 -5.5 -5t-5.5 5z" />
<glyph unicode="&#x221e;" horiz-adv-x="759" d="M205 449q71 0 139 -84q31 54 73.5 80t109.5 26q71 0 121.5 -44.5t50.5 -118.5q0 -69 -41.5 -115.5t-110.5 -47.5q-54 -1 -91.5 29t-77.5 85q-35 -46 -74.5 -69t-97.5 -23q-61 0 -103.5 39.5t-42.5 101.5q0 59 42 100t103 41zM204 192q12 0 22 2.5t19.5 8.5t16 11 t14.5 16.5t12.5 17t11.5 20.5t9 20.5t9.5 22t8.5 20.5q-25 32 -36.5 45.5t-36.5 30t-49 16.5q-51 0 -85.5 -31t-34.5 -84q0 -50 33.5 -83t85.5 -33zM532 445q-27 0 -49.5 -18t-34 -36.5t-28.5 -54t-23 -46.5q24 -36 40 -56.5t47 -42t63 -21.5q57 0 91.5 37.5t34.5 100.5 q0 64 -40.5 100.5t-100.5 36.5z" />
<glyph unicode="&#x222b;" horiz-adv-x="415" d="M245 23q-22 -195 -120 -195q-65 0 -65 58q0 22 16 38.5t40 16.5q15 0 30.5 -13.5t21.5 -13.5q21 0 21 32q0 5 -2 22t-6.5 50.5t-7.5 68.5q-21 208 -21 325q0 200 18 388q3 32 10 61.5t20 62t36 52t54 19.5q65 0 65 -58q0 -22 -16 -38.5t-40 -16.5q-15 0 -30.5 13.5 t-21.5 13.5q-21 0 -21 -32q0 -4 2.5 -21.5t6.5 -51t7 -68.5q17 -194 17 -330q0 -252 -14 -383z" />
<glyph unicode="&#x2248;" horiz-adv-x="704" d="M208 549q58 0 155 -39q96 -38 143 -38q73 0 87 63q3 13 18 13h19q9 0 11.5 -3t1.5 -14q-9 -55 -49.5 -90t-96.5 -35q-10 0 -21 1t-19.5 2.5t-21.5 4.5t-19 5l-21 7l-19.5 6.5t-22 8.5t-21.5 8q-94 34 -133 34q-71 0 -88 -63q-3 -13 -18 -13h-20q-15 0 -12 14 q12 59 51.5 93.5t95.5 34.5zM208 383q58 0 155 -39q96 -38 143 -38q73 0 87 63q3 13 18 13h19q9 0 11.5 -3t1.5 -14q-9 -55 -49.5 -90t-96.5 -35q-10 0 -21 1t-19.5 2.5t-21.5 4.5t-19 5l-21 7l-19.5 6.5t-22 8.5t-21.5 8q-94 34 -133 34q-71 0 -88 -63q-3 -13 -18 -13h-20 q-15 0 -12 14q12 59 51.5 93.5t95.5 34.5z" />
<glyph unicode="&#x2260;" horiz-adv-x="644" d="M326 271h-21l-59 -166q-5 -12 -17 -8l-29 9q-12 4 -7 18q7 20 22.5 60.5t32.5 86.5q-22 0 -79 -0.5t-95 -0.5q-14 0 -14 13v30q0 12 14 12q72 -1 193 -1l56 153q-139 0 -249 -1q-14 0 -14 13v30q0 12 14 12q95 -1 249 -1h19q42 114 58 161q4 12 18 8l27 -9q13 -4 8 -18 l-54 -142q125 0 171 1q14 0 14 -13v-29q0 -13 -14 -13q-70 1 -191 1l-55 -153q181 0 246 1q14 0 14 -13v-29q0 -13 -14 -13q-91 1 -244 1z" />
<glyph unicode="&#x2264;" horiz-adv-x="614" d="M229 505l135 63q112 52 154 74q14 6 20 -6l11 -25q6 -13 -7 -19q-19 -8 -48 -21.5t-38 -17.5l-192 -87l-148 -71l145 -70l196 -91q73 -32 85 -37q13 -6 7 -20l-11 -23q-7 -14 -20 -7l-154 73l-135 63q-34 16 -85 38.5t-75 33.5q-9 4 -9 13v51q0 11 9 15q122 54 160 71z M311 47q138 0 229 -1q14 0 14 13v29q0 13 -14 13q-65 -1 -232 -1q-138 0 -233 1q-14 0 -14 -12v-30q0 -13 14 -13q112 1 236 1z" />
<glyph unicode="&#x2265;" horiz-adv-x="613" d="M249 568l135 -63q38 -17 160 -71q9 -4 9 -15v-51q0 -9 -9 -13q-24 -11 -75 -33.5t-85 -38.5l-135 -63l-154 -73q-13 -7 -20 7l-11 23q-6 14 7 20q12 5 85 37l196 91l145 70l-148 71l-192 87q-9 4 -38 17.5t-48 21.5q-13 6 -7 19l11 25q6 12 20 6q42 -22 154 -74zM310 47 q-124 0 -236 -1q-14 0 -14 13v30q0 12 14 12q95 -1 233 -1q167 0 232 1q14 0 14 -13v-29q0 -13 -14 -13q-91 1 -229 1z" />
<glyph unicode="&#x25ca;" horiz-adv-x="712" d="M129 512l227 -432l228 432l-228 434zM337 1026h39q7 0 12 -10l264 -504l-264 -502q-5 -10 -12 -10h-39q-7 0 -12 10l-265 502l265 504q5 10 12 10z" />
<glyph unicode="&#x25fc;" horiz-adv-x="595" d="M0 595h595v-595h-595v595z" />
<glyph unicode="&#xfb01;" horiz-adv-x="715" d="M442 568h-151q-18 0 -18 -18v-506q0 -18 18 -18q20 0 44 1q9 0 9 -9v-11q0 -8 -9 -8q-81 1 -147 1q-58 0 -120 -1q-8 0 -8 8v11q0 9 8 9q26 -1 45 -1q18 0 18 18v524q-19 0 -58 -1q-9 0 -9 9v10q0 9 9 9q31 -1 58 -1q1 110 73 168.5t194 58.5q61 0 116 -31.5t55 -88.5 q0 -27 -20 -46t-47 -18q-27 0 -43 16.5t-16 44.5q0 33 31 52q11 8 8.5 17t-13.5 14q-32 14 -67 14q-82 0 -113 -57.5t-16 -143.5h237q23 0 65 1q9 0 9 -9v-542q0 -18 18 -18q17 0 44 1q9 0 9 -9v-11q0 -8 -9 -8q-102 1 -137 1q-48 0 -129 -1q-9 0 -9 8v11q0 9 9 9 q25 -1 44 -1q18 0 18 18v524z" />
<glyph unicode="&#xfb02;" horiz-adv-x="715" d="M397 795q-82 0 -110.5 -57t-13.5 -144q44 0 115 1q8 0 8 -9v-10q0 -9 -8 -9q-62 1 -96 1q-19 0 -19 -16v-508q0 -18 18 -18q15 0 44 1q9 0 9 -9v-11q0 -8 -9 -8q-89 1 -147 1q-38 0 -120 -1q-8 0 -8 8v11q0 9 8 9q23 -1 45 -1q18 0 18 18v524q-29 0 -62 -1q-9 0 -9 9v10 q0 9 9 9q33 -1 62 -1q1 109 74 168t189 59q48 0 91 -17h45q24 0 45 1q9 0 9 -9v-752q0 -18 18 -18q23 0 44 1q9 0 9 -9v-10q0 -9 -9 -9q-84 1 -136 1q-51 0 -130 -1q-9 0 -9 9v10q0 9 9 9q25 -1 44 -1q18 0 18 18v726q0 12 -15.5 18.5t-29.5 6.5z" />
<glyph horiz-adv-x="250" d="M78 -236q40 32 57 67q12 21 -12 21q-23 0 -37.5 14.5t-14.5 36.5q0 23 14.5 37.5t37.5 14.5q27 0 41.5 -19.5t14.5 -45.5q0 -83 -82 -146q-7 -3 -11 1l-8 11q-4 4 0 8z" />
<glyph horiz-adv-x="1171" d="M530 307q5 0 17.5 -0.5t19.5 -0.5l-22 22q-41 37 -143 107q-31 69 -68 108l-4 3q-22 -28 -30 -43q-20 -33 -29 -41q-11 -12 -21 -12t-20 8q-8 8 -8 20q0 9 11 22q7 7 41 28q20 12 44 29q-29 25 -60 45q-24 13 -41 27q-10 10 -10 23q-3 9 7 19q9 9 19 7q12 0 22 -11 q15 -15 28 -40q14 -23 44 -61q22 30 30 45q19 33 28 41q11 10 22 11q12 0 20 -8t7 -20q0 -9 -11 -22q-12 -11 -41 -28q-18 -12 -45 -31l3 -4q38 -37 110 -67q59 -92 104 -142l24 -23v5q0 63 -26 202q28 75 28 125v5q-20 -2 -53 -10q-33 -9 -49 -9q-15 0 -23 8t-8 19 q0 12 8 20q8 7 23 7q13 0 49 -9q27 -8 52 -11q-3 40 -12 75t-9 48t8 24q8 8 20 8q11 0 19 -8q7 -8 7 -24q0 -22 -9 -48q-9 -32 -12 -75q24 3 53 11q34 9 49 9t23 -7q9 -7 9 -20q0 -11 -9 -19q-8 -8 -23 -8q-16 0 -49 9q-37 8 -53 10q-2 -57 29 -130q-23 -106 -26 -169v-1 q-1 -10 -1 -31v-6l23 23q41 46 105 142q71 29 112 71q-14 11 -44 31q-26 15 -41 28q-11 12 -12 22q0 12 8 20t20 8q11 -1 22 -11q8 -8 28 -41q14 -26 30 -45q23 28 43 61q15 26 29 40q10 11 21 11q10 1 20 -7q9 -9 7 -19q0 -11 -10 -23q-14 -12 -41 -27q-35 -23 -61 -45 q25 -18 45 -29q34 -21 40 -28q12 -12 12 -22t-8 -20q-10 -8 -20 -8q-11 0 -21 12q-12 11 -29 41q-12 20 -30 43l-4 -3l-1 1q-33 -35 -68 -109q-110 -77 -136 -101q-1 0 -1 -1l-5 -4l-23 -23q7 0 19.5 0.5t18.5 0.5h2q61 3 168 26q72 -29 130 -29q-3 27 -9 54q-9 33 -9 48 q0 16 7 24q8 8 20 8q11 0 19 -8q8 -10 8 -24t-9 -48q-8 -26 -11 -53q43 3 74 12t48 9q16 0 24 -7t8 -19q0 -15 -8 -20q-10 -8 -24 -8q-13 0 -48 9q-45 10 -74 12q3 -25 11 -52q9 -38 9 -49q0 -14 -8 -24q-8 -8 -19 -8q-12 0 -20 8q-7 7 -7 24q0 16 9 49q6 26 9 52 q-53 1 -130 -28q-110 22 -169 26h-38l23 -22q51 -48 142 -105q29 -70 68 -109q0 -1 0.5 -1t0.5 -1q2 0 2 -2q18 22 32 45q16 29 28 41q9 9 22 11q10 1 19 -8q10 -8 8 -20q0 -12 -11 -21q-13 -13 -40 -28q-25 -15 -45 -31q35 -29 60 -43q31 -18 41 -28q11 -11 11 -22 q0 -12 -7 -19q-11 -9 -20 -8q-14 2 -22 11q-8 7 -28 40q-19 32 -44 61q-16 -22 -30 -45q-16 -28 -28 -40q-9 -10 -21 -12q-13 0 -20 9q-9 7 -9 19q0 10 12 22q17 15 41 28q19 12 44 31q-38 39 -112 72q-76 113 -124 161q-3 1 -4 4v-7q0 -21 1 -30v-2q3 -64 26 -168 q-31 -74 -29 -130q25 3 53 9q33 9 49 9t23 -7q9 -7 9 -20q0 -11 -9 -19q-10 -8 -23 -8q-15 0 -49 9q-29 8 -53 11q3 -43 12 -74q9 -27 9 -48q0 -16 -7 -24t-19 -8q-13 0 -20 8q-8 10 -8 24t9 48q9 35 12 74q-25 -3 -52 -11q-36 -9 -49 -9t-23 8q-8 8 -8 19q0 12 8 20 q7 7 23 7t49 -9q25 -6 53 -9v5q0 47 -28 125q24 132 26 185v22l-4 -4q-48 -48 -124 -161q-74 -33 -111 -70l-2 -2q30 -22 45 -31q24 -13 41 -28q11 -11 11 -22q0 -12 -8 -19q-9 -9 -20 -9q-12 2 -22 12q-13 15 -28 40q-12 23 -30 45q-25 -31 -43 -61q-20 -33 -28 -40 q-8 -9 -22 -11q-11 -2 -20 8q-9 8 -7 19q0 11 11 22q10 10 41 28q25 14 60 43q-20 16 -45 31q-27 15 -40 28q-11 9 -11 21q-2 12 8 20q9 9 19 8q13 -2 22 -11q12 -12 28 -41q12 -18 31 -45l4 4q36 37 68 109q92 59 142 105l22 22h-38q-60 -4 -168 -26q-77 29 -130 28 q3 -29 10 -52q9 -33 9 -49t-8 -24t-19 -8q-12 0 -20 8q-7 8 -7 24q0 12 9 49q8 31 10 52q-31 -2 -74 -12q-34 -9 -48 -9q-13 0 -24 8q-8 6 -8 20q0 11 8 19q8 7 24 7q18 0 48 -9q31 -9 74 -12q-2 22 -10 53q-9 34 -9 48q0 16 7 24q8 8 20 8q11 0 19 -8q8 -10 8 -24 q0 -15 -9 -48q-7 -24 -10 -54q56 -1 130 29q104 -23 167 -26h3z" />
<glyph horiz-adv-x="1339" d="M1073 232l8 -56l-933 -132l-68 476l932 131l59 -410h-102v-9h104zM662 298q24 24 24 68q0 40 -20 65q-23 29 -66 29h-63v-187h63q39 0 62 25zM600 439q32 0 48 -21q15 -20 15 -52q0 -35 -17 -54q-16 -18 -46 -18h-41v145h41zM335 470v29h-156v-29h63v-199h31v199h62z M958 408v13h-88v-145h14v71h59v12h-59v49h74zM501 210v13h-156v-13h156zM839 221v11h-130v-11h130zM1234 299h25v-28h-25v28zM1165 271v28h25v-28h-25zM1097 271v28h24v-28h-24z" />
</font>
</defs>
</svg>
