<?xml version="1.0" encoding="UTF-8"?>
<!-- Generator: Adobe Illustrator 18.1.1, SVG Export Plug-In . SVG Version: 6.00 Build 0)  -->
<svg version="1.1" id="Layer_1" xmlns="http://www.w3.org/2000/svg" xmlns:xlink="http://www.w3.org/1999/xlink" x="0px" y="0px" viewBox="199.5 77.1 441.9 357.2" enable-background="new 199.5 77.1 441.9 357.2" xml:space="preserve">
<g>
	<path fill="#676767" d="M420.9,374.2c-59.2,0-113.9,10-141.2,27.3c-0.9,0.9-1.8,1.8-1.8,2.7s0.9,1.8,1.8,2.7   c28.2,16.4,82.9,27.3,141.2,27.3c59.2,0,113.9-10,141.2-27.3c0.9-0.9,1.8-1.8,1.8-2.7s-0.9-1.8-1.8-2.7   C533.9,385.1,479.3,374.2,420.9,374.2z M420.9,381.5c53.8,0,103.9,9.1,132.1,23.7c-28.2,14.6-78.4,23.7-132.1,23.7   s-103.9-9.1-132.1-23.7C316.2,389.7,366.3,381.5,420.9,381.5z"/>
	<path fill="#676767" d="M420.9,202.9c-41.9,15.5-51-2.7-72-21c-29.2-25.5-39.2-17.3-43.7-14.6c-6.4,3.6-6.4,8.2-6.4,8.2   c0.9,4.6,0.9,6.4,0.9,7.3c0.9,0.9,1.8,0.9,2.7,1.8c-0.9-0.9-0.9-1.8-0.9-2.7c0-4.6,3.6-7.3,8.2-7.3c4.6,0,8.2,3.6,8.2,7.3   c0,3.6-3.6,7.3-7.3,7.3c1.8,1.8,4.6,2.7,6.4,4.6c0.9,0.9,1.8,1.8,3.6,1.8c0-0.9,0-1.8,0-2.7c0-4.6,3.6-7.3,8.2-7.3   c4.6,0,8.2,3.6,8.2,7.3s-3.6,7.3-7.3,7.3c3.6,1.8,7.3,3.6,10,5.5c0-0.9-0.9-1.8-0.9-2.7c0-4.6,3.6-7.3,8.2-7.3   c4.6,0,8.2,3.6,8.2,7.3c0,2.7-1.8,5.5-4.6,7.3c2.7,0.9,5.5,1.8,8.2,2.7l0,0c0-4.6,3.6-7.3,8.2-7.3s7.3,3.6,7.3,7.3   c0,0.9,0,1.8-0.9,3.6c1.8,0,2.7,0,4.6,0l0,0c0-4.6,3.6-7.3,8.2-7.3c4.6,0,7.3,3.6,7.3,7.3c13.7-1.8,23.7-7.3,23.7-7.3l1.8,4.6   c-51.9,27.3-78.4,5.5-106.6-13.7c-4.6-2.7-8.2-5.5-11.8-7.3l0,0c6.4,7.3-0.9,12.8-0.9,12.8c-11.8,7.3,0.9,23.7,0.9,23.7L297,232   l0,0c-0.9,2.7-3.6,4.6-7.3,4.6c-4.6,0-7.3-3.6-7.3-7.3s1.8-6.4,5.5-7.3c-1.8-1.8-2.7-3.6-3.6-5.5c-0.9,3.6-3.6,5.5-7.3,5.5   c-4.6,0-8.2-3.6-8.2-7.3c0-3.6,3.6-7.3,8.2-7.3c1.8,0,2.7,0,4.6,0.9c-0.9-2.7-1.8-6.4-1.8-10c-1.8,1.8-4.6,3.6-7.3,3.6   c-4.6,0-9.1-3.6-9.1-8.2c0-4.6,3.6-8.2,9.1-8.2c3.6,0,6.4,1.8,7.3,4.6c0-1.8,0.9-3.6,0.9-5.5c-20-5.5-31.9,1.8-35.5,4.6   c-7.3,5.5-6.4,10.9-6.4,10.9c3.6,10-5.5,7.3-5.5,7.3c-10,1.8-2.7,10-2.7,10c8.2,8.2-0.9,15.5-0.9,15.5c-10,9.1,15.5,33.7,15.5,33.7   L236,263c-2.7-1.8-4.6-3.6-7.3-5.5c-0.9,2.7-3.6,5.5-7.3,5.5c-4.6,0-8.2-3.6-8.2-7.3s3.6-7.3,7.3-7.3c-0.9-1.8-1.8-3.6-2.7-5.5   c-0.9,2.7-3.6,5.5-7.3,5.5c-4.6,0-8.2-3.6-8.2-7.3c0-4.6,3.6-7.3,8.2-7.3c1.8,0,3.6,0.9,4.6,1.8c-0.9-3.6-0.9-7.3-0.9-10.9v-0.9   c-1.8,1.8-3.6,3.6-6.4,3.6c-4.6,0-8.2-3.6-8.2-7.3c0-3.6,3.6-7.3,8.2-7.3c3.6,0,6.4,1.8,7.3,4.6c0.9-4.6,2.7-9.1,4.6-13.7   c-0.9,0.9-2.7,1.8-5.5,1.8c-4.6,0-7.3-3.6-7.3-7.3c0-4.6,3.6-7.3,7.3-7.3c4.6,0,8.2,3.6,8.2,7.3v0.9c2.7-4.6,6.4-8.2,10-10.9   c-0.9,0-1.8,0.9-2.7,0.9c-4.6,0-9.1-3.6-9.1-8.2s3.6-8.2,9.1-8.2c4.6,0,9.1,3.6,9.1,8.2c0,1.8-0.9,3.6-1.8,4.6   c4.6-2.7,9.1-5.5,14.6-6.4c-4.6-0.9-7.3-4.6-7.3-8.2c0-4.6,3.6-8.2,9.1-8.2c5.5,0,9.1,3.6,9.1,8.2c0,2.7-1.8,5.5-3.6,7.3   c2.7,0,4.6-0.9,7.3-0.9c1.8,0,4.6,0,6.4,0c-1.8-1.8-2.7-3.6-2.7-6.4c0-4.6,3.6-8.2,9.1-8.2c4.6,0,9.1,3.6,9.1,8.2   c0,0.9,0,0.9,0,1.8c2.7-3.6,6.4-6.4,10-9.1c-4.6,0-7.3-3.6-7.3-7.3s3.6-7.3,8.2-7.3c4.6,0,7.3,3.6,7.3,7.3c0,1.8-0.9,2.7-0.9,3.6   c3.6-1.8,8.2-1.8,12.8-1.8c-1.8-0.9-2.7-3.6-2.7-5.5c0-4.6,3.6-7.3,8.2-7.3c4.6,0,7.3,3.6,7.3,7.3c0,2.7-1.8,5.5-4.6,6.4   c3.6,0.9,7.3,1.8,11.8,3.6c-0.9-0.9-0.9-1.8-0.9-2.7c0-3.6,2.7-6.4,6.4-6.4s6.4,2.7,6.4,6.4c0,3.6-2.7,6.4-6.4,6.4   c1.8,0.9,3.6,2.7,5.5,4.6c0.9-1.8,3.6-2.7,5.5-2.7c3.6,0,6.4,2.7,6.4,6.4c0,1.8-0.9,3.6-2.7,5.5c1.8,1.8,3.6,3.6,6.4,5.5   c0.9-1.8,2.7-2.7,5.5-2.7c3.6,0,6.4,2.7,6.4,6.4c0,1.8-0.9,2.7-1.8,4.6c1.8,0.9,3.6,2.7,5.5,3.6c0.9-2.7,3.6-3.6,6.4-3.6   c3.6,0,6.4,2.7,6.4,6.4c0,0.9,0,2.7-0.9,3.6C410.9,210.2,420.9,202.9,420.9,202.9L420.9,202.9L420.9,202.9L420.9,202.9L420.9,202.9   c0,0,10,8.2,29.2,0.9c-0.9-0.9-0.9-1.8-0.9-3.6c0-3.6,2.7-6.4,6.4-6.4c2.7,0,5.5,1.8,6.4,3.6c1.8-0.9,3.6-1.8,5.5-3.6   c-0.9-0.9-1.8-2.7-1.8-4.6c0-3.6,2.7-6.4,6.4-6.4c1.8,0,4.6,0.9,5.5,2.7c1.8-1.8,3.6-3.6,6.4-5.5c-1.8-0.9-2.7-2.7-2.7-5.5   c0-3.6,2.7-6.4,6.4-6.4c2.7,0,4.6,0.9,5.5,2.7c1.8-1.8,3.6-2.7,5.5-4.6c-3.6,0-6.4-2.7-6.4-6.4c0-3.6,2.7-6.4,6.4-6.4   s6.4,2.7,6.4,6.4c0,0.9,0,1.8-0.9,2.7c4.6-1.8,8.2-3.6,11.8-3.6c-2.7-0.9-4.6-3.6-4.6-6.4c0-4.6,3.6-7.3,7.3-7.3   c4.6,0,8.2,3.6,8.2,7.3c0,2.7-0.9,4.6-2.7,5.5c4.6,0,9.1,0.9,12.8,1.8c-0.9-0.9-0.9-2.7-0.9-3.6c0-3.6,3.6-7.3,7.3-7.3   c4.6,0,8.2,3.6,8.2,7.3s-3.6,7.3-7.3,7.3c3.6,2.7,7.3,5.5,10,9.1c0-0.9,0-0.9,0-1.8c0-4.6,3.6-8.2,9.1-8.2c4.6,0,9.1,3.6,9.1,8.2   c0,2.7-0.9,4.6-2.7,6.4c1.8,0,4.6,0,6.4,0c2.7,0,4.6,0,7.3,0.9c-2.7-1.8-3.6-4.6-3.6-7.3c0-4.6,3.6-8.2,9.1-8.2   c4.6,0,9.1,3.6,9.1,8.2c0,4.6-3.6,8.2-7.3,8.2c5.5,1.8,10,3.6,14.6,6.4c-0.9-0.9-1.8-2.7-1.8-4.6c0-4.6,3.6-8.2,9.1-8.2   c4.6,0,9.1,3.6,9.1,8.2s-3.6,8.2-9.1,8.2c-0.9,0-1.8,0-2.7-0.9c3.6,3.6,7.3,7.3,10,10.9v-0.9c0-4.6,3.6-7.3,7.3-7.3   c4.6,0,7.3,3.6,7.3,7.3c0,3.6-3.6,7.3-7.3,7.3c-1.8,0-3.6-0.9-5.5-1.8c1.8,4.6,3.6,9.1,4.6,13.7c0.9-2.7,3.6-4.6,7.3-4.6   c4.6,0,8.2,3.6,8.2,7.3c0,4.6-3.6,7.3-8.2,7.3c-2.7,0-5.5-0.9-6.4-3.6v0.9c0,3.6,0,7.3-0.9,10.9c0.9-0.9,2.7-1.8,4.6-1.8   c4.6,0,8.2,3.6,8.2,7.3c0,4.6-3.6,7.3-8.2,7.3c-3.6,0-6.4-1.8-7.3-5.5c-0.9,1.8-1.8,3.6-2.7,5.5c3.6,0,7.3,3.6,7.3,7.3   c0,4.6-3.6,7.3-8.2,7.3c-3.6,0-6.4-1.8-7.3-5.5c-1.8,1.8-4.6,3.6-7.3,5.5l-9.1,3.6c0,0,24.6-23.7,15.5-33.7c0,0-8.2-7.3-0.9-15.5   c0,0,8.2-8.2-2.7-10c0,0-9.1,2.7-5.5-7.3c0,0,0.9-5.5-6.4-10.9c-3.6-2.7-15.5-10-35.5-4.6c0,1.8,0.9,3.6,0.9,5.5   c1.8-2.7,4.6-4.6,7.3-4.6c4.6,0,9.1,3.6,9.1,8.2c0,4.6-3.6,8.2-9.1,8.2c-2.7,0-5.5-1.8-7.3-3.6c0,3.6-0.9,6.4-1.8,10   c0.9-0.9,2.7-0.9,3.6-0.9c4.6,0,8.2,3.6,8.2,7.3c0,3.6-3.6,7.3-8.2,7.3c-3.6,0-6.4-2.7-7.3-5.5c-0.9,1.8-2.7,3.6-3.6,5.5   c2.7,0.9,5.5,3.6,5.5,7.3c0,4.6-3.6,7.3-7.3,7.3c-3.6,0-6.4-1.8-7.3-4.6l0,0l-1.8-2.7c0,0,11.8-16.4,4.6-23.7c0,0-7.3-6.4-0.9-12.8   l0,0c-3.6,1.8-8.2,4.6-11.8,7.3c-28.2,19.1-55.6,41-106.6,13.7l1.8-4.6c0,0,10,5.5,23.7,7.3c0-3.6,3.6-7.3,7.3-7.3   c4.6,0,8.2,3.6,8.2,7.3l0,0c1.8,0,2.7,0,4.6,0c-0.9-0.9-0.9-1.8-0.9-3.6c0-4.6,3.6-7.3,8.2-7.3c4.6,0,8.2,3.6,8.2,7.3l0,0   c2.7-0.9,5.5-1.8,8.2-2.7c-2.7-0.9-4.6-3.6-4.6-7.3c0-4.6,3.6-7.3,8.2-7.3c4.6,0,8.2,3.6,8.2,7.3c0,0.9,0,1.8-0.9,2.7   c3.6-1.8,7.3-3.6,10-5.5c-4.6,0-7.3-3.6-7.3-7.3c0-4.6,3.6-7.3,8.2-7.3s8.2,3.6,8.2,7.3c0,0.9,0,1.8,0,2.7c0.9-0.9,1.8-1.8,3.6-1.8   c2.7-1.8,4.6-3.6,6.4-4.6c-4.6,0-7.3-3.6-7.3-7.3c0-4.6,3.6-7.3,7.3-7.3c4.6,0,8.2,3.6,8.2,7.3c0,0.9,0,1.8-0.9,2.7   c0.9-0.9,1.8-0.9,2.7-1.8c0-0.9,0-3.6,0.9-7.3c0,0,0-3.6-6.4-8.2c-4.6-2.7-15.5-10.9-43.7,14.6C472,200.1,462.9,218.4,420.9,202.9z   "/>
	<path fill="#676767" d="M424.6,122.7c15.5,1.8,27.3,12.8,28.2,28.2c-8.2-3.6-18.2-5.5-28.2-6.4V122.7"/>
	<path fill="#676767" d="M424.6,151.9v3.6c0.9,0.9,1.8,1.8,2.7,2.7c0.9,0.9,1.8,2.7,1.8,4.6c0,0,0.9,3.6,4.6,6.4   c0.9,0,5.5,2.7,5.5,6.4c0,1.8-0.9,3.6-1.8,4.6c9.1-4.6,15.5-12.8,17.3-21.9C444.6,154.6,434.6,151.9,424.6,151.9z"/>
	<path fill="#676767" d="M420.9,77.1c-2.7,0-5.5,2.7-5.5,5.5c0,0.9,0.9,2.7,1.8,3.6c-0.9-0.9-2.7-1.8-3.6-1.8   c-2.7,0-5.5,2.7-5.5,5.5s2.7,5.5,5.5,5.5c1.8,0,2.7-0.9,3.6-2.7v10.9h-10.9c0.9-0.9,0.9-1.8,0.9-3.6c0-2.7-2.7-5.5-5.5-5.5   s-5.5,2.7-5.5,5.5c0,0.9,0.9,2.7,1.8,3.6c-0.9,0-2.7-1.8-3.6-1.8c-2.7,0-5.5,2.7-5.5,5.5c0,2.7,2.7,5.5,5.5,5.5   c0.9,0,2.7-0.9,3.6-1.8c-0.9,0.9-1.8,2.7-1.8,3.6c0,2.7,2.7,5.5,5.5,5.5s5.5-2.7,5.5-5.5c0-1.8-0.9-2.7-1.8-3.6h10.9v10.9h7.3v-10   h10.9c-0.9,0.9-1.8,2.7-1.8,3.6c0,2.7,2.7,5.5,5.5,5.5s5.5-2.7,5.5-5.5c0-0.9-0.9-2.7-1.8-3.6c0.9,0.9,2.7,1.8,3.6,1.8   c2.7,0,5.5-2.7,5.5-5.5c0-2.7-2.7-5.5-5.5-5.5c-0.9,0-2.7,0.9-3.6,1.8c0-0.9,1.8-2.7,1.8-3.6c0-2.7-2.7-5.5-5.5-5.5   s-5.5,2.7-5.5,5.5c0,0.9,0,2.7,0.9,3.6h-10.9V92.6c0.9,0.9,2.7,2.7,3.6,2.7c2.7,0,5.5-2.7,5.5-5.5c0-2.7-2.7-5.5-5.5-5.5   c-0.9,0-2.7,0.9-3.6,1.8c0.9-0.9,1.8-2.7,1.8-3.6C426.4,79.9,423.7,77.1,420.9,77.1"/>
	<path fill="#676767" d="M417.3,122.7c-15.5,1.8-27.3,12.8-28.2,28.2c8.2-3.6,18.2-5.5,28.2-6.4V122.7"/>
	<path fill="#676767" d="M417.3,151.9v3.6c-0.9,0.9-1.8,1.8-2.7,2.7c-0.9,0.9-1.8,2.7-1.8,4.6c0,0-0.9,3.6-4.6,6.4   c-0.9,0-5.5,2.7-5.5,6.4c0,1.8,0.9,3.6,1.8,4.6c-9.1-4.6-15.5-12.8-17.3-21.9C396.3,154.6,406.4,151.9,417.3,151.9z"/>
	<path fill="#676767" d="M420,366.9c-4.6,0-9.1,0-13.7,0c-51.9,1.8-98.4,10.9-127.6,26.4v-5.5h-2.7h-2.7l-1.8-4.6   c-0.9-3.6-2.7-6.4-2.7-10c0-3.6,0.9-7.3,1.8-10l1.8-4.6h0.9l1.8-0.9h0.9V355h0.9c27.3-21,82.9-34.6,143-34.6h1.8   c59.2,0,115.7,13.7,143,34.6h0.9v2.7h0.9l1.8,0.9h0.9l1.8,4.6c0.9,3.6,2.7,6.4,1.8,10c0,3.6-1.8,7.3-2.7,10l-1.8,4.6h-2.7h-2.7v5.5   c-29.2-15.5-76.5-24.6-127.6-26.4c-4.6,0-9.1,0-13.7,0H420z M454.7,355c0,4.6,3.6,7.3,8.2,7.3c4.6,0,8.2-3.6,8.2-7.3   c0-4.6-3.6-7.3-7.3-7.3C457.4,347.8,454.7,351.4,454.7,355z M454.7,335c0,4.6,3.6,7.3,7.3,7.3c4.6,0,8.2-3.6,8.2-7.3   c0-4.6-3.6-7.3-7.3-7.3C458.3,326.8,454.7,330.4,454.7,335z M526.6,369.6c0,4.6,2.7,7.3,6.4,7.3c3.6,0,6.4-3.6,6.4-7.3   c0-4.6-2.7-7.3-6.4-7.3C529.4,362.3,526.6,366,526.6,369.6z M526.6,350.5c0,4.6,2.7,7.3,6.4,7.3c3.6,0,6.4-3.6,6.4-7.3   c0-4.6-2.7-7.3-6.4-7.3C529.4,343.2,526.6,345.9,526.6,350.5z M497.5,366l10.9-16.4l-10-16.4l-10.9,16.4L497.5,366z M560.3,385.1   c1.8,0,4.6-0.9,4.6-0.9s0,0,0.9,0c0-0.9,0.9-2.7,0.9-2.7c0.9-2.7,2.7-6.4,2.7-9.1l0,0c0-2.7-0.9-5.5-1.8-9.1c0,0-0.9-1.8-0.9-2.7   c-0.9,0-0.9,0-0.9,0s-1.8,0-3.6-0.9C561.3,363.2,561.3,381.5,560.3,385.1z M420.9,357.8c5.5,0,10.9-0.9,16.4-1.8   c0.9-3.6,1.8-8.2,1.8-12.8c0-4.6-0.9-8.2-1.8-11.8c-5.5-0.9-10.9-1.8-16.4-1.8s-10.9,0.9-16.4,1.8c-0.9,3.6-1.8,8.2-1.8,11.8   c0,4.6,0.9,8.2,1.8,12.8C410,356.9,415.5,357.8,420.9,357.8z M379,347.8c-4.6,0-7.3,3.6-7.3,7.3c0,3.6,3.6,7.3,8.2,7.3   c4.6,0,8.2-3.6,8.2-7.3C387.2,351.4,383.6,347.8,379,347.8z M379,326.8c-4.6,0-7.3,3.6-7.3,7.3c0,4.6,3.6,7.3,8.2,7.3   c4.6,0,7.3-3.6,7.3-7.3C387.2,330.4,383.6,326.8,379,326.8z M308.9,362.3c-3.6,0-6.4,3.6-6.4,7.3c0,4.6,2.7,7.3,6.4,7.3   s6.4-3.6,6.4-7.3C315.3,366,312.5,362.3,308.9,362.3z M308,343.2c-3.6,0-6.4,3.6-6.4,7.3c0,4.6,2.7,7.3,6.4,7.3s6.4-3.6,6.4-7.3   C315.3,345.9,311.6,343.2,308,343.2z M354.4,349.6l-10.9-16.4l-10,16.4l10.9,16.4L354.4,349.6z M279.7,359.6   c-1.8,0-3.6,0.9-3.6,0.9h-0.9c0,0.9-0.9,2.7-0.9,2.7c-0.9,2.7-1.8,5.5-1.8,9.1l0,0c0,2.7,1.8,6.4,2.7,9.1c0,0,0.9,1.8,0.9,2.7h0.9   c0,0,2.7,0,4.6,0.9C280.6,381.5,279.7,363.2,279.7,359.6z"/>
	<path fill="#676767" d="M502.9,296.7c-5.5,5.5-12.8,9.1-20,7.3c-5.5-1.8-9.1-6.4-12.8-12.8h0.9c5.5,0,10-4.6,10-10s-4.6-10-10-10   s-10,4.6-10,10c0,3.6,1.8,6.4,5.5,8.2c-5.5,5.5-11.8,9.1-20,9.1c-9.1,0-18.2-3.6-23.7-10.9l0,0c-0.9-0.9-0.9-3.6,0-4.6   c0.9-0.9,2.7-0.9,3.6,0l0,0c4.6,4.6,10,8.2,16.4,9.1c2.7,0.9,6.4,0,8.2-1.8c1.8-1.8,2.7-5.5,1.8-9.1l0,0c4.6,0,8.2-6.4,8.2-13.7   c0-7.3-3.6-13.7-8.2-13.7l0,0c0.9-3.6,0-6.4-1.8-9.1c-3.6-4.6-10.9-2.7-16.4,2.7c-1.8,1.8-2.7,3.6-3.6,5.5l0,0   c0,0.9-0.9,1.8-2.7,1.8c-1.8,0-2.7-0.9-2.7-2.7c0-1.8,0.9-2.7,2.7-2.7c1.8,0,4.6-1.8,7.3-5.5c1.8-2.7,3.6-5.5,4.6-8.2   c21.9,1.8,41,6.4,57.4,12.8c-0.9,0-1.8,0-2.7,0.9c-1.8,1.8-2.7,2.7-3.6,6.4l0,0c-2.7-0.9-7.3,3.6-9.1,10   c-1.8,7.3-0.9,13.7,1.8,15.5l0,0c-0.9,2.7-1.8,6.4-0.9,9.1c0.9,2.7,1.8,4.6,4.6,4.6c4.6,0.9,9.1,0,12.8-3.6l0,0   c0.9-0.9,1.8-0.9,2.7,0.9C504.8,294,503.9,295.8,502.9,296.7L502.9,296.7z M569.5,322.2l-0.9,4.6c-6.4,5.5-15.5,2.7-20-0.9   c-3.6-2.7-5.5-9.1-6.4-17.3c0.9,0,1.8,0,2.7,0c4.6,0,7.3-3.6,7.3-7.3c0-4.6-3.6-7.3-7.3-7.3c-4.6,0-8.2,3.6-8.2,7.3   c0,2.7,0.9,4.6,3.6,6.4c-4.6,5.5-11.8,8.2-17.3,6.4c-9.1-2.7-13.7-7.3-14.6-16.4c0-1.8,0-2.7,1.8-3.6c0.9-0.9,1.8,0,1.8,1.8l0,0   c0.9,6.4,4.6,9.1,8.2,11.8c1.8,1.8,3.6,1.8,5.5,0c1.8-1.8,2.7-2.7,3.6-6.4l0,0c2.7,0.9,7.3-3.6,9.1-10c1.8-7.3,0.9-13.7-1.8-14.6   l0,0c0.9-1.8,1.8-2.7,2.7-3.6c10.9,10.9,18.2,22.8,20,36.4c-2.7,0.9-3.6,1.8-3.6,3.6c-0.9,2.7,0,4.6,0.9,6.4   c2.7,2.7,6.4,3.6,10.9,1.8l0,0C569.5,319.5,569.5,320.4,569.5,322.2z M338,296.7c-0.9-0.9-0.9-2.7-0.9-4.6c0-0.9,1.8-1.8,2.7-0.9   l0,0c3.6,3.6,8.2,5.5,12.8,3.6c1.8,0,3.6-1.8,4.6-4.6c0.9-2.7,0-6.4-0.9-9.1l0,0c2.7-1.8,3.6-8.2,1.8-15.5   c-1.8-7.3-6.4-11.8-9.1-10l0,0c-0.9-3.6-1.8-4.6-3.6-6.4c-0.9-0.9-1.8-0.9-2.7-0.9c16.4-6.4,36.4-10.9,57.4-12.8   c0.9,2.7,1.8,6.4,4.6,8.2c2.7,2.7,5.5,4.6,7.3,5.5c1.8,0,2.7,1.8,2.7,2.7c0,1.8-0.9,2.7-2.7,2.7c-0.9,0-1.8-0.9-2.7-1.8l0,0   c-0.9-1.8-1.8-2.7-3.6-5.5c-5.5-5.5-12.8-7.3-16.4-2.7c-1.8,1.8-2.7,5.5-1.8,9.1l0,0c-4.6,0-8.2,6.4-8.2,13.7s3.6,13.7,8.2,13.7   l0,0c-0.9,3.6,0,6.4,1.8,9.1c1.8,1.8,4.6,2.7,8.2,1.8c6.4-0.9,11.8-3.6,16.4-9.1l0,0c0.9-0.9,2.7-1.8,3.6,0c0.9,0.9,0.9,2.7,0,4.6   l0,0c-5.5,8.2-13.7,10.9-23.7,10.9c-8.2,0-14.6-3.6-20-9.1c2.7-1.8,5.5-4.6,5.5-8.2c0-5.5-4.6-10-10-10s-10,4.6-10,10s4.6,10,10,10   h0.9c-3.6,5.5-7.3,10.9-12.8,12.8C351.7,305.8,343.5,302.2,338,296.7L338,296.7z M273.3,320.4L273.3,320.4   c4.6,1.8,8.2,1.8,10.9-1.8c1.8-0.9,1.8-3.6,0.9-6.4c0-0.9-0.9-2.7-1.8-4.6c1.8-13.7,9.1-26.4,20-36.4c0.9,0.9,1.8,1.8,2.7,3.6l0,0   c-2.7,0.9-3.6,8.2-1.8,14.6c1.8,7.3,6.4,11.8,9.1,10l0,0c0.9,3.6,1.8,4.6,3.6,6.4c1.8,1.8,3.6,1.8,5.5,0c3.6-2.7,6.4-5.5,8.2-11.8   l0,0c0-1.8,0.9-1.8,1.8-1.8c0.9,0.9,1.8,2.7,1.8,3.6c-0.9,9.1-6.4,13.7-14.6,16.4c-6.4,1.8-12.8-0.9-17.3-6.4   c1.8-0.9,3.6-3.6,3.6-6.4c0-4.6-3.6-7.3-8.2-7.3c-4.6,0-7.3,3.6-7.3,7.3c0,4.6,3.6,7.3,7.3,7.3c0.9,0,1.8,0,2.7,0   c-0.9,7.3-1.8,14.6-6.4,17.3c-5.5,3.6-13.7,5.5-20,0.9L273.3,320.4C271.5,320.4,272.4,319.5,273.3,320.4z M421.9,311.3   c57.4,0,112.1,12.8,142.1,31.9c0,0,0.9,0,0.9,0.9c0,0,9.1-13.7,11.8-18.2l2.7-1.8c12.8-7.3,12.8-8.2,12.8-8.2l0,0   c0-0.9,0.9-7.3,0.9-11.8v-1.8c7.3-9.1,13.7-16.4,21.9-20c7.3-2.7,15.5-3.6,15.5-3.6s-1.8-10-18.2-3.6h-0.9c0-0.9-0.9-6.4-0.9-7.3   c-0.9-0.9-1.8-0.9-2.7,0c-4.6,1.8-10.9,10-13.7,16.4c-1.8,1.8-1.8,3.6-1.8,5.5c0,0.9-1.8,1.8-2.7,3.6l-0.9,0.9   c-0.9,0.9-2.7,2.7-2.7,2.7c0-0.9,0-1.8,0.9-2.7l0,0c0.9-1.8,1.8-3.6,1.8-6.4c1.8-7.3,0.9-12.8-3.6-10.9c-1.8,0.9-4.6,2.7-6.4,6.4   l0,0c-1.8-2.7-6.4,0-10.9,6.4c-1.8,2.7-3.6,5.5-4.6,7.3c-4.6-13.7-15.5-26.4-29.2-37.4c4.6-2.7,8.2-5.5,7.3-9.1   c0-1.8-0.9-2.7-1.8-3.6c-0.9,0-3.6-1.8-4.6-2.7l0,0c4.6-6.4,7.3-5.5,6.4-9.1l-0.9-0.9l0,0c0,0-1.8-7.3-16.4,3.6H523   c-0.9-0.9-2.7-1.8-3.6-1.8c-0.9,0-2.7,0-3.6,0.9c-2.7,1.8-5.5,5.5-6.4,10c-19.1-8.2-41-13.7-66.5-15.5c0-0.9-0.9-1.8-1.8-2.7   c-0.9-1.8-2.7-1.8-4.6-2.7c-0.9,0-1.8,0-2.7,0l0,0c0-3.6-2.7-7.3-6.4-8.2c0.9-5.5,1.8-6.4,7.3-10.9l2.7-2.7   c1.8-1.8,2.7-2.7,2.7-4.6l0,0c0-2.7-3.6-5.5-5.5-6.4c-4.6-4.6-6.4-7.3-6.4-9.1l0,0c0-2.7,2.7-4.6,3.6-4.6c0.9-0.9,1.8-1.8,1.8-1.8   l0,0c0-0.9-1.8-2.7-2.7-2.7c-3.6-2.7-5.5-5.5-6.4-8.2l0,0l0,0c0-2.7-0.9-5.5-3.6-5.5c-2.7,0-3.6,1.8-3.6,5.5l0,0l0,0   c-0.9,1.8-1.8,5.5-6.4,8.2c-1.8,0.9-2.7,1.8-2.7,2.7l0,0c0,0.9,0.9,1.8,1.8,1.8c0.9,0,2.7,2.7,3.6,4.6l0,0c0,1.8-1.8,5.5-4.6,8.2   c-1.8,0.9-4.6,3.6-5.5,6.4l0,0c0,1.8,0.9,2.7,2.7,4.6l2.7,2.7c4.6,4.6,6.4,5.5,7.3,10.9c-3.6,1.8-6.4,4.6-6.4,8.2l0,0   c-0.9,0-1.8,0-2.7,0c-1.8,0-3.6,0.9-4.6,2.7c-0.9,0.9-0.9,1.8-1.8,2.7c-25.5,1.8-48.3,7.3-66.5,15.5c-0.9-4.6-4.6-8.2-6.4-10   c-0.9-0.9-2.7-0.9-3.6-0.9c-0.9,0-2.7,1.8-3.6,1.8c0,0,0,0-0.9,0c-14.6-10.9-16.4-3.6-16.4-3.6l0,0l-2.7,0.9   c-1.8,3.6,0.9,2.7,6.4,9.1l0,0c-0.9,0-3.6,1.8-4.6,2.7c-0.9,0.9-1.8,1.8-1.8,3.6c-0.9,3.6,3.6,6.4,7.3,9.1   c-14.6,10-24.6,22.8-29.2,37.4c-0.9-2.7-2.7-4.6-4.6-7.3c-4.6-6.4-10-9.1-10.9-6.4l0,0c-1.8-2.7-4.6-5.5-6.4-6.4   c-3.6-1.8-5.5,3.6-3.6,10.9c0.9,2.7,0.9,4.6,1.8,6.4l0,0c0.9,0.9,0.9,2.7,0.9,2.7c-0.9,0.9-1.8-0.9-2.7-2.7h-0.9   c-0.9-0.9-2.7-2.7-2.7-3.6s-0.9-3.6-2.7-7.3c-3.6-6.4-10-15.5-13.7-16.4c-1.8-0.9-2.7,0-2.7,0s-0.9,6.4-0.9,7.3h-0.9   c-16.4-6.4-18.2,3.6-18.2,3.6s9.1,0.9,15.5,3.6c8.2,3.6,14.6,10.9,21.9,20v1.8c0,5.5,0.9,10.9,0.9,11.8l0,0c0,0.9,0,1.8,12.8,8.2   l2.7,1.8c3.6,5.5,11.8,18.2,11.8,18.2l0.9-0.9c30.1-19.1,84.7-31.9,142.1-31.9h2.7V311.3z M519.3,266.7c0.9-1.8,1.8-2.7,2.7-1.8   c1.8,0,2.7,0,4.6-0.9c0.9,0.9,1.8,0.9,2.7,1.8c-0.9,0-1.8,0.9-1.8,0.9c-1.8,0.9-3.6,3.6-7.3,2.7   C518.4,269.4,518.4,268.5,519.3,266.7z M506.6,257.5c-0.9-2.7-1.8-5.5-3.6-6.4c1.8,0.9,3.6,1.8,4.6,1.8c0.9,2.7,0.9,4.6,2.7,5.5   c0.9,0.9,0.9,1.8,0,3.6c-0.9,1.8-1.8,2.7-2.7,2.7c-0.9,0-0.9-1.8-0.9-2.7l0,0C506.6,260.3,506.6,260.3,506.6,257.5z M508.4,285.8   c-1.8-0.9-2.7-1.8-3.6-2.7c0-1.8,0.9-4.6,0.9-6.4c0.9-1.8,1.8-4.6,1.8-6.4c1.8,0,2.7,0.9,4.6,0.9c1.8,0.9,2.7,1.8,3.6,2.7   c0,1.8-0.9,4.6-0.9,6.4c-0.9,1.8-1.8,4.6-2.7,6.4C511.1,286.7,509.3,286.7,508.4,285.8z M588.6,305.8c0,2.7-0.9,7.3-0.9,8.2   c-0.9,0.9-4.6,2.7-8.2,4.6c0-3.6,0-8.2,0-10C582.2,308.6,585.9,306.8,588.6,305.8z M321.6,270.3c-3.6,0.9-5.5-1.8-7.3-2.7   c-0.9-0.9-1.8-0.9-1.8-0.9c0.9-0.9,1.8-0.9,2.7-1.8c1.8,0.9,3.6,0.9,4.6,0.9c0.9,0,1.8,0,2.7,1.8   C322.5,268.5,322.5,269.4,321.6,270.3z M334.4,262.1L334.4,262.1c0,0.9,0,2.7-0.9,2.7s-2.7-0.9-2.7-2.7c-0.9-1.8,0-2.7,0-3.6   c0.9-0.9,1.8-2.7,2.7-5.5c1.8-0.9,3.6-1.8,4.6-1.8c-1.8,1.8-2.7,3.6-3.6,6.4C334.4,260.3,334.4,260.3,334.4,262.1z M328.9,286.7   c-0.9-1.8-1.8-3.6-2.7-6.4c-0.9-1.8-0.9-4.6-0.9-6.4c0.9-0.9,2.7-1.8,3.6-2.7c1.8-0.9,2.7-0.9,4.6-0.9c0.9,1.8,1.8,3.6,1.8,6.4   c0.9,1.8,0.9,4.6,0.9,6.4c-0.9,0.9-2.7,1.8-3.6,2.7C331.7,286.7,329.8,286.7,328.9,286.7z M420.9,275.8c-2.7,0-4.6,0-6.4-0.9   c-0.9-1.8-0.9-4.6-0.9-6.4c0-2.7,0-4.6,0.9-6.4c1.8-0.9,4.6-0.9,6.4-0.9c2.7,0,4.6,0,6.4,0.9c0.9,1.8,0.9,4.6,0.9,6.4   c0,2.7,0,4.6-0.9,6.4C424.6,275.8,422.8,275.8,420.9,275.8z M260.6,308.6c0,1.8,0,6.4,0,10c-3.6-1.8-7.3-4.6-8.2-4.6   c0-0.9,0-4.6-0.9-8.2C255.1,306.8,259.7,308.6,260.6,308.6z"/>
</g>
</svg>